<svg width="156" height="185" viewBox="0 0 156 185" fill="none" xmlns="http://www.w3.org/2000/svg">
<path d="M53.352 179.288C51.16 179.288 49.44 178.552 48.192 177.08C46.944 175.592 46.32 173.44 46.32 170.624C46.32 169.216 46.48 167.976 46.8 166.904C47.12 165.832 47.584 164.928 48.192 164.192C48.8 163.456 49.536 162.904 50.4 162.536C51.28 162.152 52.264 161.96 53.352 161.96C54.808 161.96 56.024 162.28 57 162.92C57.992 163.56 58.768 164.504 59.328 165.752L57.048 167C56.76 166.2 56.312 165.568 55.704 165.104C55.112 164.624 54.328 164.384 53.352 164.384C52.056 164.384 51.04 164.824 50.304 165.704C49.568 166.584 49.2 167.8 49.2 169.352V171.896C49.2 173.448 49.568 174.664 50.304 175.544C51.04 176.424 52.056 176.864 53.352 176.864C54.36 176.864 55.176 176.608 55.8 176.096C56.44 175.568 56.912 174.896 57.216 174.08L59.4 175.4C58.84 176.616 58.056 177.568 57.048 178.256C56.04 178.944 54.808 179.288 53.352 179.288ZM71.2269 179C70.5389 179 70.0109 178.808 69.6429 178.424C69.2749 178.024 69.0509 177.52 68.9709 176.912H68.8509C68.6109 177.696 68.1709 178.288 67.5309 178.688C66.8909 179.088 66.1149 179.288 65.2029 179.288C63.9069 179.288 62.9069 178.952 62.2029 178.28C61.5149 177.608 61.1709 176.704 61.1709 175.568C61.1709 174.32 61.6189 173.384 62.5149 172.76C63.4269 172.136 64.7549 171.824 66.4989 171.824H68.7549V170.768C68.7549 170 68.5469 169.408 68.1309 168.992C67.7149 168.576 67.0669 168.368 66.1869 168.368C65.4509 168.368 64.8509 168.528 64.3869 168.848C63.9229 169.168 63.5309 169.576 63.2109 170.072L61.6509 168.656C62.0669 167.952 62.6509 167.376 63.4029 166.928C64.1549 166.464 65.1389 166.232 66.3549 166.232C67.9709 166.232 69.2109 166.608 70.0749 167.36C70.9389 168.112 71.3709 169.192 71.3709 170.6V176.864H72.6909V179H71.2269ZM65.9469 177.296C66.7629 177.296 67.4349 177.12 67.9629 176.768C68.4909 176.4 68.7549 175.912 68.7549 175.304V173.504H66.5469C64.7389 173.504 63.8349 174.064 63.8349 175.184V175.616C63.8349 176.176 64.0189 176.6 64.3869 176.888C64.7709 177.16 65.2909 177.296 65.9469 177.296ZM75.2548 161.24H77.8708V168.584H77.9908C78.2628 167.832 78.7028 167.256 79.3108 166.856C79.9348 166.44 80.6628 166.232 81.4948 166.232C83.0788 166.232 84.3028 166.808 85.1668 167.96C86.0308 169.096 86.4628 170.696 86.4628 172.76C86.4628 174.824 86.0308 176.432 85.1668 177.584C84.3028 178.72 83.0788 179.288 81.4948 179.288C80.6628 179.288 79.9348 179.08 79.3108 178.664C78.7028 178.248 78.2628 177.672 77.9908 176.936H77.8708V179H75.2548V161.24ZM80.7028 177.032C81.6148 177.032 82.3428 176.744 82.8868 176.168C83.4308 175.576 83.7028 174.8 83.7028 173.84V171.68C83.7028 170.72 83.4308 169.952 82.8868 169.376C82.3428 168.784 81.6148 168.488 80.7028 168.488C79.9028 168.488 79.2308 168.688 78.6868 169.088C78.1428 169.472 77.8708 169.984 77.8708 170.624V174.896C77.8708 175.536 78.1428 176.056 78.6868 176.456C79.2308 176.84 79.9028 177.032 80.7028 177.032ZM93.4179 179.288C92.2339 179.288 91.2419 179.08 90.4419 178.664C89.6419 178.248 88.9459 177.672 88.3539 176.936L90.0339 175.4C90.4979 175.96 91.0099 176.4 91.5699 176.72C92.1459 177.024 92.8099 177.176 93.5619 177.176C94.3299 177.176 94.8979 177.032 95.2659 176.744C95.6499 176.44 95.8419 176.024 95.8419 175.496C95.8419 175.096 95.7059 174.76 95.4339 174.488C95.1779 174.2 94.7219 174.016 94.0659 173.936L92.9139 173.792C91.6339 173.632 90.6259 173.264 89.8899 172.688C89.1699 172.096 88.8099 171.224 88.8099 170.072C88.8099 169.464 88.9219 168.928 89.1459 168.464C89.3699 167.984 89.6819 167.584 90.0819 167.264C90.4979 166.928 90.9859 166.672 91.5459 166.496C92.1219 166.32 92.7539 166.232 93.4419 166.232C94.5619 166.232 95.4739 166.408 96.1779 166.76C96.8979 167.112 97.5379 167.6 98.0979 168.224L96.4899 169.76C96.1699 169.376 95.7459 169.048 95.2179 168.776C94.7059 168.488 94.1139 168.344 93.4419 168.344C92.7219 168.344 92.1859 168.488 91.8339 168.776C91.4979 169.064 91.3299 169.44 91.3299 169.904C91.3299 170.384 91.4819 170.744 91.7859 170.984C92.0899 171.224 92.5779 171.4 93.2499 171.512L94.4019 171.656C95.7779 171.864 96.7779 172.272 97.4019 172.88C98.0419 173.472 98.3619 174.272 98.3619 175.28C98.3619 175.888 98.2419 176.44 98.0019 176.936C97.7779 177.416 97.4499 177.832 97.0179 178.184C96.5859 178.536 96.0659 178.808 95.4579 179C94.8499 179.192 94.1699 179.288 93.4179 179.288Z" fill="white"/>
<g filter="url(#filter0_d_1345_12416)">
<circle cx="72" cy="74" r="64" fill="white"/>
<circle cx="72" cy="74" r="63.5" stroke="url(#paint0_linear_1345_12416)"/>
</g>
<g clip-path="url(#clip0_1345_12416)">
<path d="M111.378 72.5729L32.6035 74.3926L32.6437 76.0893L111.418 74.2696L111.378 72.5729Z" fill="#32996A"/>
<path d="M37.4686 86.6463C37.4217 86.6498 37.3745 86.6498 37.3276 86.6463L36.1006 86.4427C35.6903 86.3735 35.3059 86.1977 34.987 85.9335C34.6681 85.6693 34.426 85.326 34.2857 84.939H32.1512C31.6687 84.9327 31.2084 84.7376 30.8714 84.3965C30.5344 84.0554 30.3481 83.5962 30.3536 83.1197V81.9555C30.3481 81.4789 30.5344 81.0197 30.8714 80.6786C31.2084 80.3375 31.6687 80.1423 32.1512 80.1361H32.8387L32.2887 76.3481L31.5635 75.4723C31.4461 75.3285 31.3786 75.1512 31.371 74.9666L31.2988 72.852C31.2596 72.085 31.4971 71.3291 31.9692 70.7188C32.4412 70.1085 33.1171 69.6833 33.8767 69.5188C37.5544 68.772 46.7145 67.007 53.7503 66.4435C54.4755 64.7464 57.0017 59.061 59.6758 56.1996C60.5523 55.2628 69.2998 54.2818 73.5722 53.9865C79.9412 53.5487 88.6337 53.4706 93.8719 55.5818C94.0588 55.6578 94.2126 55.7965 94.3062 55.9734C94.3999 56.1504 94.4274 56.3542 94.3839 56.5492L94.2465 57.1704L98.7147 63.6195C99.0821 64.2127 99.653 64.656 100.323 64.8686L110.666 68.3681C111.273 68.5643 111.801 68.9472 112.172 69.4609C112.543 69.9745 112.738 70.5919 112.728 71.2227V77.1389H113.037C113.276 77.142 113.513 77.1916 113.733 77.2849C113.952 77.3782 114.152 77.5133 114.318 77.6826C114.485 77.8519 114.617 78.052 114.705 78.2714C114.794 78.4909 114.838 78.7254 114.835 78.9617V79.8374C114.839 80.2933 114.668 80.7338 114.357 81.0707C114.046 81.4075 113.618 81.6157 113.158 81.6534L112.37 81.7076C112.257 82.2252 112.01 82.7048 111.652 83.0993C111.395 83.3838 111.082 83.6141 110.732 83.7768C110.383 83.9395 110.004 84.0311 109.617 84.0463L37.4994 86.6463H37.4686ZM32.1512 81.8231C32.1203 81.8231 32.0722 81.8706 32.0722 81.9453V83.1095C32.0722 83.1842 32.1203 83.2317 32.1512 83.2317H34.9938C35.2217 83.2317 35.4403 83.3211 35.6015 83.4802C35.7626 83.6394 35.853 83.8552 35.853 84.0802C35.849 84.2367 35.8998 84.3898 35.9969 84.5135C36.094 84.6372 36.2315 84.7239 36.3859 84.7591L37.5236 84.9458L109.562 82.3288C109.719 82.3226 109.872 82.2851 110.013 82.2186C110.155 82.1521 110.281 82.0579 110.384 81.9419C110.505 81.807 110.598 81.6495 110.657 81.4788C110.716 81.308 110.74 81.1273 110.728 80.9473C110.712 80.7233 110.788 80.5024 110.937 80.3332C111.087 80.1639 111.298 80.0601 111.525 80.0445L113.048 79.9426C113.073 79.933 113.094 79.9154 113.107 79.8927C113.121 79.8699 113.127 79.8433 113.123 79.817V78.9413C113.123 78.8633 113.078 78.8157 113.044 78.8157H111.876C111.648 78.8157 111.429 78.7263 111.268 78.5672C111.107 78.408 111.016 78.1922 111.016 77.9672V71.2023C111.021 70.9306 110.939 70.6643 110.781 70.4413C110.624 70.2183 110.399 70.0499 110.14 69.96L99.7974 66.4639C98.7563 66.133 97.8675 65.4488 97.2884 64.5326L92.6207 57.7949C92.5514 57.6974 92.5035 57.5865 92.4804 57.4696C92.4573 57.3526 92.4594 57.2322 92.4866 57.116L92.5486 56.8513C83.2855 53.6607 62.8036 56.5933 60.8582 57.3876C57.9985 60.5239 55.1698 67.4449 55.1389 67.5127C55.0799 67.6605 54.9799 67.7889 54.8504 67.8832C54.7209 67.9774 54.5671 68.0337 54.4067 68.0456C47.4052 68.5514 37.9601 70.3741 34.2239 71.1311C33.8622 71.2154 33.5424 71.4237 33.3215 71.7189C33.1006 72.0141 32.9928 72.3771 33.0174 72.7434L33.0793 74.5695L33.7668 75.4079C33.8655 75.5267 33.9296 75.6699 33.9524 75.822L34.6776 80.8116C34.6962 80.9322 34.688 81.0554 34.6536 81.1726C34.6191 81.2899 34.5593 81.3983 34.4782 81.4904C34.3974 81.5825 34.2977 81.6565 34.1857 81.7074C34.0736 81.7583 33.952 81.785 33.8287 81.7857L32.1512 81.8231Z" fill="#00388C"/>
<path d="M99.924 93.4211C103.907 93.4211 107.135 90.2329 107.135 86.2999C107.135 82.367 103.907 79.1787 99.924 79.1787C95.9414 79.1787 92.7129 82.367 92.7129 86.2999C92.7129 90.2329 95.9414 93.4211 99.924 93.4211Z" fill="white"/>
<path d="M99.9181 94.2696C98.3219 94.2696 96.7615 93.8022 95.4343 92.9265C94.1072 92.0508 93.0728 90.8061 92.4619 89.3498C91.8511 87.8935 91.6914 86.291 92.0027 84.745C92.3141 83.199 93.0827 81.7789 94.2114 80.6644C95.34 79.5498 96.7782 78.7907 98.3437 78.4832C99.9092 78.1757 101.532 78.3335 103.006 78.9368C104.481 79.54 105.742 80.5614 106.628 81.8721C107.515 83.1827 107.988 84.7236 107.988 86.2999C107.986 88.4127 107.135 90.4383 105.622 91.9324C104.109 93.4264 102.058 94.2669 99.9181 94.2696ZM99.9181 80.0136C98.6618 80.0136 97.4337 80.3815 96.3891 81.0708C95.3446 81.76 94.5305 82.7397 94.0498 83.8859C93.569 85.032 93.4432 86.2932 93.6883 87.51C93.9333 88.7268 94.5383 89.8445 95.4266 90.7217C96.3149 91.5989 97.4467 92.1964 98.6788 92.4384C99.9109 92.6804 101.188 92.5562 102.349 92.0814C103.509 91.6067 104.502 90.8027 105.199 89.7712C105.897 88.7396 106.27 87.5269 106.27 86.2863C106.264 84.6256 105.593 83.0346 104.403 81.8616C103.212 80.6886 101.6 80.029 99.9181 80.0272V80.0136Z" fill="#00388C"/>
<path d="M46.3263 93.4211C50.3089 93.4211 53.5374 90.2329 53.5374 86.2999C53.5374 82.367 50.3089 79.1787 46.3263 79.1787C42.3438 79.1787 39.1152 82.367 39.1152 86.2999C39.1152 90.2329 42.3438 93.4211 46.3263 93.4211Z" fill="white"/>
<path d="M46.3321 94.2696C44.7359 94.2696 43.1757 93.8022 41.8485 92.9265C40.5214 92.0508 39.4869 90.8061 38.8761 89.3498C38.2653 87.8935 38.1054 86.291 38.4168 84.745C38.7282 83.199 39.4969 81.7789 40.6256 80.6644C41.7542 79.5498 43.1922 78.7907 44.7577 78.4832C46.3232 78.1757 47.9458 78.3335 49.4204 78.9368C50.8951 79.54 52.1556 80.5614 53.0424 81.8721C53.9291 83.1827 54.4024 84.7236 54.4024 86.2998C54.4006 88.413 53.5498 90.4391 52.0367 91.9334C50.5236 93.4276 48.4719 94.2678 46.3321 94.2696ZM46.3321 80.0136C45.0758 80.0136 43.8479 80.3815 42.8033 81.0708C41.7588 81.76 40.9445 82.7397 40.4638 83.8859C39.983 85.032 39.8572 86.2932 40.1023 87.51C40.3474 88.7268 40.9523 89.8445 41.8406 90.7217C42.729 91.5989 43.8609 92.1964 45.093 92.4384C46.3251 92.6804 47.6023 92.5562 48.7629 92.0814C49.9235 91.6067 50.9155 90.8027 51.6135 89.7712C52.3114 88.7396 52.6839 87.5269 52.6839 86.2863C52.6784 84.6256 52.007 83.0346 50.8166 81.8616C49.6262 80.6886 48.0137 80.029 46.3321 80.0272V80.0136Z" fill="#00388C"/>
<path d="M76.9989 67.5262C76.771 67.5262 76.5525 67.4368 76.3914 67.2776C76.2302 67.1185 76.1396 66.9027 76.1396 66.6776V58.6874C76.1396 58.4624 76.2302 58.2465 76.3914 58.0874C76.5525 57.9283 76.771 57.8389 76.9989 57.8389C77.2268 57.8389 77.4455 57.9283 77.6066 58.0874C77.7678 58.2465 77.8582 58.4624 77.8582 58.6874V66.6776C77.8582 66.9027 77.7678 67.1185 77.6066 67.2776C77.4455 67.4368 77.2268 67.5262 76.9989 67.5262Z" fill="#00388C"/>
<path d="M73.8654 71.4813H69.6034C69.3755 71.4813 69.1569 71.3919 68.9957 71.2328C68.8346 71.0737 68.7441 70.8578 68.7441 70.6328C68.7441 70.4077 68.8346 70.1919 68.9957 70.0327C69.1569 69.8736 69.3755 69.7842 69.6034 69.7842H73.8654C74.0933 69.7842 74.3118 69.8736 74.473 70.0327C74.6341 70.1919 74.7247 70.4077 74.7247 70.6328C74.7247 70.8578 74.6341 71.0737 74.473 71.2328C74.3118 71.3919 74.0933 71.4813 73.8654 71.4813Z" fill="#00388C"/>
<path d="M89.6512 71.1039C89.4233 71.1084 89.2028 71.0233 89.0384 70.8673C88.874 70.7114 88.7791 70.4974 88.7746 70.2723C88.77 70.0473 88.8563 69.8296 89.0142 69.6673C89.1722 69.505 89.3889 69.4113 89.6168 69.4067L93.8754 69.2302C93.9882 69.2256 94.1008 69.2429 94.2069 69.2812C94.3129 69.3195 94.4104 69.3781 94.4935 69.4536C94.5767 69.5291 94.644 69.62 94.6916 69.7212C94.7391 69.8223 94.766 69.9317 94.7708 70.0432C94.7755 70.1546 94.7579 70.2659 94.7191 70.3706C94.6803 70.4754 94.621 70.5716 94.5445 70.6537C94.4681 70.7358 94.3761 70.8022 94.2737 70.8492C94.1712 70.8961 94.0604 70.9227 93.9476 70.9274L89.6889 71.1039H89.6512Z" fill="#00388C"/>
<path d="M113.528 69.4443H112.83C112.304 69.4443 111.878 69.8653 111.878 70.3846V75.2927C111.878 75.812 112.304 76.2329 112.83 76.2329H113.528C114.054 76.2329 114.48 75.812 114.48 75.2927V70.3846C114.48 69.8653 114.054 69.4443 113.528 69.4443Z" fill="#00388C"/>
<path d="M31.7076 76.2939C31.5824 76.294 31.4588 76.267 31.3454 76.2148C31.232 76.1626 31.1314 76.0865 31.051 75.9918C28.9063 73.4902 30.1127 70.7714 31.051 69.6852C31.2015 69.5252 31.4087 69.4286 31.6295 69.4156C31.8503 69.4026 32.0677 69.4741 32.2364 69.6154C32.4051 69.7566 32.5122 69.9566 32.5353 70.1739C32.5584 70.3911 32.4959 70.6088 32.3606 70.7816C32.1784 70.9988 30.6592 72.9132 32.3606 74.8954C32.5078 75.0676 32.58 75.2903 32.5613 75.5148C32.5426 75.7394 32.4346 75.9475 32.2609 76.0936C32.1054 76.2215 31.9099 76.2922 31.7076 76.2939Z" fill="#00388C"/>
<path d="M46.3285 89.7549C48.204 89.7549 49.7244 88.2535 49.7244 86.4014C49.7244 84.5493 48.204 83.0479 46.3285 83.0479C44.453 83.0479 42.9326 84.5493 42.9326 86.4014C42.9326 88.2535 44.453 89.7549 46.3285 89.7549Z" fill="#00388C"/>
<path d="M99.9203 89.7549C101.796 89.7549 103.316 88.2535 103.316 86.4014C103.316 84.5493 101.796 83.0479 99.9203 83.0479C98.0448 83.0479 96.5244 84.5493 96.5244 86.4014C96.5244 88.2535 98.0448 89.7549 99.9203 89.7549Z" fill="#00388C"/>
<path d="M59.9557 68.0823C59.6339 68.0844 59.3174 68.0011 59.0394 67.8411C58.7613 67.6812 58.5319 67.4505 58.3749 67.173C58.218 66.8956 58.1392 66.5817 58.147 66.264C58.1548 65.9463 58.249 65.6365 58.4194 65.3669L62.2002 59.4337C62.3438 59.2025 62.5394 59.0072 62.7719 58.863C63.0044 58.7187 63.2675 58.6295 63.5407 58.6021C63.8191 58.5749 64.2282 58.5274 64.7266 58.4697C69.8135 57.8893 83.3282 56.3449 89.3569 58.0318C89.5771 58.0956 89.7834 58.1992 89.9653 58.3373C90.0439 58.3979 90.1113 58.4714 90.1647 58.5546L93.791 64.1653C93.9711 64.443 94.0734 64.7628 94.0875 65.0923C94.1016 65.4218 94.0269 65.749 93.871 66.0407C93.7151 66.3323 93.4838 66.5779 93.2004 66.7523C92.917 66.9267 92.5918 67.0237 92.258 67.0335L60.0074 68.0755L59.9557 68.0823ZM59.8835 66.2698C59.8758 66.2814 59.8718 66.2949 59.8718 66.3088C59.8718 66.3227 59.8758 66.3362 59.8835 66.3478C59.89 66.3608 59.9004 66.3715 59.9134 66.3782C59.9264 66.3849 59.9412 66.3874 59.9557 66.3852L92.2063 65.3465C92.2366 65.3458 92.2661 65.3369 92.2916 65.3207C92.317 65.3045 92.3374 65.2818 92.3507 65.2549C92.3676 65.2298 92.3768 65.2002 92.3768 65.17C92.3768 65.1398 92.3676 65.1103 92.3507 65.0852L88.8518 59.6543C83.0808 58.0794 69.432 59.6543 64.9328 60.1499C64.4207 60.2076 64.0117 60.2551 63.7298 60.2822C63.7175 60.284 63.7057 60.2886 63.6956 60.2957C63.6854 60.3028 63.6771 60.3121 63.6713 60.323L59.8835 66.2698Z" fill="#00388C"/>
</g>
<defs>
<filter id="filter0_d_1345_12416" x="0" y="0" width="156" height="156" filterUnits="userSpaceOnUse" color-interpolation-filters="sRGB">
<feFlood flood-opacity="0" result="BackgroundImageFix"/>
<feColorMatrix in="SourceAlpha" type="matrix" values="0 0 0 0 0 0 0 0 0 0 0 0 0 0 0 0 0 0 127 0" result="hardAlpha"/>
<feOffset dx="6" dy="4"/>
<feGaussianBlur stdDeviation="7"/>
<feComposite in2="hardAlpha" operator="out"/>
<feColorMatrix type="matrix" values="0 0 0 0 0.313872 0 0 0 0 0.420833 0 0 0 0 0.372026 0 0 0 0.15 0"/>
<feBlend mode="normal" in2="BackgroundImageFix" result="effect1_dropShadow_1345_12416"/>
<feBlend mode="normal" in="SourceGraphic" in2="effect1_dropShadow_1345_12416" result="shape"/>
</filter>
<linearGradient id="paint0_linear_1345_12416" x1="72" y1="10" x2="72" y2="138" gradientUnits="userSpaceOnUse">
<stop stop-color="#BDEBE0"/>
<stop offset="0.994792" stop-color="#BFE8FB"/>
</linearGradient>
<clipPath id="clip0_1345_12416">
<rect width="84.9865" height="40.5617" fill="white" transform="translate(29.8535 53.708)"/>
</clipPath>
</defs>
</svg>
