<svg width="50" height="50" viewBox="0 0 50 50" fill="none" xmlns="http://www.w3.org/2000/svg">
<circle cx="25" cy="25" r="25" fill="#00388C" fill-opacity="0.1"/>
<g clip-path="url(#clip0_1345_11778)">
<path d="M10.75 15.722V34.9327C10.75 35.2002 10.9547 35.4047 11.2224 35.4047H38.7776C39.0453 35.4047 39.25 35.2002 39.25 34.9327V15.722C39.25 15.4545 39.0453 15.25 38.7776 15.25H11.2224C10.9547 15.25 10.75 15.4545 10.75 15.722ZM24.7638 24.5328L14.9699 17.6887C14.592 17.4212 14.7809 16.8234 15.2376 16.8234H35.2191C35.6914 16.8234 35.8646 17.4212 35.4867 17.6887L25.2992 24.5328C25.1417 24.6429 24.9213 24.6429 24.7638 24.5328ZM12.3246 33.3593V18.6485C12.3246 18.2708 12.7497 18.0506 13.0646 18.2551L24.7323 26.4366C24.8898 26.5467 25.1102 26.5467 25.2677 26.4366L36.9354 18.6012C37.2503 18.3967 37.6754 18.617 37.6754 18.9946V33.3593C37.6754 33.6268 37.4707 33.8313 37.203 33.8313H12.797C12.5293 33.8313 12.3246 33.6268 12.3246 33.3593Z" fill="#1E54B0"/>
</g>
<defs>
<clipPath id="clip0_1345_11778">
<rect width="28.5" height="20.1547" fill="white" transform="translate(10.75 15.25)"/>
</clipPath>
</defs>
</svg>
