<svg width="156" height="185" viewBox="0 0 156 185" fill="none" xmlns="http://www.w3.org/2000/svg">
<path d="M56.432 176.936H56.336C56.224 177.24 56.072 177.536 55.88 177.824C55.704 178.112 55.472 178.368 55.184 178.592C54.912 178.8 54.576 178.968 54.176 179.096C53.792 179.224 53.344 179.288 52.832 179.288C51.536 179.288 50.528 178.872 49.808 178.04C49.104 177.208 48.752 176.016 48.752 174.464V166.52H51.368V174.128C51.368 176.064 52.168 177.032 53.768 177.032C54.104 177.032 54.432 176.992 54.752 176.912C55.072 176.816 55.352 176.68 55.592 176.504C55.848 176.328 56.048 176.104 56.192 175.832C56.352 175.56 56.432 175.24 56.432 174.872V166.52H59.048V179H56.432V176.936ZM68.1238 164.648V179H65.4118V164.648H60.4198V162.248H73.1158V164.648H68.1238ZM83.0238 179C82.3358 179 81.8078 178.808 81.4398 178.424C81.0718 178.024 80.8478 177.52 80.7678 176.912H80.6478C80.4078 177.696 79.9678 178.288 79.3278 178.688C78.6878 179.088 77.9118 179.288 76.9998 179.288C75.7038 179.288 74.7038 178.952 73.9998 178.28C73.3118 177.608 72.9678 176.704 72.9678 175.568C72.9678 174.32 73.4158 173.384 74.3118 172.76C75.2238 172.136 76.5518 171.824 78.2958 171.824H80.5518V170.768C80.5518 170 80.3438 169.408 79.9278 168.992C79.5118 168.576 78.8638 168.368 77.9838 168.368C77.2478 168.368 76.6478 168.528 76.1838 168.848C75.7198 169.168 75.3278 169.576 75.0078 170.072L73.4478 168.656C73.8638 167.952 74.4478 167.376 75.1998 166.928C75.9518 166.464 76.9358 166.232 78.1518 166.232C79.7678 166.232 81.0078 166.608 81.8718 167.36C82.7358 168.112 83.1678 169.192 83.1678 170.6V176.864H84.4878V179H83.0238ZM77.7438 177.296C78.5598 177.296 79.2318 177.12 79.7598 176.768C80.2878 176.4 80.5518 175.912 80.5518 175.304V173.504H78.3438C76.5358 173.504 75.6318 174.064 75.6318 175.184V175.616C75.6318 176.176 75.8158 176.6 76.1838 176.888C76.5678 177.16 77.0878 177.296 77.7438 177.296ZM85.6597 179L90.0517 172.688L85.7797 166.52H88.8037L91.6117 170.864H91.6837L94.5637 166.52H97.3477L93.0757 172.664L97.4197 179H94.3957L91.5157 174.464H91.4437L88.4437 179H85.6597Z" fill="white"/>
<g filter="url(#filter0_d_1345_12476)">
<circle cx="72" cy="74" r="64" fill="white"/>
<circle cx="72" cy="74" r="63.5" stroke="url(#paint0_linear_1345_12476)"/>
</g>
<path d="M84.7086 70.0948V71.8576H85.5975V70.0948H84.7086ZM84.7086 65.212V67.0241C84.8615 67.0594 85.0108 67.1017 85.1602 67.1475L85.3522 67.211C85.4356 67.2384 85.5175 67.2702 85.5975 67.3061C85.9158 67.4314 86.215 67.5998 86.4865 67.8068V65.212H84.7086ZM85.5975 74.1386L85.3877 74.1986C85.2707 74.2315 85.152 74.2586 85.0322 74.2796C84.9326 74.3008 84.833 74.3184 84.7263 74.3325V76.0953C85.0253 76.0612 85.322 76.0105 85.6153 75.9437C85.9186 75.8805 86.2159 75.792 86.5042 75.6793V73.7156C86.2237 73.8983 85.9184 74.0407 85.5975 74.1386ZM82.0417 44.3408H46.7856C45.6074 44.3427 44.4779 44.8076 43.6447 45.6336C42.8116 46.4597 42.3427 47.5795 42.3408 48.7477V99.251C42.3427 100.419 42.8116 101.539 43.6447 102.365C44.4779 103.191 45.6074 103.656 46.7856 103.658H82.0559C83.2341 103.656 84.3636 103.191 85.1968 102.365C86.0299 101.539 86.4988 100.419 86.5007 99.251V88.0751C86.2589 88.0751 86.0171 88.0927 85.7718 88.0927H85.6117C85.313 88.0927 85.0179 88.075 84.7228 88.0539V99.251C84.7209 99.9517 84.4393 100.623 83.9396 101.119C83.4399 101.614 82.7626 101.893 82.0559 101.895H46.7856C46.0789 101.893 45.4016 101.614 44.9019 101.119C44.4022 100.623 44.1206 99.9517 44.1187 99.251V48.7477C44.1206 48.047 44.4022 47.3756 44.9019 46.8801C45.4016 46.3846 46.0789 46.1055 46.7856 46.1036H82.0559C82.7626 46.1055 83.4399 46.3846 83.9396 46.8801C84.4393 47.3756 84.7209 48.047 84.7228 48.7477V60.1564C85.0179 60.1352 85.313 60.1211 85.6117 60.1176H85.7718C86.0171 60.1176 86.2589 60.1176 86.5007 60.1176V48.7301C86.4941 47.5625 86.0212 46.4451 85.1855 45.6224C84.3498 44.7998 83.2193 44.3389 82.0417 44.3408ZM84.7086 78.0555V80.675L85.5975 81.648L86.4865 82.6175V79.9945L84.7086 78.0555ZM84.7086 70.0948V71.8576H86.4865V70.0948H84.7086ZM84.7086 70.0948V71.8576H85.5975V70.0948H84.7086Z" fill="#00388C"/>
<path d="M86.479 58.373C86.2372 58.373 85.9954 58.373 85.75 58.373H85.5901C85.2914 58.373 84.9962 58.373 84.7011 58.4083C80.6762 58.669 76.9021 60.438 74.1445 63.3565C71.387 66.275 69.8525 70.1243 69.8525 74.1234C69.8525 78.1224 71.387 81.9717 74.1445 84.8902C76.9021 87.8087 80.6762 89.5777 84.7011 89.8384C84.9962 89.8596 85.2914 89.8701 85.5901 89.8737H85.75C85.9954 89.8737 86.2372 89.8737 86.479 89.856C90.5642 89.6741 94.4212 87.9371 97.2471 85.0065C100.073 82.076 101.65 78.1778 101.65 74.1234C101.65 70.0689 100.073 66.1707 97.2471 63.2402C94.4212 60.3097 90.5642 58.5726 86.479 58.3907V58.373ZM86.479 88.0757C86.2372 88.0757 85.9954 88.0933 85.75 88.0933H85.5901C85.2914 88.0933 84.9962 88.0756 84.7011 88.0545C81.1469 87.7976 77.8225 86.2165 75.396 83.6289C72.9695 81.0413 71.6207 77.639 71.6207 74.1057C71.6207 70.5725 72.9695 67.1702 75.396 64.5826C77.8225 61.995 81.1469 60.4139 84.7011 60.157C84.9962 60.1358 85.2914 60.1217 85.5901 60.1182H85.75C85.9954 60.1182 86.2372 60.1182 86.479 60.1182C90.0875 60.3068 93.4855 61.8608 95.9725 64.46C98.4595 67.0592 99.8459 70.5054 99.8459 74.0881C99.8459 77.6708 98.4595 81.117 95.9725 83.7162C93.4855 86.3154 90.0875 87.8694 86.479 88.058V88.0757Z" fill="#00388C"/>
<path d="M89.1867 84.2501C89.0116 84.4073 88.7807 84.4893 88.5448 84.478C88.3088 84.4668 88.087 84.3633 87.9279 84.1902L86.5056 82.6178L85.6166 81.6483L84.7276 80.6752L80.6029 76.1731C80.5337 76.0987 80.4784 76.0128 80.4393 75.9193C80.3588 75.7275 80.3492 75.5137 80.4122 75.3155C80.4753 75.1174 80.6068 74.9477 80.7837 74.8364C80.9606 74.7251 81.1715 74.6793 81.3791 74.7072C81.5868 74.735 81.7778 74.8346 81.9186 74.9885L82.9853 76.1731L84.7099 78.0557L86.4878 79.9948L89.2436 83.0021C89.4026 83.1752 89.4859 83.4038 89.4752 83.6377C89.4645 83.8717 89.3608 84.0919 89.1867 84.2501Z" fill="#32996A"/>
<path d="M89.4028 71.8565C89.3039 73.0144 88.765 74.0919 87.8951 74.8708C87.4733 75.2252 86.9918 75.5033 86.4728 75.6923C86.1845 75.805 85.8871 75.8934 85.5838 75.9567C85.2906 76.0235 84.9938 76.0741 84.6949 76.1083C84.2604 76.1561 83.8235 76.1796 83.3863 76.1788H82.9703C82.1219 76.1508 81.2762 76.0684 80.4386 75.932H80.4065C80.1819 75.8837 79.9848 75.7511 79.8567 75.5619C79.7286 75.3726 79.6794 75.1416 79.7194 74.9171C79.7594 74.6927 79.8856 74.4924 80.0714 74.3582C80.2572 74.224 80.4882 74.1664 80.7159 74.1974C82.0278 74.439 83.3684 74.4889 84.6949 74.3455C84.8016 74.3455 84.9011 74.3138 85.0007 74.2926C85.1205 74.2715 85.2392 74.2445 85.3563 74.2115L85.5661 74.1516C85.88 74.0566 86.1791 73.919 86.455 73.7426C86.5438 73.6826 86.6293 73.6178 86.7111 73.5487C87.1958 73.1121 87.5041 72.5157 87.5787 71.8706C87.6467 71.4475 87.6753 71.0191 87.664 70.5908C87.664 70.4251 87.664 70.2629 87.6427 70.1078C87.6226 69.6807 87.5137 69.2623 87.3228 68.8788C87.1319 68.4954 86.8631 68.1552 86.5333 67.8797C86.5088 67.8578 86.4826 67.8377 86.455 67.8197C86.1835 67.6128 85.8843 67.4443 85.5661 67.3191C85.486 67.2832 85.4041 67.2514 85.3207 67.2239L85.1287 67.1605C84.9793 67.1146 84.83 67.0723 84.6771 67.0371L84.4389 66.9877C83.2105 66.7783 81.955 66.7783 80.7266 66.9877C80.671 66.9927 80.615 66.9927 80.5595 66.9877C80.3237 67.0092 80.089 66.937 79.9069 66.7869C79.7249 66.6368 79.6104 66.4212 79.5887 66.1874C79.567 65.9537 79.6399 65.7209 79.7913 65.5404C79.9426 65.3599 80.1601 65.2465 80.3959 65.225H80.4848C81.8485 65.007 83.2387 65.007 84.6024 65.225H84.6771C84.9772 65.2787 85.274 65.3494 85.5661 65.4365C85.8698 65.5248 86.1669 65.6343 86.455 65.7644C86.8892 65.9571 87.2958 66.2061 87.664 66.5047C87.8418 66.6482 88.0082 66.8049 88.1618 66.9736C88.9355 67.8366 89.3819 68.9398 89.4242 70.0937C89.4242 70.2488 89.4242 70.404 89.4242 70.5661C89.4495 70.9962 89.4424 71.4275 89.4028 71.8565Z" fill="#32996A"/>
<path d="M92.4577 66.0923C92.4582 66.2082 92.4355 66.323 92.391 66.4302C92.3465 66.5373 92.281 66.6347 92.1983 66.7166C92.1157 66.7985 92.0175 66.8634 91.9095 66.9076C91.8014 66.9517 91.6856 66.9742 91.5687 66.9737H79.9554C79.7196 66.9737 79.4935 66.8808 79.3268 66.7156C79.16 66.5503 79.0664 66.3261 79.0664 66.0923C79.0664 65.8586 79.16 65.6344 79.3268 65.4691C79.4935 65.3038 79.7196 65.2109 79.9554 65.2109H91.5687C91.6856 65.2105 91.8014 65.233 91.9095 65.2771C92.0175 65.3212 92.1157 65.3861 92.1983 65.4681C92.281 65.55 92.3465 65.6473 92.391 65.7545C92.4355 65.8616 92.4582 65.9765 92.4577 66.0923Z" fill="#32996A"/>
<path d="M92.4577 70.9751C92.4582 71.091 92.4355 71.2058 92.391 71.313C92.3465 71.4201 92.281 71.5175 92.1983 71.5994C92.1157 71.6814 92.0175 71.7463 91.9095 71.7904C91.8014 71.8345 91.6856 71.857 91.5687 71.8565H79.9554C79.7196 71.8565 79.4935 71.7637 79.3268 71.5984C79.16 71.4331 79.0664 71.2089 79.0664 70.9751C79.0664 70.7414 79.16 70.5172 79.3268 70.3519C79.4935 70.1866 79.7196 70.0938 79.9554 70.0938H91.5687C91.6856 70.0933 91.8014 70.1158 91.9095 70.1599C92.0175 70.204 92.1157 70.2689 92.1983 70.3509C92.281 70.4328 92.3465 70.5302 92.391 70.6373C92.4355 70.7444 92.4582 70.8593 92.4577 70.9751Z" fill="#32996A"/>
<path d="M63.2791 53.6442L52.5014 64.3301C52.3342 64.495 52.1079 64.5876 51.872 64.5876C51.6362 64.5876 51.4099 64.495 51.2426 64.3301C51.0772 64.1638 50.9844 63.9397 50.9844 63.7061C50.9844 63.4725 51.0772 63.2483 51.2426 63.0821L62.0203 52.3962C62.1873 52.2307 62.4137 52.1377 62.6497 52.1377C62.8858 52.1377 63.1122 52.2307 63.2791 52.3962C63.446 52.5617 63.5398 52.7861 63.5398 53.0202C63.5398 53.2542 63.446 53.4787 63.2791 53.6442Z" fill="#00388C"/>
<path fill-rule="evenodd" clip-rule="evenodd" d="M56.0318 54.2054C56.0318 54.7897 55.8571 55.3609 55.5297 55.8467C55.2023 56.3326 54.7369 56.7113 54.1924 56.9349C53.6479 57.1585 53.0487 57.217 52.4707 57.103C51.8927 56.989 51.3618 56.7076 50.945 56.2944C50.5283 55.8813 50.2445 55.3548 50.1295 54.7817C50.0145 54.2087 50.0736 53.6146 50.2991 53.0748C50.5246 52.5349 50.9066 52.0735 51.3966 51.7489C51.8866 51.4242 52.4627 51.251 53.0521 51.251C53.8423 51.251 54.6003 51.5622 55.1591 52.1163C55.7179 52.6704 56.0318 53.4218 56.0318 54.2054Z" fill="#00388C"/>
<path fill-rule="evenodd" clip-rule="evenodd" d="M64.8922 62.9769C64.8922 63.5612 64.7174 64.1324 64.39 64.6182C64.0626 65.1041 63.5972 65.4827 63.0527 65.7064C62.5083 65.93 61.9091 65.9885 61.3311 65.8745C60.7531 65.7605 60.2221 65.4791 59.8054 65.0659C59.3887 64.6527 59.1049 64.1263 58.9899 63.5532C58.8749 62.9801 58.9339 62.3861 59.1594 61.8463C59.385 61.3064 59.7669 60.845 60.2569 60.5204C60.7469 60.1957 61.3231 60.0225 61.9124 60.0225C62.7027 60.0225 63.4606 60.3337 64.0194 60.8878C64.5783 61.4418 64.8922 62.1933 64.8922 62.9769Z" fill="#00388C"/>
<path d="M64.3427 74.1031C64.3432 74.2189 64.3205 74.3338 64.276 74.4409C64.2315 74.5481 64.1661 74.6454 64.0834 74.7273C64.0008 74.8093 63.9026 74.8742 63.7945 74.9183C63.6864 74.9624 63.5706 74.9849 63.4538 74.9844H49.138C48.9022 74.9844 48.6761 74.8916 48.5094 74.7263C48.3427 74.561 48.249 74.3368 48.249 74.1031C48.249 73.8693 48.3427 73.6451 48.5094 73.4798C48.6761 73.3145 48.9022 73.2217 49.138 73.2217H63.4538C63.6895 73.2217 63.9157 73.3145 64.0824 73.4798C64.2491 73.6451 64.3427 73.8693 64.3427 74.1031Z" fill="#00388C"/>
<path d="M64.3427 83.5972C64.3427 83.831 64.2491 84.0551 64.0824 84.2204C63.9157 84.3857 63.6895 84.4786 63.4538 84.4786H49.138C48.9022 84.4786 48.6761 84.3857 48.5094 84.2204C48.3427 84.0551 48.249 83.831 48.249 83.5972C48.249 83.3635 48.3427 83.1393 48.5094 82.974C48.6761 82.8087 48.9022 82.7158 49.138 82.7158H63.4538C63.5706 82.7154 63.6864 82.7378 63.7945 82.782C63.9026 82.8261 64.0008 82.891 64.0834 82.9729C64.1661 83.0549 64.2315 83.1522 64.276 83.2594C64.3205 83.3665 64.3432 83.4813 64.3427 83.5972Z" fill="#00388C"/>
<path d="M78.9963 93.6919C78.9963 93.9257 78.9027 94.1499 78.7359 94.3152C78.5692 94.4805 78.3431 94.5733 78.1073 94.5733H49.138C48.9022 94.5733 48.6761 94.4805 48.5094 94.3152C48.3427 94.1499 48.249 93.9257 48.249 93.6919C48.249 93.4582 48.3427 93.234 48.5094 93.0687C48.6761 92.9034 48.9022 92.8105 49.138 92.8105H78.1073C78.3431 92.8105 78.5692 92.9034 78.7359 93.0687C78.9027 93.234 78.9963 93.4582 78.9963 93.6919Z" fill="#00388C"/>
<defs>
<filter id="filter0_d_1345_12476" x="0" y="0" width="156" height="156" filterUnits="userSpaceOnUse" color-interpolation-filters="sRGB">
<feFlood flood-opacity="0" result="BackgroundImageFix"/>
<feColorMatrix in="SourceAlpha" type="matrix" values="0 0 0 0 0 0 0 0 0 0 0 0 0 0 0 0 0 0 127 0" result="hardAlpha"/>
<feOffset dx="6" dy="4"/>
<feGaussianBlur stdDeviation="7"/>
<feComposite in2="hardAlpha" operator="out"/>
<feColorMatrix type="matrix" values="0 0 0 0 0.313872 0 0 0 0 0.420833 0 0 0 0 0.372026 0 0 0 0.15 0"/>
<feBlend mode="normal" in2="BackgroundImageFix" result="effect1_dropShadow_1345_12476"/>
<feBlend mode="normal" in="SourceGraphic" in2="effect1_dropShadow_1345_12476" result="shape"/>
</filter>
<linearGradient id="paint0_linear_1345_12476" x1="72" y1="10" x2="72" y2="138" gradientUnits="userSpaceOnUse">
<stop stop-color="#BDEBE0"/>
<stop offset="0.994792" stop-color="#BFE8FB"/>
</linearGradient>
</defs>
</svg>
