<svg width="163" height="206" viewBox="0 0 163 206" fill="none" xmlns="http://www.w3.org/2000/svg">
<path d="M13.1148 200V183.248H23.8428V185.648H15.8268V190.304H23.0988V192.704H15.8268V197.6H23.8428V200H13.1148ZM26.7653 194.024V191.36H33.4133V194.024H26.7653ZM41.8405 200.288C40.9445 200.288 40.1445 200.136 39.4405 199.832C38.7365 199.528 38.1445 199.096 37.6645 198.536C37.1845 197.96 36.8165 197.272 36.5605 196.472C36.3045 195.656 36.1765 194.752 36.1765 193.76C36.1765 192.768 36.3045 191.872 36.5605 191.072C36.8165 190.256 37.1845 189.568 37.6645 189.008C38.1445 188.432 38.7365 187.992 39.4405 187.688C40.1445 187.384 40.9445 187.232 41.8405 187.232C43.0885 187.232 44.1125 187.512 44.9125 188.072C45.7125 188.632 46.2965 189.376 46.6645 190.304L44.5045 191.312C44.3285 190.736 44.0165 190.28 43.5685 189.944C43.1365 189.592 42.5605 189.416 41.8405 189.416C40.8805 189.416 40.1525 189.72 39.6565 190.328C39.1765 190.92 38.9365 191.696 38.9365 192.656V194.888C38.9365 195.848 39.1765 196.632 39.6565 197.24C40.1525 197.832 40.8805 198.128 41.8405 198.128C42.6085 198.128 43.2165 197.944 43.6645 197.576C44.1285 197.192 44.4965 196.688 44.7685 196.064L46.7605 197.12C46.3445 198.144 45.7205 198.928 44.8885 199.472C44.0565 200.016 43.0405 200.288 41.8405 200.288ZM54.0063 200.288C53.1423 200.288 52.3503 200.136 51.6303 199.832C50.9263 199.528 50.3263 199.096 49.8303 198.536C49.3343 197.96 48.9503 197.272 48.6783 196.472C48.4063 195.656 48.2703 194.752 48.2703 193.76C48.2703 192.768 48.4063 191.872 48.6783 191.072C48.9503 190.256 49.3343 189.568 49.8303 189.008C50.3263 188.432 50.9263 187.992 51.6303 187.688C52.3503 187.384 53.1423 187.232 54.0063 187.232C54.8703 187.232 55.6543 187.384 56.3583 187.688C57.0783 187.992 57.6863 188.432 58.1823 189.008C58.6783 189.568 59.0623 190.256 59.3343 191.072C59.6063 191.872 59.7423 192.768 59.7423 193.76C59.7423 194.752 59.6063 195.656 59.3343 196.472C59.0623 197.272 58.6783 197.96 58.1823 198.536C57.6863 199.096 57.0783 199.528 56.3583 199.832C55.6543 200.136 54.8703 200.288 54.0063 200.288ZM54.0063 198.128C54.9023 198.128 55.6223 197.856 56.1663 197.312C56.7103 196.752 56.9823 195.92 56.9823 194.816V192.704C56.9823 191.6 56.7103 190.776 56.1663 190.232C55.6223 189.672 54.9023 189.392 54.0063 189.392C53.1103 189.392 52.3903 189.672 51.8463 190.232C51.3023 190.776 51.0303 191.6 51.0303 192.704V194.816C51.0303 195.92 51.3023 196.752 51.8463 197.312C52.3903 197.856 53.1103 198.128 54.0063 198.128ZM62.6572 200V187.52H65.2732V189.584H65.3932C65.5212 189.264 65.6732 188.96 65.8492 188.672C66.0412 188.384 66.2652 188.136 66.5212 187.928C66.7932 187.704 67.1052 187.536 67.4572 187.424C67.8252 187.296 68.2492 187.232 68.7292 187.232C69.5772 187.232 70.3292 187.44 70.9852 187.856C71.6412 188.272 72.1212 188.912 72.4252 189.776H72.4972C72.7212 189.072 73.1532 188.472 73.7932 187.976C74.4332 187.48 75.2572 187.232 76.2652 187.232C77.5132 187.232 78.4812 187.656 79.1692 188.504C79.8572 189.336 80.2012 190.528 80.2012 192.08V200H77.5852V192.392C77.5852 191.432 77.4012 190.712 77.0332 190.232C76.6652 189.736 76.0812 189.488 75.2812 189.488C74.9452 189.488 74.6252 189.536 74.3212 189.632C74.0172 189.712 73.7452 189.84 73.5052 190.016C73.2812 190.192 73.0972 190.416 72.9532 190.688C72.8092 190.96 72.7372 191.272 72.7372 191.624V200H70.1212V192.392C70.1212 190.456 69.3612 189.488 67.8412 189.488C67.5212 189.488 67.2012 189.536 66.8812 189.632C66.5772 189.712 66.3052 189.84 66.0652 190.016C65.8252 190.192 65.6332 190.416 65.4892 190.688C65.3452 190.96 65.2732 191.272 65.2732 191.624V200H62.6572ZM83.8212 200V187.52H86.4372V189.584H86.5572C86.6852 189.264 86.8372 188.96 87.0132 188.672C87.2052 188.384 87.4292 188.136 87.6852 187.928C87.9572 187.704 88.2692 187.536 88.6212 187.424C88.9892 187.296 89.4132 187.232 89.8932 187.232C90.7412 187.232 91.4932 187.44 92.1492 187.856C92.8052 188.272 93.2852 188.912 93.5892 189.776H93.6612C93.8852 189.072 94.3172 188.472 94.9572 187.976C95.5972 187.48 96.4212 187.232 97.4292 187.232C98.6772 187.232 99.6452 187.656 100.333 188.504C101.021 189.336 101.365 190.528 101.365 192.08V200H98.7492V192.392C98.7492 191.432 98.5652 190.712 98.1972 190.232C97.8292 189.736 97.2452 189.488 96.4452 189.488C96.1092 189.488 95.7892 189.536 95.4852 189.632C95.1812 189.712 94.9092 189.84 94.6692 190.016C94.4452 190.192 94.2612 190.416 94.1172 190.688C93.9732 190.96 93.9012 191.272 93.9012 191.624V200H91.2852V192.392C91.2852 190.456 90.5252 189.488 89.0052 189.488C88.6852 189.488 88.3652 189.536 88.0452 189.632C87.7412 189.712 87.4692 189.84 87.2292 190.016C86.9892 190.192 86.7972 190.416 86.6532 190.688C86.5092 190.96 86.4372 191.272 86.4372 191.624V200H83.8212ZM109.881 200.288C108.985 200.288 108.185 200.136 107.481 199.832C106.777 199.528 106.177 199.096 105.681 198.536C105.185 197.96 104.801 197.272 104.529 196.472C104.273 195.656 104.145 194.752 104.145 193.76C104.145 192.768 104.273 191.872 104.529 191.072C104.801 190.256 105.185 189.568 105.681 189.008C106.177 188.432 106.777 187.992 107.481 187.688C108.185 187.384 108.985 187.232 109.881 187.232C110.793 187.232 111.593 187.392 112.281 187.712C112.985 188.032 113.569 188.48 114.033 189.056C114.497 189.616 114.841 190.272 115.065 191.024C115.305 191.776 115.425 192.584 115.425 193.448V194.432H106.857V194.84C106.857 195.8 107.137 196.592 107.697 197.216C108.273 197.824 109.089 198.128 110.145 198.128C110.913 198.128 111.561 197.96 112.089 197.624C112.617 197.288 113.065 196.832 113.433 196.256L114.969 197.768C114.505 198.536 113.833 199.152 112.953 199.616C112.073 200.064 111.049 200.288 109.881 200.288ZM109.881 189.272C109.433 189.272 109.017 189.352 108.633 189.512C108.265 189.672 107.945 189.896 107.673 190.184C107.417 190.472 107.217 190.816 107.073 191.216C106.929 191.616 106.857 192.056 106.857 192.536V192.704H112.665V192.464C112.665 191.504 112.417 190.736 111.921 190.16C111.425 189.568 110.745 189.272 109.881 189.272ZM118.321 200V187.52H120.937V189.92H121.057C121.233 189.28 121.601 188.72 122.161 188.24C122.721 187.76 123.497 187.52 124.489 187.52H125.185V190.04H124.153C123.113 190.04 122.313 190.208 121.753 190.544C121.209 190.88 120.937 191.376 120.937 192.032V200H118.321ZM132.216 200.288C131.32 200.288 130.52 200.136 129.816 199.832C129.112 199.528 128.52 199.096 128.04 198.536C127.56 197.96 127.192 197.272 126.936 196.472C126.68 195.656 126.552 194.752 126.552 193.76C126.552 192.768 126.68 191.872 126.936 191.072C127.192 190.256 127.56 189.568 128.04 189.008C128.52 188.432 129.112 187.992 129.816 187.688C130.52 187.384 131.32 187.232 132.216 187.232C133.464 187.232 134.488 187.512 135.288 188.072C136.088 188.632 136.672 189.376 137.04 190.304L134.88 191.312C134.704 190.736 134.392 190.28 133.944 189.944C133.512 189.592 132.936 189.416 132.216 189.416C131.256 189.416 130.528 189.72 130.032 190.328C129.552 190.92 129.312 191.696 129.312 192.656V194.888C129.312 195.848 129.552 196.632 130.032 197.24C130.528 197.832 131.256 198.128 132.216 198.128C132.984 198.128 133.592 197.944 134.04 197.576C134.504 197.192 134.872 196.688 135.144 196.064L137.136 197.12C136.72 198.144 136.096 198.928 135.264 199.472C134.432 200.016 133.416 200.288 132.216 200.288ZM144.381 200.288C143.485 200.288 142.685 200.136 141.981 199.832C141.277 199.528 140.677 199.096 140.181 198.536C139.685 197.96 139.301 197.272 139.029 196.472C138.773 195.656 138.645 194.752 138.645 193.76C138.645 192.768 138.773 191.872 139.029 191.072C139.301 190.256 139.685 189.568 140.181 189.008C140.677 188.432 141.277 187.992 141.981 187.688C142.685 187.384 143.485 187.232 144.381 187.232C145.293 187.232 146.093 187.392 146.781 187.712C147.485 188.032 148.069 188.48 148.533 189.056C148.997 189.616 149.341 190.272 149.565 191.024C149.805 191.776 149.925 192.584 149.925 193.448V194.432H141.357V194.84C141.357 195.8 141.637 196.592 142.197 197.216C142.773 197.824 143.589 198.128 144.645 198.128C145.413 198.128 146.061 197.96 146.589 197.624C147.117 197.288 147.565 196.832 147.933 196.256L149.469 197.768C149.005 198.536 148.333 199.152 147.453 199.616C146.573 200.064 145.549 200.288 144.381 200.288ZM144.381 189.272C143.933 189.272 143.517 189.352 143.133 189.512C142.765 189.672 142.445 189.896 142.173 190.184C141.917 190.472 141.717 190.816 141.573 191.216C141.429 191.616 141.357 192.056 141.357 192.536V192.704H147.165V192.464C147.165 191.504 146.917 190.736 146.421 190.16C145.925 189.568 145.245 189.272 144.381 189.272Z" fill="white"/>
<g filter="url(#filter0_d_199_2045)">
<circle cx="81.5" cy="76.5" r="68.5" fill="#F1F2F4"/>
</g>
<path d="M76.092 86.6932V89.5819C76.6217 88.8326 77.3046 88.2044 78.0953 87.7388V85.4951C77.376 85.8012 76.702 86.2043 76.092 86.6932ZM78.0953 100.287V98.865C77.542 98.5416 77.0409 98.1364 76.6089 97.663V94.0892C76.6105 93.4515 76.4313 92.8263 76.092 92.2863V100.299C76.0916 101.035 76.2545 101.762 76.5688 102.427C76.5964 102.253 76.6098 102.078 76.6089 101.902V100.299C77.1099 100.647 77.6473 100.938 78.2115 101.169C78.1271 100.883 78.0879 100.585 78.0953 100.287ZM105.388 46.5996H81.1002C79.7726 46.6017 78.5 47.13 77.5612 48.0688C76.6225 49.0076 76.0942 50.2802 76.092 51.6078V76.1398H78.0953V51.6078C78.0964 50.8112 78.4133 50.0475 78.9766 49.4842C79.5399 48.9209 80.3036 48.6039 81.1002 48.6029H105.388C106.185 48.6029 106.949 48.9195 107.513 49.483C108.076 50.0466 108.393 50.8108 108.393 51.6078V100.279C108.392 101.076 108.075 101.84 107.511 102.403C106.948 102.966 106.184 103.283 105.388 103.284H77.0977C77.5633 103.907 78.168 104.413 78.8637 104.76C79.5593 105.108 80.3265 105.289 81.1042 105.287H105.392C106.719 105.285 107.992 104.757 108.931 103.818C109.87 102.879 110.398 101.607 110.4 100.279V51.6158C110.398 50.2875 109.869 49.0143 108.929 48.0755C107.99 47.1366 106.716 46.6087 105.388 46.6076V46.5996ZM76.092 80.2545V82.2578H78.0953V80.2545H76.092Z" fill="#00388C"/>
<path d="M105.909 68.932H80.5834C80.3178 68.932 80.063 68.8264 79.8751 68.6385C79.6873 68.4507 79.5818 68.196 79.5818 67.9303C79.5818 67.6647 79.6873 67.4098 79.8751 67.222C80.063 67.0341 80.3178 66.9287 80.5834 66.9287H105.909C106.174 66.9287 106.429 67.0341 106.617 67.222C106.805 67.4098 106.91 67.6647 106.91 67.9303C106.91 68.196 106.805 68.4507 106.617 68.6385C106.429 68.8264 106.174 68.932 105.909 68.932Z" fill="#00A450"/>
<path d="M105.909 73.0785H99.7948C99.5292 73.0785 99.2745 72.9731 99.0866 72.7852C98.8988 72.5974 98.7932 72.3425 98.7932 72.0768C98.7932 71.8112 98.8988 71.5565 99.0866 71.3686C99.2745 71.1808 99.5292 71.0752 99.7948 71.0752H105.909C106.174 71.0752 106.429 71.1808 106.617 71.3686C106.805 71.5565 106.91 71.8112 106.91 72.0768C106.91 72.3425 106.805 72.5974 106.617 72.7852C106.429 72.9731 106.174 73.0785 105.909 73.0785Z" fill="#00388C"/>
<path d="M87.9474 74.1445H74.7979C73.6825 74.1456 72.6131 74.5893 71.8244 75.378C71.0357 76.1667 70.5921 77.236 70.5911 78.3514V92.6828H72.5943V78.3514C72.5943 77.767 72.8265 77.2064 73.2397 76.7932C73.653 76.3799 74.2135 76.1478 74.7979 76.1478H87.9474C88.5318 76.1478 89.0923 76.3799 89.5056 76.7932C89.9188 77.2064 90.151 77.767 90.151 78.3514V101.089C90.151 101.673 89.9188 102.233 89.5056 102.647C89.0923 103.06 88.5318 103.292 87.9474 103.292H74.7979C74.4897 103.293 74.1849 103.228 73.9045 103.1C73.6924 103.226 73.4501 103.293 73.2033 103.292H71.2C71.5015 103.781 71.8992 104.203 72.3689 104.533C72.8387 104.863 73.3707 105.093 73.9325 105.211C74.2107 105.268 74.494 105.296 74.7779 105.295H87.9273C89.0427 105.294 90.1122 104.851 90.9009 104.062C91.6896 103.273 92.1332 102.204 92.1342 101.089V78.3514C92.1332 77.2395 91.6924 76.1732 90.908 75.385C90.1236 74.5969 89.0593 74.1509 87.9474 74.1445Z" fill="#00388C"/>
<path d="M81.3727 84.8379C79.5865 84.8412 77.8469 85.4079 76.4017 86.4575C74.9565 87.5071 73.8792 88.9861 73.3235 90.6836C73.1076 91.3322 72.973 92.0051 72.9229 92.6868H73.1953C73.5672 92.6868 73.9239 92.8345 74.1869 93.0975C74.4499 93.3604 74.5976 93.7172 74.5976 94.0891V98.3801C75.0239 98.9532 75.5236 99.4677 76.084 99.9105C76.2483 100.047 76.4246 100.175 76.6009 100.311C78.0018 101.276 79.6637 101.79 81.3646 101.786C82.4916 101.81 83.6122 101.609 84.6605 101.195C85.7088 100.781 86.6639 100.161 87.4696 99.3727C88.2753 98.5844 88.9154 97.643 89.3525 96.604C89.7895 95.5649 90.0146 94.4491 90.0146 93.3219C90.0146 92.1946 89.7895 91.0786 89.3525 90.0395C88.9154 89.0005 88.2753 88.0591 87.4696 87.2708C86.6639 86.4824 85.7088 85.863 84.6605 85.4487C83.6122 85.0343 82.4916 84.8335 81.3646 84.858L81.3727 84.8379ZM81.3727 99.7623C80.4762 99.761 79.5898 99.5735 78.7697 99.2114C77.9496 98.8492 77.2137 98.3205 76.6089 97.6588C76.4212 97.458 76.2485 97.2437 76.092 97.0177C75.2602 95.8343 74.8497 94.406 74.9264 92.9615C75.003 91.517 75.5624 90.1401 76.5148 89.0514C77.4672 87.9627 78.7575 87.2252 80.179 86.9572C81.6004 86.6891 83.0707 86.9059 84.3543 87.573C85.6378 88.2401 86.6602 89.3187 87.2577 90.636C87.8552 91.9534 87.9931 93.4333 87.6494 94.8384C87.3057 96.2435 86.5003 97.4924 85.3622 98.3852C84.2241 99.278 82.8192 99.763 81.3727 99.7623Z" fill="#00A450"/>
<path d="M90.6959 80.2588H72.0134V82.2621H90.6959V80.2588Z" fill="#00388C"/>
<path d="M76.0921 92.2821C75.8623 91.9152 75.5645 91.5955 75.2146 91.3405C74.6661 90.9336 74.0062 90.7045 73.3235 90.6836H55.0057C54.1028 90.6847 53.2372 91.0437 52.5987 91.6821C51.9603 92.3205 51.6012 93.1863 51.6001 94.0892V101.894C51.6022 102.796 51.9617 103.661 52.5999 104.3C53.2381 104.938 54.1031 105.297 55.0057 105.299H73.2034C73.4542 105.3 73.7042 105.272 73.9486 105.215C74.462 105.099 74.9416 104.864 75.3496 104.531C75.7576 104.198 76.083 103.776 76.3004 103.296C76.4293 103.018 76.5183 102.722 76.5648 102.419C76.5924 102.245 76.6058 102.07 76.6049 101.894V94.0892C76.6085 93.4504 76.4306 92.8237 76.0921 92.2821ZM55.0057 103.292C54.6337 103.292 54.2771 103.144 54.0141 102.881C53.7511 102.618 53.6034 102.262 53.6034 101.89V94.085C53.6034 93.7131 53.7511 93.3566 54.0141 93.0936C54.2771 92.8306 54.6337 92.6828 55.0057 92.6828H73.2034C73.5753 92.6828 73.932 92.8306 74.1949 93.0936C74.4579 93.3566 74.6056 93.7131 74.6056 94.085V101.89C74.6047 102.134 74.5394 102.374 74.4163 102.585C74.2932 102.796 74.1167 102.971 73.9045 103.092C73.6924 103.218 73.4501 103.284 73.2034 103.284L55.0057 103.292ZM76.0921 100.287V99.9067C75.5317 99.4638 75.0319 98.9491 74.6056 98.376V101.89C74.6047 102.134 74.5394 102.374 74.4163 102.585C74.2932 102.796 74.1167 102.971 73.9045 103.092C74.185 103.219 74.4898 103.285 74.798 103.284H76.3044C76.4333 103.005 76.5223 102.71 76.5689 102.407C76.2556 101.744 76.0928 101.02 76.0921 100.287Z" fill="#00388C"/>
<path d="M66.6686 102.055H57.6018C57.0177 102.054 56.4578 101.821 56.0448 101.408C55.6318 100.995 55.3993 100.435 55.3982 99.851V96.0327C55.3993 95.4486 55.6318 94.8889 56.0448 94.4759C56.4578 94.0628 57.0177 93.8302 57.6018 93.8291H66.6686C67.2527 93.8302 67.8126 94.0628 68.2256 94.4759C68.6386 94.8889 68.8711 95.4486 68.8722 96.0327V99.851C68.8711 100.435 68.6386 100.995 68.2256 101.408C67.8126 101.821 67.2527 102.054 66.6686 102.055ZM57.6018 95.8324C57.549 95.8334 57.4986 95.8549 57.4613 95.8922C57.4239 95.9296 57.4025 95.9799 57.4015 96.0327V99.851C57.4025 99.9038 57.4239 99.9542 57.4613 99.9915C57.4986 100.029 57.549 100.05 57.6018 100.051H66.6686C66.7217 100.051 66.7727 100.03 66.8103 99.9927C66.8478 99.9551 66.8689 99.9042 66.8689 99.851V96.0327C66.8689 95.9796 66.8478 95.9286 66.8103 95.8911C66.7727 95.8535 66.7217 95.8324 66.6686 95.8324H57.6018Z" fill="#00388C"/>
<path d="M71.8931 96.797C72.6167 96.797 73.2033 96.2105 73.2033 95.4869C73.2033 94.7633 72.6167 94.1768 71.8931 94.1768C71.1696 94.1768 70.583 94.7633 70.583 95.4869C70.583 96.2105 71.1696 96.797 71.8931 96.797Z" fill="#00A450"/>
<path d="M71.8931 101.802C72.6167 101.802 73.2033 101.215 73.2033 100.492C73.2033 99.7682 72.6167 99.1816 71.8931 99.1816C71.1696 99.1816 70.583 99.7682 70.583 100.492C70.583 101.215 71.1696 101.802 71.8931 101.802Z" fill="#00A450"/>
<defs>
<filter id="filter0_d_199_2045" x="0" y="0" width="163" height="163" filterUnits="userSpaceOnUse" color-interpolation-filters="sRGB">
<feFlood flood-opacity="0" result="BackgroundImageFix"/>
<feColorMatrix in="SourceAlpha" type="matrix" values="0 0 0 0 0 0 0 0 0 0 0 0 0 0 0 0 0 0 127 0" result="hardAlpha"/>
<feOffset dy="5"/>
<feGaussianBlur stdDeviation="6.5"/>
<feComposite in2="hardAlpha" operator="out"/>
<feColorMatrix type="matrix" values="0 0 0 0 0 0 0 0 0 0 0 0 0 0 0 0 0 0 0.1 0"/>
<feBlend mode="normal" in2="BackgroundImageFix" result="effect1_dropShadow_199_2045"/>
<feBlend mode="normal" in="SourceGraphic" in2="effect1_dropShadow_199_2045" result="shape"/>
</filter>
</defs>
</svg>
