<svg width="156" height="185" viewBox="0 0 156 185" fill="none" xmlns="http://www.w3.org/2000/svg">
<path d="M49.36 171.704H41.776V179H39.064V162.248H41.776V169.304H49.36V162.248H52.072V179H49.36V171.704ZM60.9008 179.288C60.0368 179.288 59.2448 179.136 58.5248 178.832C57.8208 178.528 57.2208 178.096 56.7248 177.536C56.2288 176.96 55.8448 176.272 55.5728 175.472C55.3008 174.656 55.1648 173.752 55.1648 172.76C55.1648 171.768 55.3008 170.872 55.5728 170.072C55.8448 169.256 56.2288 168.568 56.7248 168.008C57.2208 167.432 57.8208 166.992 58.5248 166.688C59.2448 166.384 60.0368 166.232 60.9008 166.232C61.7648 166.232 62.5488 166.384 63.2528 166.688C63.9728 166.992 64.5808 167.432 65.0768 168.008C65.5728 168.568 65.9568 169.256 66.2288 170.072C66.5008 170.872 66.6368 171.768 66.6368 172.76C66.6368 173.752 66.5008 174.656 66.2288 175.472C65.9568 176.272 65.5728 176.96 65.0768 177.536C64.5808 178.096 63.9728 178.528 63.2528 178.832C62.5488 179.136 61.7648 179.288 60.9008 179.288ZM60.9008 177.128C61.7968 177.128 62.5168 176.856 63.0608 176.312C63.6048 175.752 63.8768 174.92 63.8768 173.816V171.704C63.8768 170.6 63.6048 169.776 63.0608 169.232C62.5168 168.672 61.7968 168.392 60.9008 168.392C60.0048 168.392 59.2848 168.672 58.7408 169.232C58.1968 169.776 57.9248 170.6 57.9248 171.704V173.816C57.9248 174.92 58.1968 175.752 58.7408 176.312C59.2848 176.856 60.0048 177.128 60.9008 177.128ZM72.9374 179C72.0254 179 71.3374 178.768 70.8734 178.304C70.4094 177.824 70.1774 177.152 70.1774 176.288V168.656H68.2334V166.52H69.2894C69.7214 166.52 70.0174 166.424 70.1774 166.232C70.3534 166.04 70.4414 165.728 70.4414 165.296V163.112H72.7934V166.52H75.4094V168.656H72.7934V176.864H75.2174V179H72.9374ZM83.0493 179.288C82.1533 179.288 81.3533 179.136 80.6493 178.832C79.9453 178.528 79.3453 178.096 78.8493 177.536C78.3533 176.96 77.9693 176.272 77.6973 175.472C77.4413 174.656 77.3133 173.752 77.3133 172.76C77.3133 171.768 77.4413 170.872 77.6973 170.072C77.9693 169.256 78.3533 168.568 78.8493 168.008C79.3453 167.432 79.9453 166.992 80.6493 166.688C81.3533 166.384 82.1533 166.232 83.0493 166.232C83.9613 166.232 84.7613 166.392 85.4493 166.712C86.1533 167.032 86.7373 167.48 87.2013 168.056C87.6653 168.616 88.0093 169.272 88.2333 170.024C88.4733 170.776 88.5933 171.584 88.5933 172.448V173.432H80.0253V173.84C80.0253 174.8 80.3053 175.592 80.8653 176.216C81.4413 176.824 82.2573 177.128 83.3133 177.128C84.0813 177.128 84.7293 176.96 85.2573 176.624C85.7853 176.288 86.2333 175.832 86.6013 175.256L88.1373 176.768C87.6733 177.536 87.0013 178.152 86.1213 178.616C85.2413 179.064 84.2173 179.288 83.0493 179.288ZM83.0493 168.272C82.6013 168.272 82.1853 168.352 81.8013 168.512C81.4333 168.672 81.1133 168.896 80.8413 169.184C80.5853 169.472 80.3853 169.816 80.2413 170.216C80.0973 170.616 80.0253 171.056 80.0253 171.536V171.704H85.8333V171.464C85.8333 170.504 85.5853 169.736 85.0893 169.16C84.5933 168.568 83.9133 168.272 83.0493 168.272ZM94.1532 179C93.2572 179 92.5852 178.776 92.1372 178.328C91.7052 177.864 91.4892 177.224 91.4892 176.408V161.24H94.1052V176.864H95.8332V179H94.1532ZM102.293 179.288C101.109 179.288 100.117 179.08 99.3169 178.664C98.5169 178.248 97.8209 177.672 97.2289 176.936L98.9089 175.4C99.3729 175.96 99.8849 176.4 100.445 176.72C101.021 177.024 101.685 177.176 102.437 177.176C103.205 177.176 103.773 177.032 104.141 176.744C104.525 176.44 104.717 176.024 104.717 175.496C104.717 175.096 104.581 174.76 104.309 174.488C104.053 174.2 103.597 174.016 102.941 173.936L101.789 173.792C100.509 173.632 99.5009 173.264 98.7649 172.688C98.0449 172.096 97.6849 171.224 97.6849 170.072C97.6849 169.464 97.7969 168.928 98.0209 168.464C98.2449 167.984 98.5569 167.584 98.9569 167.264C99.3729 166.928 99.8609 166.672 100.421 166.496C100.997 166.32 101.629 166.232 102.317 166.232C103.437 166.232 104.349 166.408 105.053 166.76C105.773 167.112 106.413 167.6 106.973 168.224L105.365 169.76C105.045 169.376 104.621 169.048 104.093 168.776C103.581 168.488 102.989 168.344 102.317 168.344C101.597 168.344 101.061 168.488 100.709 168.776C100.373 169.064 100.205 169.44 100.205 169.904C100.205 170.384 100.357 170.744 100.661 170.984C100.965 171.224 101.453 171.4 102.125 171.512L103.277 171.656C104.653 171.864 105.653 172.272 106.277 172.88C106.917 173.472 107.237 174.272 107.237 175.28C107.237 175.888 107.117 176.44 106.877 176.936C106.653 177.416 106.325 177.832 105.893 178.184C105.461 178.536 104.941 178.808 104.333 179C103.725 179.192 103.045 179.288 102.293 179.288Z" fill="white"/>
<g filter="url(#filter0_d_1345_12454)">
<circle cx="72" cy="74" r="64" fill="white"/>
<circle cx="72" cy="74" r="63.5" stroke="url(#paint0_linear_1345_12454)"/>
</g>
<g clip-path="url(#clip0_1345_12454)">
<path d="M90.7828 103.659H54.067C53.8503 103.659 53.6425 103.574 53.4893 103.422C53.3361 103.27 53.25 103.064 53.25 102.85V59.3769C53.2509 58.733 53.5094 58.1158 53.9689 57.6605C54.4283 57.2052 55.0512 56.9491 55.701 56.9482H89.1488C89.7986 56.9491 90.4214 57.2052 90.8809 57.6605C91.3404 58.1158 91.5989 58.733 91.5998 59.3769V102.85C91.5998 103.064 91.5136 103.27 91.3604 103.422C91.2072 103.574 90.9994 103.659 90.7828 103.659ZM54.884 102.04H89.9658V59.3769C89.9649 59.1624 89.8785 58.957 89.7255 58.8054C89.5724 58.6537 89.3652 58.5682 89.1488 58.5673H55.701C55.4846 58.5682 55.2773 58.6537 55.1242 58.8054C54.9712 58.957 54.8848 59.1624 54.884 59.3769V102.04Z" fill="#00388C"/>
<path d="M90.7757 103.658H82.4391C82.3317 103.659 82.2252 103.638 82.1259 103.598C82.0266 103.557 81.9363 103.498 81.8604 103.422C81.7844 103.347 81.7243 103.258 81.6834 103.159C81.6424 103.061 81.6216 102.955 81.6221 102.849V88.7305C81.6216 88.624 81.6424 88.5186 81.6834 88.4202C81.7243 88.3217 81.7844 88.2323 81.8604 88.157C81.9363 88.0818 82.0266 88.0222 82.1259 87.9817C82.2252 87.9411 82.3317 87.9205 82.4391 87.9209H90.7757C90.9924 87.9209 91.2001 88.0062 91.3533 88.158C91.5065 88.3098 91.5927 88.5157 91.5927 88.7305V102.859C91.5901 103.072 91.5028 103.275 91.3499 103.425C91.197 103.575 90.9907 103.658 90.7757 103.658ZM83.2593 102.039H89.962V89.5303H83.2593V102.039Z" fill="#00388C"/>
<path d="M62.3304 103.658H53.9938C53.7771 103.658 53.5692 103.573 53.416 103.421C53.2628 103.27 53.1768 103.064 53.1768 102.849V88.7304C53.1768 88.5157 53.2628 88.3098 53.416 88.158C53.5692 88.0062 53.7771 87.9209 53.9938 87.9209H62.3304C62.5471 87.9209 62.7549 88.0062 62.9081 88.158C63.0613 88.3098 63.1474 88.5157 63.1474 88.7304V102.859C63.1448 103.072 63.0575 103.275 62.9046 103.425C62.7516 103.575 62.5454 103.658 62.3304 103.658ZM54.814 102.039H61.5166V89.5303H54.814V102.039Z" fill="#00388C"/>
<path d="M72.2682 103.659C72.0515 103.659 71.8437 103.574 71.6904 103.422C71.5372 103.27 71.4512 103.064 71.4512 102.85V92.5263C71.4512 92.3116 71.5372 92.1057 71.6904 91.9539C71.8437 91.8021 72.0515 91.7168 72.2682 91.7168C72.4848 91.7168 72.6927 91.8021 72.8459 91.9539C72.9991 92.1057 73.0852 92.3116 73.0852 92.5263V102.85C73.0852 103.064 72.9991 103.27 72.8459 103.422C72.6927 103.574 72.4848 103.659 72.2682 103.659Z" fill="#00388C"/>
<path d="M66.8009 63.7383H62.693C62.5125 63.7383 62.3662 63.8833 62.3662 64.0621V67.5917C62.3662 67.7706 62.5125 67.9155 62.693 67.9155H66.8009C66.9813 67.9155 67.1277 67.7706 67.1277 67.5917V64.0621C67.1277 63.8833 66.9813 63.7383 66.8009 63.7383Z" fill="#00388C"/>
<path d="M66.8009 74.8301H62.693C62.5125 74.8301 62.3662 74.9751 62.3662 75.1539V78.6835C62.3662 78.8623 62.5125 79.0073 62.693 79.0073H66.8009C66.9813 79.0073 67.1277 78.8623 67.1277 78.6835V75.1539C67.1277 74.9751 66.9813 74.8301 66.8009 74.8301Z" fill="#00388C"/>
<path d="M81.4044 63.7393H77.2965C77.116 63.7393 76.9697 63.8842 76.9697 64.0631V67.5927C76.9697 67.7715 77.116 67.9165 77.2965 67.9165H81.4044C81.5849 67.9165 81.7312 67.7715 81.7312 67.5927V64.0631C81.7312 63.8842 81.5849 63.7393 81.4044 63.7393Z" fill="#00388C"/>
<path d="M81.4044 74.8301H77.2965C77.116 74.8301 76.9697 74.9751 76.9697 75.1539V78.6835C76.9697 78.8623 77.116 79.0073 77.2965 79.0073H81.4044C81.5849 79.0073 81.7312 78.8623 81.7312 78.6835V75.1539C81.7312 74.9751 81.5849 74.8301 81.4044 74.8301Z" fill="#00388C"/>
<path d="M45.732 103.464C45.5154 103.464 45.3075 103.379 45.1543 103.227C45.0011 103.076 44.915 102.87 44.915 102.655V93.6172C44.915 93.4025 45.0011 93.1966 45.1543 93.0447C45.3075 92.8929 45.5154 92.8076 45.732 92.8076C45.9487 92.8076 46.1565 92.8929 46.3098 93.0447C46.463 93.1966 46.549 93.4025 46.549 93.6172V102.655C46.549 102.87 46.463 103.076 46.3098 103.227C46.1565 103.379 45.9487 103.464 45.732 103.464Z" fill="#32996A"/>
<path d="M98.2506 103.464C98.0339 103.464 97.8261 103.379 97.6729 103.227C97.5197 103.076 97.4336 102.87 97.4336 102.655V93.6172C97.4336 93.4025 97.5197 93.1966 97.6729 93.0447C97.8261 92.8929 98.0339 92.8076 98.2506 92.8076C98.4673 92.8076 98.6751 92.8929 98.8283 93.0447C98.9815 93.1966 99.0676 93.4025 99.0676 93.6172V102.655C99.0676 102.87 98.9815 103.076 98.8283 103.227C98.6751 103.379 98.4673 103.464 98.2506 103.464Z" fill="#32996A"/>
<path d="M73.6913 46.9905L76.3809 47.3144C76.4262 47.3201 76.4689 47.3382 76.5044 47.3667C76.5398 47.3953 76.5666 47.433 76.5815 47.4758C76.5965 47.5186 76.5991 47.5646 76.589 47.6087C76.579 47.6529 76.5567 47.6934 76.5247 47.7256L74.6194 49.6361C74.5912 49.6642 74.5702 49.6985 74.5583 49.7363C74.5463 49.7741 74.5438 49.8141 74.5508 49.8531L75.0606 52.4922C75.0694 52.537 75.0653 52.5833 75.0488 52.6259C75.0323 52.6685 75.0039 52.7056 74.9671 52.733C74.9303 52.7604 74.8864 52.7769 74.8405 52.7807C74.7946 52.7845 74.7486 52.7754 74.7076 52.7545L72.2861 51.5467C72.2508 51.5283 72.2115 51.5186 72.1717 51.5186C72.1318 51.5186 72.0926 51.5283 72.0574 51.5467L69.6815 52.842C69.6414 52.8644 69.5957 52.8752 69.5496 52.8731C69.5036 52.8711 69.4591 52.8561 69.4212 52.8301C69.3833 52.8041 69.3535 52.768 69.3354 52.7259C69.3173 52.6839 69.3115 52.6377 69.3187 52.5926L69.7305 49.9373C69.7359 49.8983 69.7319 49.8586 69.7189 49.8215C69.7058 49.7844 69.684 49.7508 69.6554 49.7236L67.6946 47.8843C67.6609 47.8533 67.6368 47.8137 67.6248 47.7698C67.6128 47.7259 67.6134 47.6795 67.6267 47.636C67.64 47.5925 67.6653 47.5535 67.6998 47.5235C67.7344 47.4936 67.7768 47.4738 67.8221 47.4665L70.4985 47.0326C70.538 47.0267 70.5753 47.0112 70.6073 46.9875C70.6392 46.9637 70.6647 46.9325 70.6815 46.8967L71.8383 44.4648C71.8588 44.4246 71.8901 44.3908 71.9287 44.3671C71.9674 44.3435 72.0119 44.3311 72.0574 44.3311C72.1028 44.3311 72.1473 44.3435 72.186 44.3671C72.2246 44.3908 72.2559 44.4246 72.2763 44.4648L73.5214 46.8546C73.5372 46.8887 73.5608 46.9188 73.5903 46.9424C73.6197 46.966 73.6543 46.9824 73.6913 46.9905Z" fill="#32996A"/>
<path d="M83.9833 50.4719L86.078 50.7342C86.1083 50.7381 86.137 50.7502 86.1607 50.7694C86.1843 50.7885 86.2022 50.8139 86.212 50.8425C86.2219 50.8712 86.2234 50.9021 86.2165 50.9316C86.2096 50.9611 86.1944 50.9881 86.1728 51.0095L84.6597 52.5282C84.6408 52.5464 84.6268 52.5689 84.6188 52.5937C84.6108 52.6186 84.6092 52.645 84.614 52.6707L85.0192 54.769C85.0251 54.7989 85.0223 54.8298 85.0113 54.8581C85.0003 54.8865 84.9814 54.9112 84.9569 54.9295C84.9323 54.9477 84.903 54.9588 84.8725 54.9613C84.8419 54.9639 84.8112 54.9578 84.7839 54.9439L82.8983 54.0048C82.863 53.9864 82.8237 53.9767 82.7839 53.9767C82.744 53.9767 82.7048 53.9864 82.6695 54.0048L80.8198 55.0119C80.7931 55.0268 80.7628 55.034 80.7322 55.0326C80.7016 55.0312 80.672 55.0214 80.6468 55.0042C80.6216 54.987 80.6018 54.9631 80.5896 54.9352C80.5775 54.9074 80.5734 54.8767 80.578 54.8467L80.9048 52.7775C80.9107 52.7385 80.907 52.6987 80.8939 52.6615C80.8808 52.6242 80.8587 52.5907 80.8296 52.5638L79.4114 51.2426C79.3787 51.2115 79.3553 51.1721 79.3439 51.1287C79.3324 51.0852 79.3334 51.0395 79.3466 50.9966C79.3598 50.9537 79.3847 50.9152 79.4186 50.8854C79.4526 50.8557 79.4942 50.8359 79.5388 50.8281L81.4604 50.5043C81.4998 50.4981 81.537 50.4825 81.5689 50.4588C81.6008 50.4351 81.6263 50.404 81.6433 50.3683L82.4701 48.6262C82.4911 48.5861 82.5228 48.5525 82.5617 48.529C82.6006 48.5056 82.6452 48.4932 82.6907 48.4932C82.7363 48.4932 82.7809 48.5056 82.8198 48.529C82.8587 48.5525 82.8904 48.5861 82.9114 48.6262L83.8035 50.3392C83.8206 50.3739 83.8459 50.404 83.8771 50.4271C83.9084 50.4502 83.9448 50.4656 83.9833 50.4719Z" fill="#32996A"/>
<path d="M63.0678 50.4719L64.9991 50.7148C65.0444 50.7205 65.0873 50.7386 65.1227 50.7672C65.1582 50.7957 65.1848 50.8335 65.1998 50.8762C65.2147 50.919 65.2173 50.965 65.2073 51.0092C65.1972 51.0533 65.1749 51.0938 65.1429 51.126L63.7736 52.499C63.7458 52.5266 63.7253 52.5605 63.7139 52.5978C63.7025 52.6351 63.7006 52.6746 63.7083 52.7128L64.1037 54.769C64.1096 54.7989 64.1068 54.8298 64.0958 54.8581C64.0848 54.8865 64.066 54.9112 64.0414 54.9295C64.0168 54.9477 63.9876 54.9588 63.957 54.9613C63.9264 54.9639 63.8957 54.9578 63.8684 54.9439L61.9828 54.0048C61.9475 53.9864 61.9082 53.9767 61.8684 53.9767C61.8285 53.9767 61.7893 53.9864 61.754 54.0048L59.9043 55.0119C59.8776 55.0268 59.8473 55.034 59.8167 55.0326C59.7861 55.0312 59.7566 55.0214 59.7313 55.0042C59.7061 54.987 59.6863 54.9631 59.6741 54.9352C59.662 54.9074 59.6579 54.8767 59.6625 54.8467L59.9893 52.7775C59.9952 52.7385 59.9915 52.6987 59.9784 52.6615C59.9653 52.6242 59.9432 52.5907 59.9141 52.5638L58.4959 51.2426C58.4631 51.2113 58.4398 51.1716 58.4285 51.128C58.4173 51.0843 58.4185 51.0384 58.432 50.9954C58.4456 50.9524 58.471 50.9139 58.5054 50.8844C58.5397 50.8549 58.5817 50.8354 58.6266 50.8281L60.5449 50.5043C60.5843 50.4981 60.6215 50.4825 60.6534 50.4588C60.6853 50.4351 60.7108 50.404 60.7279 50.3683L61.5547 48.6262C61.5756 48.5861 61.6073 48.5525 61.6462 48.529C61.6851 48.5056 61.7297 48.4932 61.7753 48.4932C61.8208 48.4932 61.8655 48.5056 61.9044 48.529C61.9433 48.5525 61.9749 48.5861 61.9959 48.6262L62.888 50.3392C62.9052 50.3739 62.9304 50.404 62.9617 50.4271C62.9929 50.4502 63.0293 50.4656 63.0678 50.4719Z" fill="#32996A"/>
<path d="M45.7373 94.4696C47.488 94.4696 48.9073 93.0633 48.9073 91.3285C48.9073 89.5938 47.488 88.1875 45.7373 88.1875C43.9866 88.1875 42.5674 89.5938 42.5674 91.3285C42.5674 93.0633 43.9866 94.4696 45.7373 94.4696Z" fill="#32996A"/>
<path d="M98.292 94.4696C100.043 94.4696 101.462 93.0633 101.462 91.3285C101.462 89.5938 100.043 88.1875 98.292 88.1875C96.5413 88.1875 95.1221 89.5938 95.1221 91.3285C95.1221 93.0633 96.5413 94.4696 98.292 94.4696Z" fill="#32996A"/>
<path d="M62.6282 89.5301C62.4865 89.5309 62.347 89.4948 62.2237 89.4255C62.1005 89.3562 61.9977 89.2561 61.9257 89.1351C61.8154 88.9503 61.7834 88.7297 61.8367 88.5216C61.89 88.3135 62.0241 88.1348 62.2099 88.0244L62.5629 87.8172C64.1969 86.8457 68.0139 84.5498 72.4093 84.5498C77.3864 84.5498 81.2884 87.0335 82.7558 87.9693L82.8668 88.0406C83.04 88.1601 83.1598 88.3414 83.201 88.5465C83.2423 88.7515 83.2019 88.9645 83.0883 89.1407C82.9747 89.3169 82.7966 89.4427 82.5915 89.4918C82.3863 89.5408 82.17 89.5093 81.9878 89.4038L81.8734 89.3326C80.5139 88.468 76.9061 86.1721 72.3963 86.1689C68.4551 86.1689 65.0401 88.2154 63.3963 89.1998L63.0302 89.42C62.9078 89.4899 62.7695 89.5278 62.6282 89.5301Z" fill="#00388C"/>
<path d="M100.842 103.659H43.1588C42.9421 103.659 42.7344 103.574 42.5812 103.422C42.4279 103.27 42.3418 103.064 42.3418 102.85C42.3418 102.635 42.4279 102.429 42.5812 102.277C42.7344 102.125 42.9421 102.04 43.1588 102.04H100.842C101.059 102.04 101.266 102.125 101.42 102.277C101.573 102.429 101.659 102.635 101.659 102.85C101.659 103.064 101.573 103.27 101.42 103.422C101.266 103.574 101.059 103.659 100.842 103.659Z" fill="#00388C"/>
</g>
<defs>
<filter id="filter0_d_1345_12454" x="0" y="0" width="156" height="156" filterUnits="userSpaceOnUse" color-interpolation-filters="sRGB">
<feFlood flood-opacity="0" result="BackgroundImageFix"/>
<feColorMatrix in="SourceAlpha" type="matrix" values="0 0 0 0 0 0 0 0 0 0 0 0 0 0 0 0 0 0 127 0" result="hardAlpha"/>
<feOffset dx="6" dy="4"/>
<feGaussianBlur stdDeviation="7"/>
<feComposite in2="hardAlpha" operator="out"/>
<feColorMatrix type="matrix" values="0 0 0 0 0.313872 0 0 0 0 0.420833 0 0 0 0 0.372026 0 0 0 0.15 0"/>
<feBlend mode="normal" in2="BackgroundImageFix" result="effect1_dropShadow_1345_12454"/>
<feBlend mode="normal" in="SourceGraphic" in2="effect1_dropShadow_1345_12454" result="shape"/>
</filter>
<linearGradient id="paint0_linear_1345_12454" x1="72" y1="10" x2="72" y2="138" gradientUnits="userSpaceOnUse">
<stop stop-color="#BDEBE0"/>
<stop offset="0.994792" stop-color="#BFE8FB"/>
</linearGradient>
<clipPath id="clip0_1345_12454">
<rect width="59.3171" height="59.3171" fill="white" transform="translate(42.3418 44.3418)"/>
</clipPath>
</defs>
</svg>
