<svg width="156" height="185" viewBox="0 0 156 185" fill="none" xmlns="http://www.w3.org/2000/svg">
<path d="M47.28 164.648V179H44.568V164.648H39.576V162.248H52.272V164.648H47.28ZM53.6454 179V166.52H56.2614V168.92H56.3814C56.5574 168.28 56.9254 167.72 57.4854 167.24C58.0454 166.76 58.8214 166.52 59.8134 166.52H60.5094V169.04H59.4774C58.4374 169.04 57.6374 169.208 57.0774 169.544C56.5334 169.88 56.2614 170.376 56.2614 171.032V179H53.6454ZM71.7894 179C71.1014 179 70.5734 178.808 70.2054 178.424C69.8374 178.024 69.6134 177.52 69.5334 176.912H69.4134C69.1734 177.696 68.7334 178.288 68.0934 178.688C67.4534 179.088 66.6774 179.288 65.7654 179.288C64.4694 179.288 63.4694 178.952 62.7654 178.28C62.0774 177.608 61.7334 176.704 61.7334 175.568C61.7334 174.32 62.1814 173.384 63.0774 172.76C63.9894 172.136 65.3174 171.824 67.0614 171.824H69.3174V170.768C69.3174 170 69.1094 169.408 68.6934 168.992C68.2774 168.576 67.6294 168.368 66.7494 168.368C66.0134 168.368 65.4134 168.528 64.9494 168.848C64.4854 169.168 64.0934 169.576 63.7734 170.072L62.2134 168.656C62.6294 167.952 63.2134 167.376 63.9654 166.928C64.7174 166.464 65.7014 166.232 66.9174 166.232C68.5334 166.232 69.7734 166.608 70.6374 167.36C71.5014 168.112 71.9334 169.192 71.9334 170.6V176.864H73.2534V179H71.7894ZM66.5094 177.296C67.3254 177.296 67.9974 177.12 68.5254 176.768C69.0534 176.4 69.3174 175.912 69.3174 175.304V173.504H67.1094C65.3014 173.504 64.3974 174.064 64.3974 175.184V175.616C64.3974 176.176 64.5814 176.6 64.9494 176.888C65.3334 177.16 65.8534 177.296 66.5094 177.296ZM77.1373 164.288C76.5933 164.288 76.1933 164.16 75.9373 163.904C75.6973 163.648 75.5773 163.32 75.5773 162.92V162.512C75.5773 162.112 75.6973 161.784 75.9373 161.528C76.1933 161.272 76.5933 161.144 77.1373 161.144C77.6813 161.144 78.0733 161.272 78.3133 161.528C78.5533 161.784 78.6733 162.112 78.6733 162.512V162.92C78.6733 163.32 78.5533 163.648 78.3133 163.904C78.0733 164.16 77.6813 164.288 77.1373 164.288ZM75.8173 166.52H78.4333V179H75.8173V166.52ZM82.1689 179V166.52H84.7849V168.584H84.9049C85.1769 167.912 85.5849 167.352 86.1289 166.904C86.6889 166.456 87.4489 166.232 88.4089 166.232C89.6889 166.232 90.6809 166.656 91.3849 167.504C92.1049 168.336 92.4649 169.528 92.4649 171.08V179H89.8489V171.416C89.8489 169.464 89.0649 168.488 87.4969 168.488C87.1609 168.488 86.8249 168.536 86.4889 168.632C86.1689 168.712 85.8809 168.84 85.6249 169.016C85.3689 169.192 85.1609 169.416 85.0009 169.688C84.8569 169.96 84.7849 170.28 84.7849 170.648V179H82.1689ZM100.051 179.288C98.8668 179.288 97.8748 179.08 97.0748 178.664C96.2748 178.248 95.5788 177.672 94.9868 176.936L96.6668 175.4C97.1308 175.96 97.6428 176.4 98.2028 176.72C98.7788 177.024 99.4428 177.176 100.195 177.176C100.963 177.176 101.531 177.032 101.899 176.744C102.283 176.44 102.475 176.024 102.475 175.496C102.475 175.096 102.339 174.76 102.067 174.488C101.811 174.2 101.355 174.016 100.699 173.936L99.5468 173.792C98.2668 173.632 97.2588 173.264 96.5228 172.688C95.8028 172.096 95.4428 171.224 95.4428 170.072C95.4428 169.464 95.5548 168.928 95.7788 168.464C96.0028 167.984 96.3148 167.584 96.7148 167.264C97.1308 166.928 97.6188 166.672 98.1788 166.496C98.7548 166.32 99.3868 166.232 100.075 166.232C101.195 166.232 102.107 166.408 102.811 166.76C103.531 167.112 104.171 167.6 104.731 168.224L103.123 169.76C102.803 169.376 102.379 169.048 101.851 168.776C101.339 168.488 100.747 168.344 100.075 168.344C99.3548 168.344 98.8188 168.488 98.4668 168.776C98.1308 169.064 97.9628 169.44 97.9628 169.904C97.9628 170.384 98.1148 170.744 98.4188 170.984C98.7228 171.224 99.2108 171.4 99.8828 171.512L101.035 171.656C102.411 171.864 103.411 172.272 104.035 172.88C104.675 173.472 104.995 174.272 104.995 175.28C104.995 175.888 104.875 176.44 104.635 176.936C104.411 177.416 104.083 177.832 103.651 178.184C103.219 178.536 102.699 178.808 102.091 179C101.483 179.192 100.803 179.288 100.051 179.288Z" fill="white"/>
<g filter="url(#filter0_d_1345_12493)">
<circle cx="72" cy="74" r="64" fill="white"/>
<circle cx="72" cy="74" r="63.5" stroke="url(#paint0_linear_1345_12493)"/>
</g>
<g clip-path="url(#clip0_1345_12493)">
<path d="M90.2745 62.1389H54.234C53.8774 62.1402 53.5245 62.0661 53.1985 61.9213C52.8726 61.7765 52.581 61.5645 52.3429 61.299C52.1243 61.0537 51.9604 60.7648 51.862 60.4513C51.7637 60.1379 51.7332 59.8071 51.7725 59.4809L52.3775 54.1997C52.8995 51.0475 55.1916 48.9287 58.0783 48.9287H86.4267C89.2477 48.9287 91.4291 50.9334 92.124 54.1616V54.2446L92.7221 59.4878C92.76 59.8129 92.7288 60.1423 92.6305 60.4544C92.5322 60.7665 92.369 61.0543 92.1517 61.299C91.9151 61.5627 91.6258 61.7738 91.3024 61.9185C90.979 62.0632 90.6288 62.1383 90.2745 62.1389ZM54.0853 54.4623L53.4873 59.6849C53.4767 59.7693 53.4846 59.855 53.5102 59.9361C53.5359 60.0173 53.5787 60.0919 53.6359 60.1549C53.7121 60.2371 53.8047 60.3024 53.9077 60.3465C54.0108 60.3905 54.1219 60.4124 54.234 60.4107H90.2745C90.3864 60.4131 90.4976 60.3911 90.6002 60.3463C90.7029 60.3016 90.7946 60.2351 90.8691 60.1515C90.9266 60.0907 90.9701 60.018 90.9964 59.9386C91.0227 59.8591 91.0311 59.7748 91.0212 59.6918L90.4231 54.4831C90.2122 53.5326 89.3341 50.6569 86.4267 50.6569H58.0783C55.6065 50.6569 54.3861 52.703 54.0853 54.4623Z" fill="#00388C"/>
<path d="M93.6133 94.7539H49.9326V96.4821H93.6133V94.7539Z" fill="#00388C"/>
<path d="M100.402 101.459H43.9023V103.187H100.402V101.459Z" fill="#00388C"/>
<path d="M98.5668 76.8672H45.6279V78.5954H98.5668V76.8672Z" fill="#00388C"/>
<path d="M56.6293 87.5261C58.3473 87.5261 59.74 86.1334 59.74 84.4154C59.74 82.6974 58.3473 81.3047 56.6293 81.3047C54.9113 81.3047 53.5186 82.6974 53.5186 84.4154C53.5186 86.1334 54.9113 87.5261 56.6293 87.5261Z" fill="#00388C"/>
<path d="M87.8549 87.5261C89.5729 87.5261 90.9656 86.1334 90.9656 84.4154C90.9656 82.6974 89.5729 81.3047 87.8549 81.3047C86.1369 81.3047 84.7441 82.6974 84.7441 84.4154C84.7441 86.1334 86.1369 87.5261 87.8549 87.5261Z" fill="#00388C"/>
<path d="M68.5408 88.0097C68.3117 88.0097 68.0919 87.9187 67.9298 87.7567C67.7678 87.5946 67.6768 87.3748 67.6768 87.1456V81.7088C67.6768 81.4796 67.7678 81.2598 67.9298 81.0978C68.0919 80.9357 68.3117 80.8447 68.5408 80.8447C68.77 80.8447 68.9898 80.9357 69.1518 81.0978C69.3139 81.2598 69.4049 81.4796 69.4049 81.7088V87.1456C69.4049 87.3748 69.3139 87.5946 69.1518 87.7567C68.9898 87.9187 68.77 88.0097 68.5408 88.0097Z" fill="#00388C"/>
<path d="M76.0282 88.0097C75.799 88.0097 75.5792 87.9187 75.4172 87.7567C75.2551 87.5946 75.1641 87.3748 75.1641 87.1456V81.7088C75.1641 81.4796 75.2551 81.2598 75.4172 81.0978C75.5792 80.9357 75.799 80.8447 76.0282 80.8447C76.2573 80.8447 76.4771 80.9357 76.6392 81.0978C76.8012 81.2598 76.8922 81.4796 76.8922 81.7088V87.1456C76.8922 87.3748 76.8012 87.5946 76.6392 87.7567C76.4771 87.9187 76.2573 88.0097 76.0282 88.0097Z" fill="#00388C"/>
<path d="M79.0683 46.5718H64.8942C64.6072 46.5718 64.3929 46.3575 64.4482 46.1294L65.0359 43.6788C65.1284 43.4024 65.3098 43.1643 65.5518 43.0018C65.7938 42.8392 66.0829 42.7613 66.3738 42.7802H77.5852C77.8767 42.7611 78.1662 42.8389 78.4088 43.0014C78.6514 43.164 78.8334 43.4021 78.9266 43.6788L79.5143 46.1294C79.5696 46.3575 79.3553 46.5718 79.0683 46.5718Z" fill="#00388C"/>
<path d="M41.6429 105.219C41.4737 105.219 41.3082 105.169 41.1672 105.075C41.0261 104.982 40.9155 104.849 40.8493 104.693C40.783 104.538 40.7639 104.366 40.7944 104.199C40.8248 104.033 40.9035 103.879 41.0206 103.757L53.4663 90.7818C53.5448 90.6999 53.6387 90.6342 53.7426 90.5886C53.8466 90.543 53.9585 90.5182 54.0719 90.5158C54.1854 90.5134 54.2983 90.5334 54.404 90.5746C54.5098 90.6158 54.6064 90.6774 54.6884 90.7559C54.7703 90.8344 54.836 90.9283 54.8816 91.0322C54.9273 91.1361 54.952 91.248 54.9544 91.3615C54.9568 91.4749 54.9369 91.5877 54.8957 91.6935C54.8545 91.7992 54.7928 91.8958 54.7143 91.9777L42.2687 104.953C42.1877 105.037 42.0905 105.104 41.9829 105.15C41.8754 105.196 41.7598 105.219 41.6429 105.219Z" fill="#00388C"/>
<path d="M102.359 105.143C102.245 105.143 102.133 105.12 102.028 105.076C101.923 105.032 101.827 104.968 101.747 104.887L88.8453 91.9916C88.683 91.8294 88.5918 91.6093 88.5918 91.3798C88.5918 91.1504 88.683 90.9303 88.8453 90.7681C89.0075 90.6058 89.2277 90.5146 89.4572 90.5146C89.6867 90.5146 89.9068 90.6058 90.0691 90.7681L102.971 103.667C103.091 103.789 103.172 103.943 103.204 104.11C103.237 104.277 103.219 104.45 103.154 104.608C103.089 104.765 102.979 104.9 102.837 104.995C102.696 105.09 102.53 105.142 102.359 105.143Z" fill="#00388C"/>
<path d="M66.5098 67.8727H48.1387C47.9095 67.8727 47.6896 67.7817 47.5276 67.6196C47.3655 67.4576 47.2744 67.2378 47.2744 67.0086C47.2744 66.7795 47.3655 66.5597 47.5276 66.3976C47.6896 66.2356 47.9095 66.1445 48.1387 66.1445H66.5098C66.739 66.1445 66.9589 66.2356 67.121 66.3976C67.283 66.5597 67.3741 66.7795 67.3741 67.0086C67.3741 67.2378 67.283 67.4576 67.121 67.6196C66.9589 67.7817 66.739 67.8727 66.5098 67.8727Z" fill="#32996A"/>
<path d="M96.3204 67.8727H77.9492C77.72 67.8727 77.5002 67.7817 77.3381 67.6196C77.176 67.4576 77.085 67.2378 77.085 67.0086C77.085 66.7795 77.176 66.5597 77.3381 66.3976C77.5002 66.2356 77.72 66.1445 77.9492 66.1445H96.3204C96.5496 66.1445 96.7694 66.2356 96.9315 66.3976C97.0936 66.5597 97.1847 66.7795 97.1847 67.0086C97.1847 67.2378 97.0936 67.4576 96.9315 67.6196C96.7694 67.7817 96.5496 67.8727 96.3204 67.8727Z" fill="#32996A"/>
<path d="M72.2215 73.8387C72.1047 73.8386 71.9891 73.8149 71.8816 73.7692C71.7742 73.7235 71.677 73.6566 71.5959 73.5726L65.886 67.6173C65.8008 67.5368 65.7329 67.4398 65.6863 67.3323C65.6398 67.2247 65.6156 67.1088 65.6152 66.9916C65.6149 66.8744 65.6384 66.7584 65.6843 66.6506C65.7302 66.5427 65.7976 66.4454 65.8823 66.3644C65.967 66.2835 66.0674 66.2206 66.1772 66.1796C66.287 66.1386 66.4039 66.1204 66.521 66.126C66.6381 66.1317 66.7527 66.1611 66.8581 66.2125C66.9634 66.2638 67.0572 66.3361 67.1337 66.4248L72.8298 72.3836C72.9439 72.5052 73.0204 72.6571 73.05 72.8212C73.0797 72.9852 73.0612 73.1544 72.9969 73.3082C72.9326 73.462 72.8252 73.5939 72.6876 73.688C72.55 73.7822 72.3881 73.8345 72.2215 73.8387Z" fill="#32996A"/>
<path d="M72.2531 73.8392C72.0839 73.8389 71.9185 73.7889 71.7774 73.6954C71.6364 73.6019 71.5259 73.4691 71.4596 73.3134C71.3934 73.1577 71.3743 72.986 71.4047 72.8196C71.4352 72.6531 71.5138 72.4993 71.6309 72.3771L77.3235 66.4184C77.4817 66.2525 77.6992 66.1562 77.9284 66.1506C78.1575 66.1451 78.3794 66.2309 78.5454 66.389C78.7113 66.5471 78.8076 66.7647 78.8131 66.9938C78.8186 67.223 78.7329 67.4449 78.5747 67.6108L72.8787 73.573C72.7977 73.6572 72.7005 73.7242 72.593 73.7699C72.4855 73.8157 72.3699 73.8392 72.2531 73.8392Z" fill="#32996A"/>
<path d="M90.2444 92.2443H54.1002C50.6777 92.2443 49.6509 89.9631 48.5688 87.5471L45.4574 80.6344C44.7992 79.1789 44.5978 77.5579 44.8801 75.9856L49.3432 50.8268C49.6685 48.9855 50.6325 47.3177 52.0659 46.1166C53.4993 44.9156 55.3103 44.2581 57.1805 44.2598H87.1952C89.0751 44.2589 90.8946 44.9239 92.3306 46.1369C93.7667 47.3499 94.7264 49.0323 95.0394 50.8856L99.3055 76.0789C99.5616 77.5877 99.3768 79.1383 98.7731 80.5446L95.8242 87.4227C94.7698 89.9009 93.7637 92.2443 90.2444 92.2443ZM51.0476 51.1137L46.5844 76.2691C46.3655 77.5013 46.5233 78.7709 47.0373 79.912L50.1487 86.8247C51.2965 89.3755 51.8946 90.5023 54.1071 90.5023H90.2444C92.4224 90.5023 93.0689 89.4654 94.2443 86.728L97.1932 79.8498C97.6661 78.7496 97.8114 77.5362 97.6115 76.3555L93.3454 51.1621C93.1 49.7105 92.3477 48.393 91.2223 47.4437C90.0968 46.4945 88.6711 45.975 87.1987 45.9776H57.184C55.7183 45.976 54.2991 46.4918 53.1765 47.4339C52.0539 48.376 51.3 49.6841 51.0476 51.1275V51.1137Z" fill="#00388C"/>
</g>
<defs>
<filter id="filter0_d_1345_12493" x="0" y="0" width="156" height="156" filterUnits="userSpaceOnUse" color-interpolation-filters="sRGB">
<feFlood flood-opacity="0" result="BackgroundImageFix"/>
<feColorMatrix in="SourceAlpha" type="matrix" values="0 0 0 0 0 0 0 0 0 0 0 0 0 0 0 0 0 0 127 0" result="hardAlpha"/>
<feOffset dx="6" dy="4"/>
<feGaussianBlur stdDeviation="7"/>
<feComposite in2="hardAlpha" operator="out"/>
<feColorMatrix type="matrix" values="0 0 0 0 0.313872 0 0 0 0 0.420833 0 0 0 0 0.372026 0 0 0 0.15 0"/>
<feBlend mode="normal" in2="BackgroundImageFix" result="effect1_dropShadow_1345_12493"/>
<feBlend mode="normal" in="SourceGraphic" in2="effect1_dropShadow_1345_12493" result="shape"/>
</filter>
<linearGradient id="paint0_linear_1345_12493" x1="72" y1="10" x2="72" y2="138" gradientUnits="userSpaceOnUse">
<stop stop-color="#BDEBE0"/>
<stop offset="0.994792" stop-color="#BFE8FB"/>
</linearGradient>
<clipPath id="clip0_1345_12493">
<rect width="62.439" height="62.439" fill="white" transform="translate(40.7803 42.7803)"/>
</clipPath>
</defs>
</svg>
