<svg width="163" height="210" viewBox="0 0 163 210" fill="none" xmlns="http://www.w3.org/2000/svg">
<path d="M35.9733 204L34.4613 199.464H28.1973L26.7333 204H23.9733L29.6853 187.248H33.0933L38.8053 204H35.9733ZM31.3893 189.744H31.2693L28.8453 197.136H33.7893L31.3893 189.744ZM42.5279 189.288C41.9839 189.288 41.5839 189.16 41.3279 188.904C41.0879 188.648 40.9679 188.32 40.9679 187.92V187.512C40.9679 187.112 41.0879 186.784 41.3279 186.528C41.5839 186.272 41.9839 186.144 42.5279 186.144C43.0719 186.144 43.4639 186.272 43.7039 186.528C43.9439 186.784 44.0639 187.112 44.0639 187.512V187.92C44.0639 188.32 43.9439 188.648 43.7039 188.904C43.4639 189.16 43.0719 189.288 42.5279 189.288ZM41.2079 191.52H43.8239V204H41.2079V191.52ZM47.5595 204V191.52H50.1755V193.92H50.2955C50.4715 193.28 50.8395 192.72 51.3995 192.24C51.9595 191.76 52.7355 191.52 53.7275 191.52H54.4235V194.04H53.3915C52.3515 194.04 51.5515 194.208 50.9915 194.544C50.4475 194.88 50.1755 195.376 50.1755 196.032V204H47.5595ZM68.8269 189.648V204H66.1149V189.648H61.1229V187.248H73.8189V189.648H68.8269ZM77.5904 189.288C77.0464 189.288 76.6464 189.16 76.3904 188.904C76.1504 188.648 76.0304 188.32 76.0304 187.92V187.512C76.0304 187.112 76.1504 186.784 76.3904 186.528C76.6464 186.272 77.0464 186.144 77.5904 186.144C78.1344 186.144 78.5264 186.272 78.7664 186.528C79.0064 186.784 79.1264 187.112 79.1264 187.512V187.92C79.1264 188.32 79.0064 188.648 78.7664 188.904C78.5264 189.16 78.1344 189.288 77.5904 189.288ZM76.2704 191.52H78.8864V204H76.2704V191.52ZM87.446 204.288C86.55 204.288 85.75 204.136 85.046 203.832C84.342 203.528 83.75 203.096 83.27 202.536C82.79 201.96 82.422 201.272 82.166 200.472C81.91 199.656 81.782 198.752 81.782 197.76C81.782 196.768 81.91 195.872 82.166 195.072C82.422 194.256 82.79 193.568 83.27 193.008C83.75 192.432 84.342 191.992 85.046 191.688C85.75 191.384 86.55 191.232 87.446 191.232C88.694 191.232 89.718 191.512 90.518 192.072C91.318 192.632 91.902 193.376 92.27 194.304L90.11 195.312C89.934 194.736 89.622 194.28 89.174 193.944C88.742 193.592 88.166 193.416 87.446 193.416C86.486 193.416 85.758 193.72 85.262 194.328C84.782 194.92 84.542 195.696 84.542 196.656V198.888C84.542 199.848 84.782 200.632 85.262 201.24C85.758 201.832 86.486 202.128 87.446 202.128C88.214 202.128 88.822 201.944 89.27 201.576C89.734 201.192 90.102 200.688 90.374 200.064L92.366 201.12C91.95 202.144 91.326 202.928 90.494 203.472C89.662 204.016 88.646 204.288 87.446 204.288ZM94.8564 186.24H97.4724V197.136H97.5924L99.3204 194.904L102.32 191.52H105.368L101 196.344L105.896 204H102.776L99.2004 198.048L97.4724 199.92V204H94.8564V186.24ZM112.362 204.288C111.466 204.288 110.666 204.136 109.962 203.832C109.258 203.528 108.658 203.096 108.162 202.536C107.666 201.96 107.282 201.272 107.01 200.472C106.754 199.656 106.626 198.752 106.626 197.76C106.626 196.768 106.754 195.872 107.01 195.072C107.282 194.256 107.666 193.568 108.162 193.008C108.658 192.432 109.258 191.992 109.962 191.688C110.666 191.384 111.466 191.232 112.362 191.232C113.274 191.232 114.074 191.392 114.762 191.712C115.466 192.032 116.05 192.48 116.514 193.056C116.978 193.616 117.322 194.272 117.546 195.024C117.786 195.776 117.906 196.584 117.906 197.448V198.432H109.338V198.84C109.338 199.8 109.618 200.592 110.178 201.216C110.754 201.824 111.57 202.128 112.626 202.128C113.394 202.128 114.042 201.96 114.57 201.624C115.098 201.288 115.546 200.832 115.914 200.256L117.45 201.768C116.986 202.536 116.314 203.152 115.434 203.616C114.554 204.064 113.53 204.288 112.362 204.288ZM112.362 193.272C111.914 193.272 111.498 193.352 111.114 193.512C110.746 193.672 110.426 193.896 110.154 194.184C109.898 194.472 109.698 194.816 109.554 195.216C109.41 195.616 109.338 196.056 109.338 196.536V196.704H115.146V196.464C115.146 195.504 114.898 194.736 114.402 194.16C113.906 193.568 113.226 193.272 112.362 193.272ZM124.258 204C123.346 204 122.658 203.768 122.194 203.304C121.73 202.824 121.498 202.152 121.498 201.288V193.656H119.554V191.52H120.61C121.042 191.52 121.338 191.424 121.498 191.232C121.674 191.04 121.762 190.728 121.762 190.296V188.112H124.114V191.52H126.73V193.656H124.114V201.864H126.538V204H124.258ZM133.527 204.288C132.343 204.288 131.351 204.08 130.551 203.664C129.751 203.248 129.055 202.672 128.463 201.936L130.143 200.4C130.607 200.96 131.119 201.4 131.679 201.72C132.255 202.024 132.919 202.176 133.671 202.176C134.439 202.176 135.007 202.032 135.375 201.744C135.759 201.44 135.951 201.024 135.951 200.496C135.951 200.096 135.815 199.76 135.543 199.488C135.287 199.2 134.831 199.016 134.175 198.936L133.023 198.792C131.743 198.632 130.735 198.264 129.999 197.688C129.279 197.096 128.919 196.224 128.919 195.072C128.919 194.464 129.031 193.928 129.255 193.464C129.479 192.984 129.791 192.584 130.191 192.264C130.607 191.928 131.095 191.672 131.655 191.496C132.231 191.32 132.863 191.232 133.551 191.232C134.671 191.232 135.583 191.408 136.287 191.76C137.007 192.112 137.647 192.6 138.207 193.224L136.599 194.76C136.279 194.376 135.855 194.048 135.327 193.776C134.815 193.488 134.223 193.344 133.551 193.344C132.831 193.344 132.295 193.488 131.943 193.776C131.607 194.064 131.439 194.44 131.439 194.904C131.439 195.384 131.591 195.744 131.895 195.984C132.199 196.224 132.687 196.4 133.359 196.512L134.511 196.656C135.887 196.864 136.887 197.272 137.511 197.88C138.151 198.472 138.471 199.272 138.471 200.28C138.471 200.888 138.351 201.44 138.111 201.936C137.887 202.416 137.559 202.832 137.127 203.184C136.695 203.536 136.175 203.808 135.567 204C134.959 204.192 134.279 204.288 133.527 204.288Z" fill="white"/>
<g filter="url(#filter0_d_199_2050)">
<circle cx="81.5" cy="76.5" r="68.5" fill="#F1F2F4"/>
</g>
<path d="M86.6486 61.1866L63.8833 52.5519C63.6149 52.4515 63.3345 52.3865 63.0493 52.3585L59.0442 52H58.9677C58.2249 52.0674 57.5342 52.4104 57.0317 52.9615C56.5291 53.5125 56.2509 54.2316 56.252 54.9775C56.2548 55.487 56.4506 55.9766 56.7999 56.3476L69.6492 66.9403L71.4785 68.4473L71.966 68.27L89.0742 62.0971L86.6486 61.1866ZM58.2787 54.9413C58.2795 54.7208 58.356 54.5074 58.4953 54.3365C58.6347 54.1656 58.8284 54.0476 59.0442 54.0024L62.8841 54.3489C62.9862 54.3578 63.0865 54.381 63.1823 54.4175L83.2882 62.0448L71.8935 66.1547L58.2787 54.9413Z" fill="#00388C"/>
<path d="M128.25 57.0811C127.786 56.7421 127.276 56.4707 126.735 56.2752L121.123 54.2606L116.751 52.677C115.178 52.114 113.461 52.0998 111.88 52.6367L86.6485 61.1869L69.6491 66.9447L44.1762 75.5552L43.1125 75.9178L42.0448 76.2764L43.6565 77.8639L44.7242 77.5013L45.7879 77.1427L71.4784 68.4395L71.974 68.2703L112.524 54.5347C113.672 54.1408 114.92 54.1506 116.062 54.5628L117.758 55.1753L125.817 58.0965L126.042 58.1769C128.021 58.8941 129.234 61.0619 128.927 63.3384C128.898 63.6014 128.797 63.8512 128.635 64.0602C128.473 64.2693 128.256 64.4294 128.009 64.523L96.3509 75.1481L93.9132 75.954L91.4957 76.7598L87.6598 80.1727L90.0774 79.3668L92.5151 78.561L128.649 66.4329C129.252 66.2192 129.784 65.8425 130.186 65.3446C130.588 64.8467 130.844 64.2471 130.926 63.6125C131.107 62.3839 130.954 61.1291 130.484 59.9798C130.013 58.8306 129.242 57.8294 128.25 57.0811ZM71.5509 83.4685L69.504 84.1535C68.7102 84.4231 67.8704 84.5313 67.0341 84.4719L46.5938 82.3565C46.3476 82.337 46.1 82.3479 45.8564 82.3888L38.5031 84.4961C38.1848 84.4961 37.5844 84.0447 37.1009 83.259C36.9093 82.9433 36.7908 82.5889 36.7538 82.2215C36.7169 81.8542 36.7625 81.483 36.8873 81.1355C37.0269 80.7212 37.2795 80.3542 37.6166 80.0759C37.8022 79.9217 38.0136 79.8017 38.2412 79.7214L38.5152 79.6206L39.4741 79.2781L38.5917 77.4529L37.6368 77.7955L37.5602 77.8236C37.269 77.9286 36.9894 78.0636 36.7262 78.2265C35.9133 78.7575 35.3008 79.5444 34.9855 80.4627C34.7621 81.0936 34.6823 81.7665 34.752 82.4323C34.8217 83.098 35.0391 83.7398 35.3885 84.3107C35.7229 84.8506 36.8753 86.5026 38.491 86.5026C38.6259 86.5023 38.7606 86.4915 38.8939 86.4703L46.2594 84.3589C46.3196 84.3513 46.3805 84.3513 46.4407 84.3589L66.8891 86.4743C67.5374 86.5221 68.189 86.4952 68.8312 86.3938C69.2883 86.32 69.7384 86.2081 70.1769 86.0594L70.6886 85.886L72.7033 85.2092L75.6204 82.1066L73.6058 82.7836L71.5509 83.4685Z" fill="#00388C"/>
<path d="M120.732 54.252L114.446 56.1901C114.446 56.1901 112.109 57.3989 113.713 59.8164C113.713 59.8164 114.833 61.3676 116.558 60.8438L127.9 57.4554C127.993 57.4284 128.076 57.3753 128.139 57.3025C128.203 57.2297 128.244 57.1403 128.258 57.0448C128.272 56.9492 128.258 56.8516 128.218 56.7636C128.178 56.6757 128.114 56.6012 128.033 56.5488C125.9 55.1714 123.448 54.3678 120.913 54.2158C120.851 54.2155 120.789 54.2278 120.732 54.252Z" fill="#00388C"/>
<path d="M78.5055 77.5417L73.5737 82.7797L70.6605 85.8823L58.6171 98.6993C58.5451 98.9639 58.534 99.2414 58.5848 99.5109C58.6355 99.7804 58.7467 100.035 58.91 100.255C59.0733 100.475 59.2844 100.656 59.5275 100.783C59.7706 100.91 60.0393 100.98 60.3134 100.988L65.8295 100.311C66.1028 100.319 66.3744 100.264 66.6241 100.153C66.8738 100.041 67.0952 99.875 67.2719 99.6663L90.0895 79.3629L93.9213 75.9503L99.526 70.9619L78.5055 77.5417ZM91.4877 76.7762L87.6518 80.189L66.595 98.9209L66.4943 99.0257C66.4181 99.121 66.3201 99.1967 66.2087 99.2465C66.0972 99.2962 65.9755 99.3186 65.8536 99.3118C65.8027 99.3078 65.7515 99.3078 65.7005 99.3118L60.2933 99.9846C60.1828 99.9725 60.0759 99.9376 59.9795 99.8821C59.8832 99.8267 59.7993 99.7519 59.7332 99.6624C59.6293 99.521 59.5729 99.3501 59.5721 99.1747L72.6913 85.2134L75.6084 82.111L79.0736 78.4241L95.3477 73.3271L91.4877 76.7762Z" fill="white"/>
<path d="M100.404 70.4736C100.291 70.2729 100.113 70.1172 99.8986 70.0321C99.6845 69.947 99.4477 69.938 99.2277 70.0063L78.2032 76.578C78.0379 76.6305 77.8884 76.7232 77.768 76.848L71.5509 83.4679L68.7989 86.3972L57.8756 98.0176C57.7628 98.1385 57.6812 98.2852 57.6379 98.4448C57.527 98.8557 57.5106 99.2863 57.5898 99.7045C57.6691 100.123 57.8419 100.517 58.0954 100.859C58.3489 101.201 58.6765 101.481 59.0536 101.679C59.4307 101.876 59.8476 101.985 60.273 101.998H60.2932H60.414L65.8616 101.33C66.2588 101.329 66.6515 101.245 67.0139 101.083C67.3764 100.92 67.7004 100.683 67.9648 100.387L92.5271 78.5523L96.3629 75.1395L100.203 71.7227C100.374 71.5689 100.487 71.3611 100.524 71.1338C100.561 70.9066 100.518 70.6735 100.404 70.4736ZM66.4942 99.0249C66.4179 99.1202 66.32 99.1959 66.2085 99.2457C66.0971 99.2954 65.9754 99.3178 65.8535 99.311C65.8026 99.307 65.7514 99.307 65.7004 99.311L60.2932 99.9839C60.1826 99.9717 60.0758 99.9368 59.9794 99.8814C59.883 99.8259 59.7992 99.7511 59.7331 99.6616C59.6292 99.5202 59.5728 99.3493 59.5719 99.1739L72.6911 85.2126L75.6083 82.1102L79.0735 78.4233L95.3476 73.3263L91.4714 76.7754L87.6356 80.1882L66.5788 98.9201L66.4942 99.0249Z" fill="#00388C"/>
<path d="M105.058 64.0997C106.093 64.0997 106.932 63.2609 106.932 62.2261C106.932 61.1914 106.093 60.3525 105.058 60.3525C104.023 60.3525 103.185 61.1914 103.185 62.2261C103.185 63.2609 104.023 64.0997 105.058 64.0997Z" fill="#00A450"/>
<path d="M94.7071 68.0245C95.7419 68.0245 96.5807 67.1857 96.5807 66.1509C96.5807 65.1162 95.7419 64.2773 94.7071 64.2773C93.6723 64.2773 92.8335 65.1162 92.8335 66.1509C92.8335 67.1857 93.6723 68.0245 94.7071 68.0245Z" fill="#00A450"/>
<path d="M83.7112 71.8116C84.746 71.8116 85.5848 70.9728 85.5848 69.938C85.5848 68.9033 84.746 68.0645 83.7112 68.0645C82.6765 68.0645 81.8376 68.9033 81.8376 69.938C81.8376 70.9728 82.6765 71.8116 83.7112 71.8116Z" fill="#00A450"/>
<path d="M73.348 75.0314C74.3827 75.0314 75.2216 74.1925 75.2216 73.1578C75.2216 72.123 74.3827 71.2842 73.348 71.2842C72.3132 71.2842 71.4744 72.123 71.4744 73.1578C71.4744 74.1925 72.3132 75.0314 73.348 75.0314Z" fill="#00A450"/>
<path d="M61.5545 79.3419C62.5893 79.3419 63.4281 78.5031 63.4281 77.4683C63.4281 76.4336 62.5893 75.5947 61.5545 75.5947C60.5198 75.5947 59.6809 76.4336 59.6809 77.4683C59.6809 78.5031 60.5198 79.3419 61.5545 79.3419Z" fill="#00A450"/>
<path d="M45.9855 78.7707L44.7042 77.5015L43.0926 75.918L37.0084 69.8741C36.9555 69.8099 36.8891 69.7581 36.8138 69.7226C36.7386 69.6871 36.6564 69.6685 36.5732 69.6685L34.5586 69.6484C34.4751 69.6492 34.3927 69.6687 34.3178 69.7057C34.2428 69.7426 34.1772 69.7961 34.1257 69.8619C34.0742 69.9277 34.0382 70.0041 34.0204 70.0858C34.0025 70.1674 34.0033 70.2522 34.0227 70.3335L37.6208 77.7795L38.4992 79.6047L39.2688 81.1963C39.3255 81.3119 39.4216 81.4035 39.5398 81.4544C39.658 81.5054 39.7905 81.5124 39.9135 81.4743L45.768 79.6409C45.8528 79.6126 45.9291 79.5633 45.9898 79.4977C46.0506 79.432 46.0938 79.3523 46.1155 79.2655C46.1372 79.1787 46.1366 79.088 46.1139 79.0015C46.0912 78.915 46.0471 78.8356 45.9855 78.7707ZM40.0021 80.4105L39.4582 79.2824L38.5758 77.4571L35.3121 70.6839H36.408L42.049 76.2686L43.6607 77.8561L44.7445 78.9277L40.0021 80.4105Z" fill="white"/>
<path d="M46.6946 78.0575L45.7679 77.1428L44.1562 75.5553L37.7497 69.2093C37.6055 69.0442 37.4277 68.9117 37.2283 68.8207C37.0289 68.7297 36.8125 68.6822 36.5933 68.6814L34.5504 68.6611C34.3149 68.6637 34.0829 68.7195 33.8718 68.824C33.6606 68.9286 33.4758 69.0793 33.331 69.2651C33.1862 69.451 33.0851 69.6672 33.0354 69.8974C32.9856 70.1277 32.9884 70.3662 33.0435 70.5953L33.0717 70.7L36.698 78.2386L37.5885 80.0801L38.35 81.6554C38.4761 81.9189 38.6736 82.1419 38.92 82.2986C39.1665 82.4553 39.4521 82.5396 39.7441 82.542C39.8997 82.5409 40.0544 82.5179 40.2035 82.4735L46.058 80.6401C46.3121 80.5613 46.5415 80.418 46.7238 80.2242C46.906 80.0303 47.0349 79.7923 47.0978 79.5338C47.1607 79.2752 47.1556 79.0049 47.0828 78.749C47.01 78.493 46.8721 78.2603 46.6825 78.0736L46.6946 78.0575ZM40.002 80.4105L39.4581 79.2824L38.5757 77.457L35.312 70.6838H36.4079L42.0489 76.2685L43.6606 77.856L44.7444 78.9276L40.002 80.4105Z" fill="#00388C"/>
<defs>
<filter id="filter0_d_199_2050" x="0" y="0" width="163" height="163" filterUnits="userSpaceOnUse" color-interpolation-filters="sRGB">
<feFlood flood-opacity="0" result="BackgroundImageFix"/>
<feColorMatrix in="SourceAlpha" type="matrix" values="0 0 0 0 0 0 0 0 0 0 0 0 0 0 0 0 0 0 127 0" result="hardAlpha"/>
<feOffset dy="5"/>
<feGaussianBlur stdDeviation="6.5"/>
<feComposite in2="hardAlpha" operator="out"/>
<feColorMatrix type="matrix" values="0 0 0 0 0 0 0 0 0 0 0 0 0 0 0 0 0 0 0.1 0"/>
<feBlend mode="normal" in2="BackgroundImageFix" result="effect1_dropShadow_199_2050"/>
<feBlend mode="normal" in="SourceGraphic" in2="effect1_dropShadow_199_2050" result="shape"/>
</filter>
</defs>
</svg>
