<svg width="170" height="206" viewBox="0 0 170 206" fill="none" xmlns="http://www.w3.org/2000/svg">
<path d="M8.46138 200.288C6.26938 200.288 4.54938 199.552 3.30138 198.08C2.05338 196.592 1.42938 194.44 1.42938 191.624C1.42938 190.216 1.58938 188.976 1.90938 187.904C2.22938 186.832 2.69338 185.928 3.30138 185.192C3.90938 184.456 4.64538 183.904 5.50938 183.536C6.38938 183.152 7.37338 182.96 8.46138 182.96C9.91738 182.96 11.1334 183.28 12.1094 183.92C13.1014 184.56 13.8774 185.504 14.4374 186.752L12.1574 188C11.8694 187.2 11.4214 186.568 10.8134 186.104C10.2214 185.624 9.43738 185.384 8.46138 185.384C7.16538 185.384 6.14938 185.824 5.41338 186.704C4.67738 187.584 4.30938 188.8 4.30938 190.352V192.896C4.30938 194.448 4.67738 195.664 5.41338 196.544C6.14938 197.424 7.16538 197.864 8.46138 197.864C9.46938 197.864 10.2854 197.608 10.9094 197.096C11.5494 196.568 12.0214 195.896 12.3254 195.08L14.5094 196.4C13.9494 197.616 13.1654 198.568 12.1574 199.256C11.1494 199.944 9.91738 200.288 8.46138 200.288ZM26.3363 200C25.6483 200 25.1203 199.808 24.7523 199.424C24.3843 199.024 24.1603 198.52 24.0803 197.912H23.9603C23.7203 198.696 23.2803 199.288 22.6403 199.688C22.0003 200.088 21.2243 200.288 20.3123 200.288C19.0163 200.288 18.0163 199.952 17.3123 199.28C16.6243 198.608 16.2803 197.704 16.2803 196.568C16.2803 195.32 16.7283 194.384 17.6243 193.76C18.5363 193.136 19.8643 192.824 21.6083 192.824H23.8643V191.768C23.8643 191 23.6563 190.408 23.2403 189.992C22.8243 189.576 22.1763 189.368 21.2963 189.368C20.5603 189.368 19.9603 189.528 19.4963 189.848C19.0323 190.168 18.6403 190.576 18.3203 191.072L16.7603 189.656C17.1763 188.952 17.7603 188.376 18.5123 187.928C19.2643 187.464 20.2483 187.232 21.4643 187.232C23.0803 187.232 24.3203 187.608 25.1843 188.36C26.0483 189.112 26.4803 190.192 26.4803 191.6V197.864H27.8003V200H26.3363ZM21.0563 198.296C21.8723 198.296 22.5443 198.12 23.0723 197.768C23.6003 197.4 23.8643 196.912 23.8643 196.304V194.504H21.6563C19.8483 194.504 18.9443 195.064 18.9443 196.184V196.616C18.9443 197.176 19.1283 197.6 19.4963 197.888C19.8803 198.16 20.4003 198.296 21.0563 198.296ZM30.3642 182.24H32.9802V189.584H33.1002C33.3722 188.832 33.8122 188.256 34.4202 187.856C35.0442 187.44 35.7722 187.232 36.6042 187.232C38.1882 187.232 39.4122 187.808 40.2762 188.96C41.1402 190.096 41.5722 191.696 41.5722 193.76C41.5722 195.824 41.1402 197.432 40.2762 198.584C39.4122 199.72 38.1882 200.288 36.6042 200.288C35.7722 200.288 35.0442 200.08 34.4202 199.664C33.8122 199.248 33.3722 198.672 33.1002 197.936H32.9802V200H30.3642V182.24ZM35.8122 198.032C36.7242 198.032 37.4522 197.744 37.9962 197.168C38.5402 196.576 38.8122 195.8 38.8122 194.84V192.68C38.8122 191.72 38.5402 190.952 37.9962 190.376C37.4522 189.784 36.7242 189.488 35.8122 189.488C35.0122 189.488 34.3402 189.688 33.7962 190.088C33.2522 190.472 32.9802 190.984 32.9802 191.624V195.896C32.9802 196.536 33.2522 197.056 33.7962 197.456C34.3402 197.84 35.0122 198.032 35.8122 198.032ZM48.5273 200.288C47.3433 200.288 46.3513 200.08 45.5513 199.664C44.7513 199.248 44.0553 198.672 43.4633 197.936L45.1433 196.4C45.6073 196.96 46.1193 197.4 46.6793 197.72C47.2553 198.024 47.9193 198.176 48.6713 198.176C49.4393 198.176 50.0073 198.032 50.3753 197.744C50.7593 197.44 50.9513 197.024 50.9513 196.496C50.9513 196.096 50.8153 195.76 50.5433 195.488C50.2873 195.2 49.8313 195.016 49.1753 194.936L48.0233 194.792C46.7433 194.632 45.7353 194.264 44.9993 193.688C44.2793 193.096 43.9193 192.224 43.9193 191.072C43.9193 190.464 44.0313 189.928 44.2553 189.464C44.4793 188.984 44.7913 188.584 45.1913 188.264C45.6073 187.928 46.0953 187.672 46.6553 187.496C47.2313 187.32 47.8633 187.232 48.5513 187.232C49.6713 187.232 50.5833 187.408 51.2873 187.76C52.0073 188.112 52.6473 188.6 53.2073 189.224L51.5993 190.76C51.2793 190.376 50.8553 190.048 50.3273 189.776C49.8153 189.488 49.2233 189.344 48.5513 189.344C47.8313 189.344 47.2953 189.488 46.9433 189.776C46.6073 190.064 46.4393 190.44 46.4393 190.904C46.4393 191.384 46.5913 191.744 46.8953 191.984C47.1993 192.224 47.6873 192.4 48.3593 192.512L49.5113 192.656C50.8873 192.864 51.8873 193.272 52.5113 193.88C53.1513 194.472 53.4713 195.272 53.4713 196.28C53.4713 196.888 53.3513 197.44 53.1113 197.936C52.8873 198.416 52.5593 198.832 52.1273 199.184C51.6953 199.536 51.1753 199.808 50.5673 200C49.9593 200.192 49.2793 200.288 48.5273 200.288ZM54.7227 203.624L61.3707 182.24H63.6267L56.9787 203.624H54.7227ZM66.6265 183.248H74.0425C75.4345 183.248 76.5225 183.64 77.3065 184.424C78.1065 185.208 78.5065 186.256 78.5065 187.568C78.5065 188.192 78.4185 188.728 78.2425 189.176C78.0665 189.608 77.8425 189.968 77.5705 190.256C77.2985 190.528 76.9865 190.736 76.6345 190.88C76.2825 191.008 75.9385 191.088 75.6025 191.12V191.264C75.9385 191.28 76.3065 191.36 76.7065 191.504C77.1225 191.648 77.5065 191.88 77.8585 192.2C78.2105 192.504 78.5065 192.904 78.7465 193.4C78.9865 193.88 79.1065 194.472 79.1065 195.176C79.1065 195.848 78.9945 196.48 78.7705 197.072C78.5625 197.664 78.2665 198.176 77.8825 198.608C77.4985 199.04 77.0425 199.384 76.5145 199.64C75.9865 199.88 75.4105 200 74.7865 200H66.6265V183.248ZM69.3385 197.672H73.9945C74.6985 197.672 75.2505 197.488 75.6505 197.12C76.0505 196.752 76.2505 196.224 76.2505 195.536V194.72C76.2505 194.032 76.0505 193.504 75.6505 193.136C75.2505 192.768 74.6985 192.584 73.9945 192.584H69.3385V197.672ZM69.3385 190.328H73.5385C74.2105 190.328 74.7305 190.16 75.0985 189.824C75.4665 189.472 75.6505 188.976 75.6505 188.336V187.568C75.6505 186.928 75.4665 186.44 75.0985 186.104C74.7305 185.752 74.2105 185.576 73.5385 185.576H69.3385V190.328ZM89.8148 197.936H89.7188C89.6068 198.24 89.4548 198.536 89.2628 198.824C89.0868 199.112 88.8548 199.368 88.5668 199.592C88.2948 199.8 87.9588 199.968 87.5588 200.096C87.1748 200.224 86.7268 200.288 86.2148 200.288C84.9188 200.288 83.9108 199.872 83.1908 199.04C82.4868 198.208 82.1348 197.016 82.1348 195.464V187.52H84.7508V195.128C84.7508 197.064 85.5508 198.032 87.1508 198.032C87.4868 198.032 87.8148 197.992 88.1348 197.912C88.4548 197.816 88.7348 197.68 88.9748 197.504C89.2308 197.328 89.4308 197.104 89.5748 196.832C89.7348 196.56 89.8148 196.24 89.8148 195.872V187.52H92.4308V200H89.8148V197.936ZM100.137 200.288C98.9527 200.288 97.9607 200.08 97.1607 199.664C96.3607 199.248 95.6647 198.672 95.0727 197.936L96.7527 196.4C97.2167 196.96 97.7287 197.4 98.2887 197.72C98.8647 198.024 99.5287 198.176 100.281 198.176C101.049 198.176 101.617 198.032 101.985 197.744C102.369 197.44 102.561 197.024 102.561 196.496C102.561 196.096 102.425 195.76 102.153 195.488C101.897 195.2 101.441 195.016 100.785 194.936L99.6327 194.792C98.3527 194.632 97.3447 194.264 96.6087 193.688C95.8887 193.096 95.5287 192.224 95.5287 191.072C95.5287 190.464 95.6407 189.928 95.8647 189.464C96.0887 188.984 96.4007 188.584 96.8007 188.264C97.2167 187.928 97.7047 187.672 98.2647 187.496C98.8407 187.32 99.4727 187.232 100.161 187.232C101.281 187.232 102.193 187.408 102.897 187.76C103.617 188.112 104.257 188.6 104.817 189.224L103.209 190.76C102.889 190.376 102.465 190.048 101.937 189.776C101.425 189.488 100.833 189.344 100.161 189.344C99.4407 189.344 98.9047 189.488 98.5527 189.776C98.2167 190.064 98.0487 190.44 98.0487 190.904C98.0487 191.384 98.2007 191.744 98.5047 191.984C98.8087 192.224 99.2967 192.4 99.9687 192.512L101.121 192.656C102.497 192.864 103.497 193.272 104.121 193.88C104.761 194.472 105.081 195.272 105.081 196.28C105.081 196.888 104.961 197.44 104.721 197.936C104.497 198.416 104.169 198.832 103.737 199.184C103.305 199.536 102.785 199.808 102.177 200C101.569 200.192 100.889 200.288 100.137 200.288ZM106.332 203.624L112.98 182.24H115.236L108.588 203.624H106.332ZM120.948 200H118.236V183.248H125.46C126.964 183.248 128.148 183.704 129.012 184.616C129.876 185.512 130.308 186.736 130.308 188.288C130.308 189.488 130.028 190.488 129.468 191.288C128.924 192.072 128.116 192.624 127.044 192.944L130.668 200H127.644L124.284 193.232H120.948V200ZM125.268 190.952C125.956 190.952 126.492 190.776 126.876 190.424C127.26 190.056 127.452 189.536 127.452 188.864V187.712C127.452 187.04 127.26 186.528 126.876 186.176C126.492 185.808 125.956 185.624 125.268 185.624H120.948V190.952H125.268ZM142.68 200C141.992 200 141.464 199.808 141.096 199.424C140.728 199.024 140.504 198.52 140.424 197.912H140.304C140.064 198.696 139.624 199.288 138.984 199.688C138.344 200.088 137.568 200.288 136.656 200.288C135.36 200.288 134.36 199.952 133.656 199.28C132.968 198.608 132.624 197.704 132.624 196.568C132.624 195.32 133.072 194.384 133.968 193.76C134.88 193.136 136.208 192.824 137.952 192.824H140.208V191.768C140.208 191 140 190.408 139.584 189.992C139.168 189.576 138.52 189.368 137.64 189.368C136.904 189.368 136.304 189.528 135.84 189.848C135.376 190.168 134.984 190.576 134.664 191.072L133.104 189.656C133.52 188.952 134.104 188.376 134.856 187.928C135.608 187.464 136.592 187.232 137.808 187.232C139.424 187.232 140.664 187.608 141.528 188.36C142.392 189.112 142.824 190.192 142.824 191.6V197.864H144.144V200H142.68ZM137.4 198.296C138.216 198.296 138.888 198.12 139.416 197.768C139.944 197.4 140.208 196.912 140.208 196.304V194.504H138C136.192 194.504 135.288 195.064 135.288 196.184V196.616C135.288 197.176 135.472 197.6 135.84 197.888C136.224 198.16 136.744 198.296 137.4 198.296ZM148.028 185.288C147.484 185.288 147.084 185.16 146.828 184.904C146.588 184.648 146.468 184.32 146.468 183.92V183.512C146.468 183.112 146.588 182.784 146.828 182.528C147.084 182.272 147.484 182.144 148.028 182.144C148.572 182.144 148.964 182.272 149.204 182.528C149.444 182.784 149.564 183.112 149.564 183.512V183.92C149.564 184.32 149.444 184.648 149.204 184.904C148.964 185.16 148.572 185.288 148.028 185.288ZM146.708 187.52H149.324V200H146.708V187.52ZM155.724 200C154.828 200 154.156 199.776 153.708 199.328C153.276 198.864 153.06 198.224 153.06 197.408V182.24H155.676V197.864H157.404V200H155.724ZM163.863 200.288C162.679 200.288 161.687 200.08 160.887 199.664C160.087 199.248 159.391 198.672 158.799 197.936L160.479 196.4C160.943 196.96 161.455 197.4 162.015 197.72C162.591 198.024 163.255 198.176 164.007 198.176C164.775 198.176 165.343 198.032 165.711 197.744C166.095 197.44 166.287 197.024 166.287 196.496C166.287 196.096 166.151 195.76 165.879 195.488C165.623 195.2 165.167 195.016 164.511 194.936L163.359 194.792C162.079 194.632 161.071 194.264 160.335 193.688C159.615 193.096 159.255 192.224 159.255 191.072C159.255 190.464 159.367 189.928 159.591 189.464C159.815 188.984 160.127 188.584 160.527 188.264C160.943 187.928 161.431 187.672 161.991 187.496C162.567 187.32 163.199 187.232 163.887 187.232C165.007 187.232 165.919 187.408 166.623 187.76C167.343 188.112 167.983 188.6 168.543 189.224L166.935 190.76C166.615 190.376 166.191 190.048 165.663 189.776C165.151 189.488 164.559 189.344 163.887 189.344C163.167 189.344 162.631 189.488 162.279 189.776C161.943 190.064 161.775 190.44 161.775 190.904C161.775 191.384 161.927 191.744 162.231 191.984C162.535 192.224 163.023 192.4 163.695 192.512L164.847 192.656C166.223 192.864 167.223 193.272 167.847 193.88C168.487 194.472 168.807 195.272 168.807 196.28C168.807 196.888 168.687 197.44 168.447 197.936C168.223 198.416 167.895 198.832 167.463 199.184C167.031 199.536 166.511 199.808 165.903 200C165.295 200.192 164.615 200.288 163.863 200.288Z" fill="white"/>
<g filter="url(#filter0_d_199_2051)">
<circle cx="85.5" cy="76.5" r="68.5" fill="#F1F2F4"/>
</g>
<path d="M85.6372 75.0675L81.5141 71.0884C81.314 70.9022 81.0491 70.8015 80.7758 70.8078H61.7107V68.5931H81.9496C82.2231 68.5856 82.4884 68.6865 82.6879 68.8737L85.759 71.8267C85.9512 72 86.1991 72.0987 86.4578 72.1048C86.7166 72.1109 86.9689 72.0239 87.169 71.8598L90.6831 68.8294C90.8751 68.6676 91.1186 68.5799 91.3696 68.5821H110.387V70.7968H92.4069C92.1566 70.7956 91.9138 70.8818 91.7203 71.0405L87.0288 75.1008C86.8306 75.2614 86.5818 75.3461 86.3269 75.34C86.0719 75.3339 85.8274 75.2373 85.6372 75.0675Z" fill="#00A450"/>
<path d="M104.278 65.1638H68.1814C67.8336 65.1681 67.489 65.0979 67.1706 64.9578C66.8523 64.8178 66.5676 64.6111 66.3358 64.3519C66.1229 64.1135 65.9631 63.8325 65.867 63.5277C65.771 63.2228 65.7407 62.9012 65.7784 62.5838L66.3358 57.752C66.823 54.7991 68.9713 52.8242 71.677 52.8242H100.749C103.392 52.8242 105.437 54.6956 106.083 57.7113V57.8L106.629 62.5986C106.666 62.9145 106.636 63.2345 106.54 63.5379C106.445 63.8414 106.286 64.1213 106.075 64.3593C105.848 64.6108 105.571 64.8121 105.261 64.9506C104.952 65.0892 104.617 65.1618 104.278 65.1638ZM68.1777 58.0473L67.6314 62.8163C67.6235 62.8753 67.6287 62.9352 67.6465 62.992C67.6644 63.0488 67.6945 63.101 67.7348 63.1448C67.7921 63.2055 67.8614 63.2536 67.9383 63.286C68.0152 63.3184 68.098 63.3343 68.1814 63.333H104.278C104.361 63.3343 104.444 63.3184 104.521 63.286C104.598 63.2536 104.667 63.2055 104.724 63.1448C104.765 63.1025 104.795 63.0517 104.814 62.9962C104.832 62.9407 104.838 62.8818 104.832 62.8237L104.285 58.0473C104.097 57.1983 103.314 54.6624 100.767 54.6624H71.6954C69.5213 54.6698 68.4435 56.4748 68.1777 58.0473Z" fill="#00388C"/>
<path d="M105.758 94.7158H65.8337V96.5614H105.758V94.7158Z" fill="#00388C"/>
<path d="M111.956 100.844H60.3191V102.689H111.956V100.844Z" fill="#00388C"/>
<path d="M102.683 92.686H69.6469C68.2174 92.6871 66.818 92.2754 65.6171 91.5001C64.4161 90.7247 63.4647 89.6189 62.8772 88.3157L60.0387 81.9963C59.4269 80.6403 59.239 79.1311 59.4998 77.6665L63.5822 54.6702C63.881 52.9541 64.777 51.3988 66.1117 50.2795C67.4465 49.1602 69.1341 48.5489 70.8761 48.5538H101.469C103.223 48.5458 104.922 49.1626 106.263 50.2934C107.603 51.4243 108.497 52.9955 108.785 54.7256L112.683 77.7587C112.922 79.1629 112.751 80.6064 112.188 81.9151L109.494 88.1902C108.926 89.5261 107.977 90.6649 106.766 91.4646C105.555 92.2642 104.135 92.6891 102.683 92.686ZM70.8872 50.3958C69.5797 50.3942 68.3136 50.8538 67.3117 51.6937C66.3097 52.5336 65.6361 53.7 65.4094 54.9876L61.3491 77.9839C61.152 79.0836 61.2923 80.2173 61.7514 81.2358L64.5899 87.559C65.0304 88.5364 65.7436 89.3658 66.6439 89.9479C67.5442 90.5299 68.5933 90.8399 69.6654 90.8404H102.702C103.791 90.8438 104.857 90.5259 105.766 89.9264C106.676 89.327 107.388 88.4726 107.814 87.4704L110.509 81.1953C110.931 80.2119 111.059 79.1273 110.878 78.0725L106.98 55.043C106.766 53.7444 106.096 52.5645 105.091 51.7149C104.086 50.8653 102.811 50.4015 101.495 50.4068L70.8872 50.3958Z" fill="#00388C"/>
<path d="M111.863 78.3643H60.3191V80.2099H111.863V78.3643Z" fill="#00388C"/>
<path d="M71.9575 88.2382C73.5272 88.2382 74.7997 86.9657 74.7997 85.3959C74.7997 83.8262 73.5272 82.5537 71.9575 82.5537C70.3877 82.5537 69.1152 83.8262 69.1152 85.3959C69.1152 86.9657 70.3877 88.2382 71.9575 88.2382Z" fill="#00388C"/>
<path d="M100.494 88.2382C102.064 88.2382 103.336 86.9657 103.336 85.3959C103.336 83.8262 102.064 82.5537 100.494 82.5537C98.9244 82.5537 97.6519 83.8262 97.6519 85.3959C97.6519 86.9657 98.9244 88.2382 100.494 88.2382Z" fill="#00388C"/>
<path d="M82.8393 88.8023C82.5946 88.8023 82.3598 88.7051 82.1868 88.5321C82.0137 88.359 81.9165 88.1242 81.9165 87.8794V82.9111C81.9165 82.6663 82.0137 82.4317 82.1868 82.2586C82.3598 82.0856 82.5946 81.9883 82.8393 81.9883C83.0841 81.9883 83.3188 82.0856 83.4918 82.2586C83.6649 82.4317 83.7621 82.6663 83.7621 82.9111V87.8794C83.7626 88.0008 83.7391 88.1211 83.6929 88.2333C83.6467 88.3454 83.5787 88.4474 83.4929 88.5332C83.4071 88.6189 83.3052 88.6868 83.193 88.733C83.0808 88.7792 82.9606 88.8027 82.8393 88.8023Z" fill="#00388C"/>
<path d="M89.6718 88.8022C89.4271 88.8022 89.1924 88.7051 89.0193 88.5321C88.8462 88.359 88.749 88.1242 88.749 87.8794V82.9111C88.749 82.6663 88.8462 82.4317 89.0193 82.2586C89.1924 82.0856 89.4271 81.9883 89.6718 81.9883C89.9166 81.9883 90.1513 82.0856 90.3244 82.2586C90.4974 82.4317 90.5946 82.6663 90.5946 82.9111V87.8794C90.5946 88.1242 90.4974 88.359 90.3244 88.5321C90.1513 88.7051 89.9166 88.8022 89.6718 88.8022Z" fill="#00388C"/>
<path d="M92.4622 50.8017H79.5097C79.2476 50.8017 79.0483 50.606 79.1 50.3956L79.6389 48.1551C79.7238 47.903 79.8896 47.6858 80.1105 47.5376C80.3315 47.3894 80.5952 47.3184 80.8607 47.3356H91.1075C91.3735 47.3182 91.6378 47.3891 91.8594 47.5373C92.081 47.6854 92.2474 47.9027 92.333 48.1551L92.8719 50.3956C92.9199 50.606 92.7243 50.8017 92.4622 50.8017Z" fill="#00388C"/>
<path d="M58.2593 104.557C58.0779 104.558 57.9001 104.506 57.7483 104.407C57.5966 104.307 57.4777 104.165 57.4066 103.998C57.3356 103.831 57.3155 103.647 57.3491 103.468C57.3826 103.29 57.4681 103.125 57.5949 102.996L68.9786 91.1358C69.0625 91.0483 69.1628 90.9782 69.2737 90.9295C69.3847 90.8807 69.5042 90.8543 69.6253 90.8518C69.7465 90.8492 69.867 90.8705 69.9799 90.9145C70.0928 90.9585 70.196 91.0242 70.2835 91.1081C70.371 91.1919 70.4411 91.2922 70.4898 91.4031C70.5386 91.5141 70.565 91.6336 70.5676 91.7547C70.5701 91.8759 70.5488 91.9963 70.5048 92.1093C70.4608 92.2222 70.395 92.3255 70.3112 92.413L58.9275 104.265C58.8417 104.357 58.7383 104.43 58.6234 104.48C58.5086 104.53 58.3847 104.556 58.2593 104.557Z" fill="#00388C"/>
<path d="M113.746 104.475C113.625 104.476 113.504 104.452 113.392 104.406C113.28 104.36 113.178 104.292 113.093 104.206L101.303 92.4161C101.13 92.2428 101.032 92.0078 101.032 91.7628C101.032 91.5177 101.13 91.2827 101.303 91.1094C101.476 90.9361 101.711 90.8389 101.956 90.8389C102.201 90.8389 102.436 90.9361 102.61 91.1094L114.399 102.921C114.527 103.051 114.614 103.215 114.649 103.393C114.684 103.572 114.666 103.757 114.596 103.925C114.526 104.093 114.408 104.237 114.257 104.338C114.106 104.439 113.928 104.493 113.746 104.494V104.475Z" fill="#00388C"/>
<defs>
<filter id="filter0_d_199_2051" x="4" y="0" width="163" height="163" filterUnits="userSpaceOnUse" color-interpolation-filters="sRGB">
<feFlood flood-opacity="0" result="BackgroundImageFix"/>
<feColorMatrix in="SourceAlpha" type="matrix" values="0 0 0 0 0 0 0 0 0 0 0 0 0 0 0 0 0 0 127 0" result="hardAlpha"/>
<feOffset dy="5"/>
<feGaussianBlur stdDeviation="6.5"/>
<feComposite in2="hardAlpha" operator="out"/>
<feColorMatrix type="matrix" values="0 0 0 0 0 0 0 0 0 0 0 0 0 0 0 0 0 0 0.1 0"/>
<feBlend mode="normal" in2="BackgroundImageFix" result="effect1_dropShadow_199_2051"/>
<feBlend mode="normal" in="SourceGraphic" in2="effect1_dropShadow_199_2051" result="shape"/>
</filter>
</defs>
</svg>
