<svg width="122" height="120" viewBox="0 0 122 120" fill="none" xmlns="http://www.w3.org/2000/svg">
<ellipse cx="61.2917" cy="60" rx="60.5" ry="60" fill="white"/>
<path d="M61.5099 61.876H44.231V64.9812H59.6423C60.1382 63.8855 60.7646 62.844 61.5099 61.876Z" fill="#545454"/>
<path d="M56.8663 69.6602H44.231V72.7654H56.8663V69.6602Z" fill="#545454"/>
<path d="M83.4901 68.6206L81.4779 66.7637L80.1252 68.012L73.4727 74.1479L68.8392 69.8689L66.4602 72.0643L73.466 78.5325L74.3543 77.7128L74.3611 77.7221L83.8569 68.9591L83.4901 68.6206Z" fill="#545454"/>
<path d="M38.7162 83.9631V34.1736H80.1251V55.5129C81.286 55.7827 82.4137 56.1625 83.49 56.6463V31.0684H35.3513V87.0684H72.2747C69.6344 86.5633 67.157 85.5004 65.0367 83.9631H38.7162Z" fill="#545454"/>
<path d="M83.4899 59.8296C80.7581 58.2649 77.5406 57.5814 74.3424 57.8864C71.1442 58.1914 68.1462 59.4677 65.8189 61.5149C63.4915 63.5622 61.9666 66.2645 61.4833 69.1979C61 72.1314 61.5857 75.1298 63.1486 77.7229C64.7114 80.3159 67.1629 82.3567 70.1184 83.5252C73.0739 84.6936 76.3661 84.9234 79.4784 84.1786C82.5907 83.4339 85.347 81.7566 87.3148 79.4101C89.2826 77.0636 90.3505 74.1805 90.351 71.2134C90.3642 68.9317 89.7398 66.6854 88.538 64.6913C87.3361 62.6972 85.5975 61.0228 83.4899 59.8296ZM83.4899 78.6878C81.6262 80.3089 79.2137 81.2874 76.6592 81.4582C74.1047 81.629 71.5646 80.9816 69.4671 79.6253C67.3696 78.2689 65.8431 76.2866 65.1451 74.0125C64.447 71.7385 64.6201 69.3119 65.6352 67.1419C66.6502 64.9719 68.445 63.1913 70.7171 62.1004C72.9891 61.0095 75.5993 60.6749 78.1075 61.1532C80.6157 61.6315 82.8684 62.8934 84.4858 64.726C86.1031 66.5586 86.9862 68.8499 86.9861 71.2134C86.9862 72.6134 86.6761 73.9986 86.0749 75.284C85.4736 76.5693 84.594 77.7276 83.4899 78.6878Z" fill="#545454"/>
<path d="M71.1538 55.6433V55.6061V52.5381H44.231V55.6433H71.0124H71.1538Z" fill="#545454"/>
<path d="M71.1538 43.5332H44.231V46.6385H71.1538V43.5332Z" fill="#545454"/>
</svg>
