<svg width="156" height="185" viewBox="0 0 156 185" fill="none" xmlns="http://www.w3.org/2000/svg">
<path d="M41.064 162.248H48.48C49.872 162.248 50.96 162.64 51.744 163.424C52.544 164.208 52.944 165.256 52.944 166.568C52.944 167.192 52.856 167.728 52.68 168.176C52.504 168.608 52.28 168.968 52.008 169.256C51.736 169.528 51.424 169.736 51.072 169.88C50.72 170.008 50.376 170.088 50.04 170.12V170.264C50.376 170.28 50.744 170.36 51.144 170.504C51.56 170.648 51.944 170.88 52.296 171.2C52.648 171.504 52.944 171.904 53.184 172.4C53.424 172.88 53.544 173.472 53.544 174.176C53.544 174.848 53.432 175.48 53.208 176.072C53 176.664 52.704 177.176 52.32 177.608C51.936 178.04 51.48 178.384 50.952 178.64C50.424 178.88 49.848 179 49.224 179H41.064V162.248ZM43.776 176.672H48.432C49.136 176.672 49.688 176.488 50.088 176.12C50.488 175.752 50.688 175.224 50.688 174.536V173.72C50.688 173.032 50.488 172.504 50.088 172.136C49.688 171.768 49.136 171.584 48.432 171.584H43.776V176.672ZM43.776 169.328H47.976C48.648 169.328 49.168 169.16 49.536 168.824C49.904 168.472 50.088 167.976 50.088 167.336V166.568C50.088 165.928 49.904 165.44 49.536 165.104C49.168 164.752 48.648 164.576 47.976 164.576H43.776V169.328ZM64.2523 176.936H64.1563C64.0443 177.24 63.8923 177.536 63.7003 177.824C63.5243 178.112 63.2923 178.368 63.0043 178.592C62.7323 178.8 62.3963 178.968 61.9963 179.096C61.6123 179.224 61.1643 179.288 60.6523 179.288C59.3563 179.288 58.3483 178.872 57.6283 178.04C56.9243 177.208 56.5723 176.016 56.5723 174.464V166.52H59.1883V174.128C59.1883 176.064 59.9883 177.032 61.5883 177.032C61.9243 177.032 62.2523 176.992 62.5723 176.912C62.8923 176.816 63.1723 176.68 63.4123 176.504C63.6683 176.328 63.8683 176.104 64.0123 175.832C64.1723 175.56 64.2523 175.24 64.2523 174.872V166.52H66.8683V179H64.2523V176.936ZM74.5742 179.288C73.3902 179.288 72.3982 179.08 71.5982 178.664C70.7982 178.248 70.1022 177.672 69.5102 176.936L71.1902 175.4C71.6542 175.96 72.1662 176.4 72.7262 176.72C73.3022 177.024 73.9662 177.176 74.7182 177.176C75.4862 177.176 76.0542 177.032 76.4222 176.744C76.8062 176.44 76.9982 176.024 76.9982 175.496C76.9982 175.096 76.8622 174.76 76.5902 174.488C76.3342 174.2 75.8782 174.016 75.2222 173.936L74.0702 173.792C72.7902 173.632 71.7822 173.264 71.0462 172.688C70.3262 172.096 69.9662 171.224 69.9662 170.072C69.9662 169.464 70.0782 168.928 70.3022 168.464C70.5262 167.984 70.8382 167.584 71.2382 167.264C71.6542 166.928 72.1422 166.672 72.7022 166.496C73.2782 166.32 73.9102 166.232 74.5982 166.232C75.7182 166.232 76.6302 166.408 77.3342 166.76C78.0542 167.112 78.6942 167.6 79.2542 168.224L77.6462 169.76C77.3262 169.376 76.9022 169.048 76.3742 168.776C75.8622 168.488 75.2702 168.344 74.5982 168.344C73.8782 168.344 73.3422 168.488 72.9902 168.776C72.6542 169.064 72.4862 169.44 72.4862 169.904C72.4862 170.384 72.6382 170.744 72.9422 170.984C73.2462 171.224 73.7342 171.4 74.4062 171.512L75.5582 171.656C76.9342 171.864 77.9342 172.272 78.5582 172.88C79.1982 173.472 79.5182 174.272 79.5182 175.28C79.5182 175.888 79.3982 176.44 79.1582 176.936C78.9342 177.416 78.6062 177.832 78.1742 178.184C77.7422 178.536 77.2222 178.808 76.6142 179C76.0062 179.192 75.3262 179.288 74.5742 179.288ZM87.3696 179.288C86.4736 179.288 85.6736 179.136 84.9696 178.832C84.2656 178.528 83.6656 178.096 83.1696 177.536C82.6736 176.96 82.2896 176.272 82.0176 175.472C81.7616 174.656 81.6336 173.752 81.6336 172.76C81.6336 171.768 81.7616 170.872 82.0176 170.072C82.2896 169.256 82.6736 168.568 83.1696 168.008C83.6656 167.432 84.2656 166.992 84.9696 166.688C85.6736 166.384 86.4736 166.232 87.3696 166.232C88.2816 166.232 89.0816 166.392 89.7696 166.712C90.4736 167.032 91.0576 167.48 91.5216 168.056C91.9856 168.616 92.3296 169.272 92.5536 170.024C92.7936 170.776 92.9136 171.584 92.9136 172.448V173.432H84.3456V173.84C84.3456 174.8 84.6256 175.592 85.1856 176.216C85.7616 176.824 86.5776 177.128 87.6336 177.128C88.4016 177.128 89.0496 176.96 89.5776 176.624C90.1056 176.288 90.5536 175.832 90.9216 175.256L92.4576 176.768C91.9936 177.536 91.3216 178.152 90.4416 178.616C89.5616 179.064 88.5376 179.288 87.3696 179.288ZM87.3696 168.272C86.9216 168.272 86.5056 168.352 86.1216 168.512C85.7536 168.672 85.4336 168.896 85.1616 169.184C84.9056 169.472 84.7056 169.816 84.5616 170.216C84.4176 170.616 84.3456 171.056 84.3456 171.536V171.704H90.1536V171.464C90.1536 170.504 89.9056 169.736 89.4096 169.16C88.9136 168.568 88.2336 168.272 87.3696 168.272ZM99.7695 179.288C98.5855 179.288 97.5935 179.08 96.7935 178.664C95.9935 178.248 95.2975 177.672 94.7055 176.936L96.3855 175.4C96.8495 175.96 97.3615 176.4 97.9215 176.72C98.4975 177.024 99.1615 177.176 99.9135 177.176C100.682 177.176 101.25 177.032 101.618 176.744C102.002 176.44 102.194 176.024 102.194 175.496C102.194 175.096 102.058 174.76 101.786 174.488C101.53 174.2 101.074 174.016 100.418 173.936L99.2655 173.792C97.9855 173.632 96.9775 173.264 96.2415 172.688C95.5215 172.096 95.1615 171.224 95.1615 170.072C95.1615 169.464 95.2735 168.928 95.4975 168.464C95.7215 167.984 96.0335 167.584 96.4335 167.264C96.8495 166.928 97.3375 166.672 97.8975 166.496C98.4735 166.32 99.1055 166.232 99.7935 166.232C100.914 166.232 101.826 166.408 102.53 166.76C103.25 167.112 103.89 167.6 104.45 168.224L102.842 169.76C102.522 169.376 102.098 169.048 101.57 168.776C101.058 168.488 100.466 168.344 99.7935 168.344C99.0735 168.344 98.5375 168.488 98.1855 168.776C97.8495 169.064 97.6815 169.44 97.6815 169.904C97.6815 170.384 97.8335 170.744 98.1375 170.984C98.4415 171.224 98.9295 171.4 99.6015 171.512L100.754 171.656C102.13 171.864 103.13 172.272 103.754 172.88C104.394 173.472 104.714 174.272 104.714 175.28C104.714 175.888 104.594 176.44 104.354 176.936C104.13 177.416 103.802 177.832 103.37 178.184C102.938 178.536 102.418 178.808 101.81 179C101.202 179.192 100.522 179.288 99.7695 179.288Z" fill="white"/>
<g filter="url(#filter0_d_1345_12399)">
<circle cx="72" cy="74" r="64" fill="white"/>
<circle cx="72" cy="74" r="63.5" stroke="url(#paint0_linear_1345_12399)"/>
</g>
<g clip-path="url(#clip0_1345_12399)">
<path d="M92.6392 94.8217H51.3775C50.4478 94.8209 49.5564 94.4709 48.8991 93.8487C48.2417 93.2264 47.872 92.3827 47.8711 91.5028V51.4509C47.8729 49.5652 48.665 47.7572 50.0737 46.4238C51.4824 45.0904 53.3926 44.3405 55.3848 44.3389H88.6319C90.6238 44.3414 92.5334 45.0915 93.9419 46.4247C95.3504 47.7579 96.1429 49.5654 96.1455 51.4509V91.4996C96.1455 92.3801 95.7762 93.2246 95.1188 93.8476C94.4613 94.4705 93.5694 94.8209 92.6392 94.8217ZM55.3848 45.9225C53.836 45.9242 52.3511 46.507 51.2556 47.5434C50.1601 48.5797 49.5434 49.9849 49.5408 51.4509V91.4996C49.5408 91.9607 49.7343 92.4029 50.0787 92.7289C50.4232 93.0549 50.8904 93.2381 51.3775 93.2381H92.6392C93.1263 93.2381 93.5934 93.0549 93.9379 92.7289C94.2823 92.4029 94.4758 91.9607 94.4758 91.4996V51.4509C94.4741 49.9844 93.8578 48.5783 92.7622 47.5413C91.6667 46.5043 90.1813 45.921 88.6319 45.9193L55.3848 45.9225Z" fill="#00388C"/>
<path d="M59.5532 102.097H53.8395C53.1753 102.097 52.5382 101.848 52.0685 101.403C51.5988 100.959 51.335 100.356 51.335 99.7268V93.2754H61.1929C61.422 93.2762 61.6415 93.3627 61.8035 93.5161C61.9655 93.6694 62.0569 93.8772 62.0578 94.0941V99.7268C62.0569 100.355 61.7928 100.958 61.3232 101.402C60.8537 101.847 60.2172 102.097 59.5532 102.097ZM53.0047 94.8558V99.7268C53.0047 99.9364 53.0926 100.137 53.2492 100.286C53.4058 100.434 53.6181 100.517 53.8395 100.517H59.5532C59.7744 100.516 59.9862 100.433 60.1426 100.285C60.299 100.137 60.3872 99.9361 60.3881 99.7268V94.8558H53.0047Z" fill="#00388C"/>
<path d="M90.395 102.097H84.6813C84.0173 102.097 83.3808 101.847 82.9113 101.402C82.4418 100.958 82.1776 100.355 82.1768 99.7268V93.2754H92.048C92.2772 93.2762 92.4966 93.3627 92.6586 93.5161C92.8207 93.6694 92.9121 93.8772 92.9129 94.0941V99.7268C92.9129 100.039 92.8477 100.349 92.721 100.637C92.5943 100.925 92.4086 101.187 92.1747 101.408C91.9407 101.628 91.663 101.802 91.3576 101.921C91.0522 102.039 90.7251 102.099 90.395 102.097ZM83.8465 94.8558V99.7268C83.8473 99.9361 83.9356 100.137 84.092 100.285C84.2483 100.433 84.4602 100.516 84.6813 100.517H90.395C90.6164 100.517 90.8288 100.434 90.9854 100.286C91.1419 100.137 91.2299 99.9364 91.2299 99.7268V94.8558H83.8465Z" fill="#00388C"/>
<path d="M56.6989 88.3667C58.368 88.3667 59.7211 87.086 59.7211 85.5061C59.7211 83.9262 58.368 82.6455 56.6989 82.6455C55.0298 82.6455 53.6768 83.9262 53.6768 85.5061C53.6768 87.086 55.0298 88.3667 56.6989 88.3667Z" fill="#00388C"/>
<path d="M87.5397 88.3667C89.2088 88.3667 90.5619 87.086 90.5619 85.5061C90.5619 83.9262 89.2088 82.6455 87.5397 82.6455C85.8706 82.6455 84.5176 83.9262 84.5176 85.5061C84.5176 87.086 85.8706 88.3667 87.5397 88.3667Z" fill="#00388C"/>
<path d="M76.7215 88.348H67.2977C67.0763 88.348 66.864 88.2648 66.7074 88.1166C66.5508 87.9684 66.4629 87.7674 66.4629 87.5578C66.4629 87.3482 66.5508 87.1472 66.7074 86.999C66.864 86.8508 67.0763 86.7676 67.2977 86.7676H76.7215C76.943 86.7676 77.1553 86.8508 77.3119 86.999C77.4684 87.1472 77.5564 87.3482 77.5564 87.5578C77.5564 87.7674 77.4684 87.9684 77.3119 88.1166C77.1553 88.2648 76.943 88.348 76.7215 88.348Z" fill="#00388C"/>
<path d="M76.7215 84.5326H67.2977C67.0763 84.5326 66.864 84.4494 66.7074 84.3012C66.5508 84.153 66.4629 83.952 66.4629 83.7424C66.4629 83.5328 66.5508 83.3318 66.7074 83.1836C66.864 83.0354 67.0763 82.9521 67.2977 82.9521H76.7215C76.943 82.9521 77.1553 83.0354 77.3119 83.1836C77.4684 83.3318 77.5564 83.5328 77.5564 83.7424C77.5564 83.952 77.4684 84.153 77.3119 84.3012C77.1553 84.4494 76.943 84.5326 76.7215 84.5326Z" fill="#00388C"/>
<path d="M66.4524 78.0493H52.8477V77.2591C52.8477 76.4135 53.0236 75.5763 53.3655 74.7951C53.7073 74.0139 54.2084 73.3041 54.84 72.7062C55.4717 72.1083 56.2216 71.634 57.0469 71.3104C57.8722 70.9869 58.7567 70.8203 59.65 70.8203C60.5433 70.8203 61.4279 70.9869 62.2532 71.3104C63.0785 71.634 63.8284 72.1083 64.46 72.7062C65.0917 73.3041 65.5927 74.0139 65.9346 74.7951C66.2764 75.5763 66.4524 76.4135 66.4524 77.2591V78.0493ZM54.5841 76.4689H64.7159C64.5157 75.334 63.8968 74.3032 62.9692 73.5596C62.0417 72.8161 60.8655 72.408 59.65 72.408C58.4345 72.408 57.2584 72.8161 56.3308 73.5596C55.4032 74.3032 54.7843 75.334 54.5841 76.4689Z" fill="#00388C"/>
<path d="M90.1584 55.7243H53.8591C53.2837 55.7235 52.7321 55.5068 52.3252 55.1216C51.9183 54.7365 51.6894 54.2144 51.6885 53.6697V51.4508C51.6894 50.5708 52.0591 49.7271 52.7164 49.1049C53.3738 48.4826 54.2652 48.1327 55.1949 48.1318H88.8227C89.7524 48.1327 90.6437 48.4826 91.3011 49.1049C91.9585 49.7271 92.3282 50.5708 92.3291 51.4508V53.6634C92.3295 53.9337 92.2737 54.2013 92.1648 54.4511C92.056 54.7009 91.8962 54.928 91.6947 55.1194C91.4931 55.3108 91.2537 55.4627 90.9901 55.5665C90.7265 55.6703 90.4439 55.7239 90.1584 55.7243ZM55.1949 49.7186C54.7077 49.7186 54.2406 49.9018 53.8961 50.2278C53.5517 50.5538 53.3582 50.996 53.3582 51.4571V53.6697C53.3582 53.7955 53.411 53.9161 53.5049 54.005C53.5988 54.0939 53.7262 54.1439 53.8591 54.1439H90.1584C90.2913 54.1439 90.4187 54.0939 90.5126 54.005C90.6066 53.9161 90.6594 53.7955 90.6594 53.6697V51.4508C90.6594 50.9897 90.4658 50.5475 90.1214 50.2215C89.777 49.8955 89.3098 49.7123 88.8227 49.7123L55.1949 49.7186Z" fill="#00388C"/>
<path d="M97.5167 52.8164H95.66C95.1067 52.8164 94.6582 53.241 94.6582 53.7647V63.1241C94.6582 63.6478 95.1067 64.0724 95.66 64.0724H97.5167C98.07 64.0724 98.5185 63.6478 98.5185 63.1241V53.7647C98.5185 53.241 98.07 52.8164 97.5167 52.8164Z" fill="#00388C"/>
<path d="M48.3314 52.8164H46.4647C45.9114 52.8164 45.4629 53.241 45.4629 53.7647V63.1241C45.4629 63.6478 45.9114 64.0724 46.4647 64.0724H48.3314C48.8847 64.0724 49.3333 63.6478 49.3333 63.1241V53.7647C49.3333 53.241 48.8847 52.8164 48.3314 52.8164Z" fill="#00388C"/>
<path d="M94.4737 76.4629H49.542V78.0433H94.4737V76.4629Z" fill="#32996A"/>
</g>
<defs>
<filter id="filter0_d_1345_12399" x="0" y="0" width="156" height="156" filterUnits="userSpaceOnUse" color-interpolation-filters="sRGB">
<feFlood flood-opacity="0" result="BackgroundImageFix"/>
<feColorMatrix in="SourceAlpha" type="matrix" values="0 0 0 0 0 0 0 0 0 0 0 0 0 0 0 0 0 0 127 0" result="hardAlpha"/>
<feOffset dx="6" dy="4"/>
<feGaussianBlur stdDeviation="7"/>
<feComposite in2="hardAlpha" operator="out"/>
<feColorMatrix type="matrix" values="0 0 0 0 0.313872 0 0 0 0 0.420833 0 0 0 0 0.372026 0 0 0 0.15 0"/>
<feBlend mode="normal" in2="BackgroundImageFix" result="effect1_dropShadow_1345_12399"/>
<feBlend mode="normal" in="SourceGraphic" in2="effect1_dropShadow_1345_12399" result="shape"/>
</filter>
<linearGradient id="paint0_linear_1345_12399" x1="72" y1="10" x2="72" y2="138" gradientUnits="userSpaceOnUse">
<stop stop-color="#BDEBE0"/>
<stop offset="0.994792" stop-color="#BFE8FB"/>
</linearGradient>
<clipPath id="clip0_1345_12399">
<rect width="53.0732" height="57.7561" fill="white" transform="translate(45.4629 44.3418)"/>
</clipPath>
</defs>
</svg>
