<svg width="163" height="163" viewBox="0 0 163 163" fill="none" xmlns="http://www.w3.org/2000/svg">
<g filter="url(#filter0_d_199_2047)">
<circle cx="81.5" cy="76.5" r="68.5" fill="#F1F2F4"/>
</g>
<path d="M91.1057 46.5996H57.5606C56.2453 46.6007 54.9842 47.1236 54.0542 48.0537C53.1241 48.9837 52.6011 50.2448 52.6001 51.5601V100.439C52.6022 101.754 53.1255 103.015 54.0554 103.944C54.9852 104.874 56.2457 105.398 57.5606 105.4H91.1057C92.4206 105.398 93.6811 104.874 94.611 103.944C95.5408 103.015 96.0641 101.754 96.0662 100.439V89.7682C95.7884 89.7682 95.5106 89.792 95.2288 89.792C94.832 89.792 94.459 89.7919 94.082 89.7443V100.439C94.0799 101.228 93.7656 101.984 93.2079 102.542C92.6502 103.099 91.8944 103.413 91.1057 103.415H57.5606C56.7716 103.414 56.0152 103.101 55.4572 102.543C54.8993 101.985 54.5854 101.228 54.5843 100.439V51.5601C54.5843 50.7708 54.8979 50.0138 55.4561 49.4556C56.0142 48.8974 56.7713 48.5838 57.5606 48.5838H91.1057C91.8947 48.5849 92.6511 48.8988 93.2091 49.4568C93.767 50.0147 94.0809 50.7711 94.082 51.5601V62.4615C94.4788 62.4297 94.8439 62.4138 95.2288 62.4138C95.5106 62.4138 95.7884 62.4138 96.0662 62.4376V51.5601C96.0651 50.2448 95.5422 48.9837 94.6121 48.0537C93.6821 47.1236 92.4209 46.6007 91.1057 46.5996Z" fill="#00388C"/>
<path d="M96.0662 60.4535C95.7884 60.4535 95.5106 60.4297 95.2289 60.4297C94.832 60.4297 94.459 60.4296 94.082 60.4733C90.1339 60.7618 86.4413 62.5337 83.7461 65.433C81.0508 68.3324 79.5527 72.1444 79.5527 76.103C79.5527 80.0616 81.0508 83.8734 83.7461 86.7728C86.4413 89.6721 90.1339 91.444 94.082 91.7325C94.4788 91.7603 94.8439 91.7763 95.2289 91.7763C95.5106 91.7763 95.7884 91.7763 96.0662 91.7525C100.074 91.5407 103.847 89.7995 106.609 86.8879C109.371 83.9762 110.911 80.1161 110.911 76.103C110.911 72.0899 109.371 68.2296 106.609 65.3179C103.847 62.4063 100.074 60.6653 96.0662 60.4535ZM96.0662 89.7683C95.7884 89.7683 95.5106 89.7921 95.2289 89.7921C94.832 89.7921 94.459 89.7921 94.082 89.7444C90.6649 89.4528 87.4817 87.8891 85.1621 85.3631C82.8425 82.837 81.5554 79.5325 81.5554 76.103C81.5554 72.6735 82.8425 69.3688 85.1621 66.8427C87.4817 64.3167 90.6649 62.7532 94.082 62.4616C94.4788 62.4298 94.8439 62.4139 95.2289 62.4139C95.5106 62.4139 95.7884 62.4139 96.0662 62.4377C99.5453 62.6516 102.812 64.1843 105.2 66.7235C107.588 69.2628 108.917 72.6173 108.917 76.103C108.917 79.5887 107.588 82.943 105.2 85.4823C102.812 88.0215 99.5453 89.5544 96.0662 89.7683Z" fill="#00388C"/>
<path d="M97.9988 86.4666C97.8606 86.4665 97.7238 86.4376 97.5974 86.3815C97.471 86.3255 97.3576 86.2437 97.2647 86.1412L90.0739 78.2282C89.8971 78.033 89.8051 77.7755 89.8181 77.5125C89.8311 77.2494 89.9482 77.0022 90.1434 76.8254C90.3386 76.6485 90.5961 76.5566 90.8592 76.5696C91.1223 76.5826 91.3694 76.6997 91.5462 76.8949L98.733 84.8079C98.8621 84.9502 98.9471 85.1267 98.9777 85.3164C99.0084 85.506 98.9833 85.7005 98.9055 85.8762C98.8278 86.0518 98.7008 86.2011 98.5398 86.3059C98.3789 86.4108 98.1909 86.4665 97.9988 86.4666Z" fill="#00A450"/>
<path d="M92.9232 78.272C91.9513 78.2634 90.9814 78.1798 90.0223 78.022C89.8924 78.0033 89.7674 77.9591 89.6547 77.8918C89.542 77.8245 89.4438 77.7354 89.3657 77.6298C89.2877 77.5243 89.2314 77.4042 89.2001 77.2768C89.1687 77.1493 89.163 77.0168 89.1832 76.8871C89.2034 76.7574 89.2492 76.6331 89.3178 76.5213C89.3865 76.4094 89.4766 76.312 89.5831 76.2352C89.6896 76.1585 89.8103 76.1037 89.9381 76.0738C90.0659 76.044 90.1984 76.0399 90.3279 76.0616C93.1335 76.5021 95.1376 76.2918 96.1178 75.4505C96.9115 74.7679 97.0107 73.6885 97.0067 72.621C97.0067 71.4702 96.6535 70.6368 95.9472 70.0416C94.3995 68.7598 91.3874 68.978 90.3556 69.1684C90.1024 69.2048 89.845 69.142 89.637 68.9931C89.4291 68.8441 89.2867 68.6206 89.2396 68.3691C89.1924 68.1177 89.2443 67.8578 89.3842 67.6437C89.5241 67.4295 89.7414 67.2777 89.9906 67.2199C90.1771 67.1842 94.6217 66.3746 97.2051 68.5096C98.3956 69.4779 98.983 70.8591 98.9909 72.6131C98.9909 73.502 98.9909 75.5815 97.4035 76.9545C96.3757 77.8355 94.9035 78.272 92.9232 78.272Z" fill="#00A450"/>
<path d="M100.916 69.1873H89.5461C89.2829 69.1873 89.0306 69.0829 88.8445 68.8969C88.6585 68.7108 88.554 68.4584 88.554 68.1952C88.554 67.9321 88.6585 67.6798 88.8445 67.4938C89.0306 67.3077 89.2829 67.2031 89.5461 67.2031H100.916C101.179 67.2031 101.431 67.3077 101.617 67.4938C101.803 67.6798 101.908 67.9321 101.908 68.1952C101.908 68.4584 101.803 68.7108 101.617 68.8969C101.431 69.0829 101.179 69.1873 100.916 69.1873Z" fill="#00A450"/>
<path d="M100.916 74.0096H89.5461C89.2829 74.0096 89.0306 73.905 88.8445 73.7189C88.6585 73.5329 88.554 73.2806 88.554 73.0175C88.554 72.7544 88.6585 72.5019 88.8445 72.3159C89.0306 72.1298 89.2829 72.0254 89.5461 72.0254H100.916C101.179 72.0254 101.431 72.1298 101.617 72.3159C101.803 72.5019 101.908 72.7544 101.908 73.0175C101.908 73.2806 101.803 73.5329 101.617 73.7189C101.431 73.905 101.179 74.0096 100.916 74.0096Z" fill="#00A450"/>
<path d="M62.0608 66.8303C61.8651 66.8299 61.6739 66.7717 61.5113 66.6629C61.3486 66.5541 61.2218 66.3997 61.1467 66.219C61.0717 66.0383 61.0517 65.8394 61.0893 65.6474C61.127 65.4554 61.2206 65.2788 61.3583 65.1399L71.9064 54.5879C72.0927 54.4016 72.3453 54.2969 72.6088 54.2969C72.8722 54.2969 73.1249 54.4016 73.3112 54.5879C73.4975 54.7742 73.6022 55.0267 73.6022 55.2901C73.6022 55.5536 73.4975 55.8063 73.3112 55.9926L62.7592 66.5406C62.668 66.6331 62.5592 66.7066 62.4393 66.7563C62.3193 66.8061 62.1906 66.8311 62.0608 66.8303Z" fill="#00388C"/>
<path d="M63.2276 59.3775C64.8385 59.3775 66.1443 58.0716 66.1443 56.4607C66.1443 54.8498 64.8385 53.5439 63.2276 53.5439C61.6167 53.5439 60.3108 54.8498 60.3108 56.4607C60.3108 58.0716 61.6167 59.3775 63.2276 59.3775Z" fill="#00388C"/>
<path d="M71.8866 68.0367C73.4974 68.0367 74.8033 66.7308 74.8033 65.1199C74.8033 63.509 73.4974 62.2031 71.8866 62.2031C70.2757 62.2031 68.9697 63.509 68.9697 65.1199C68.9697 66.7308 70.2757 68.0367 71.8866 68.0367Z" fill="#00388C"/>
<path d="M73.3946 77.0965H59.3861C59.123 77.0965 58.8707 76.9919 58.6846 76.8059C58.4985 76.6198 58.394 76.3675 58.394 76.1044C58.394 75.8413 58.4985 75.589 58.6846 75.403C58.8707 75.2169 59.123 75.1123 59.3861 75.1123H73.3946C73.6578 75.1123 73.9101 75.2169 74.0962 75.403C74.2822 75.589 74.3867 75.8413 74.3867 76.1044C74.3867 76.3675 74.2822 76.6198 74.0962 76.8059C73.9101 76.9919 73.6578 77.0965 73.3946 77.0965Z" fill="#00388C"/>
<path d="M73.3946 86.4666H59.3861C59.123 86.4666 58.8707 86.3622 58.6846 86.1762C58.4985 85.9901 58.394 85.7377 58.394 85.4745C58.394 85.2114 58.4985 84.9591 58.6846 84.7731C58.8707 84.587 59.123 84.4824 59.3861 84.4824H73.3946C73.6578 84.4824 73.9101 84.587 74.0962 84.7731C74.2822 84.9591 74.3867 85.2114 74.3867 85.4745C74.3867 85.7377 74.2822 85.9901 74.0962 86.1762C73.9101 86.3622 73.6578 86.4666 73.3946 86.4666Z" fill="#00388C"/>
<path d="M87.7365 96.4315H59.3861C59.123 96.4315 58.8707 96.3269 58.6846 96.1408C58.4985 95.9548 58.394 95.7025 58.394 95.4394C58.394 95.1762 58.4985 94.9238 58.6846 94.7377C58.8707 94.5517 59.123 94.4473 59.3861 94.4473H87.7365C87.9996 94.4473 88.252 94.5517 88.438 94.7377C88.6241 94.9238 88.7286 95.1762 88.7286 95.4394C88.7286 95.7025 88.6241 95.9548 88.438 96.1408C88.252 96.3269 87.9996 96.4315 87.7365 96.4315Z" fill="#00388C"/>
<defs>
<filter id="filter0_d_199_2047" x="0" y="0" width="163" height="163" filterUnits="userSpaceOnUse" color-interpolation-filters="sRGB">
<feFlood flood-opacity="0" result="BackgroundImageFix"/>
<feColorMatrix in="SourceAlpha" type="matrix" values="0 0 0 0 0 0 0 0 0 0 0 0 0 0 0 0 0 0 127 0" result="hardAlpha"/>
<feOffset dy="5"/>
<feGaussianBlur stdDeviation="6.5"/>
<feComposite in2="hardAlpha" operator="out"/>
<feColorMatrix type="matrix" values="0 0 0 0 0 0 0 0 0 0 0 0 0 0 0 0 0 0 0.1 0"/>
<feBlend mode="normal" in2="BackgroundImageFix" result="effect1_dropShadow_199_2047"/>
<feBlend mode="normal" in="SourceGraphic" in2="effect1_dropShadow_199_2047" result="shape"/>
</filter>
</defs>
</svg>
