<svg width="148" height="179" viewBox="0 0 148 179" fill="none" xmlns="http://www.w3.org/2000/svg">
<path d="M36.064 173V156.248H46.528V158.648H38.776V163.304H45.664V165.704H38.776V173H36.064ZM52.2235 173C51.3275 173 50.6555 172.776 50.2075 172.328C49.7755 171.864 49.5595 171.224 49.5595 170.408V155.24H52.1755V170.864H53.9035V173H52.2235ZM57.7233 158.288C57.1793 158.288 56.7793 158.16 56.5233 157.904C56.2833 157.648 56.1633 157.32 56.1633 156.92V156.512C56.1633 156.112 56.2833 155.784 56.5233 155.528C56.7793 155.272 57.1793 155.144 57.7233 155.144C58.2673 155.144 58.6593 155.272 58.8993 155.528C59.1393 155.784 59.2593 156.112 59.2593 156.512V156.92C59.2593 157.32 59.1393 157.648 58.8993 157.904C58.6593 158.16 58.2673 158.288 57.7233 158.288ZM56.4033 160.52H59.0193V173H56.4033V160.52ZM73.6988 174.176C73.6988 175.472 73.2028 176.448 72.2108 177.104C71.2188 177.76 69.6028 178.088 67.3628 178.088C66.3388 178.088 65.4668 178.016 64.7468 177.872C64.0428 177.744 63.4588 177.552 62.9948 177.296C62.5468 177.04 62.2188 176.728 62.0108 176.36C61.8028 175.992 61.6988 175.568 61.6988 175.088C61.6988 174.4 61.8828 173.864 62.2508 173.48C62.6348 173.096 63.1628 172.832 63.8348 172.688V172.424C62.8908 172.12 62.4188 171.48 62.4188 170.504C62.4188 169.864 62.6348 169.376 63.0668 169.04C63.4988 168.688 64.0188 168.44 64.6268 168.296V168.2C63.8908 167.848 63.3228 167.36 62.9228 166.736C62.5388 166.096 62.3468 165.352 62.3468 164.504C62.3468 163.224 62.7708 162.192 63.6188 161.408C64.4828 160.624 65.7148 160.232 67.3148 160.232C68.1948 160.232 68.9468 160.36 69.5708 160.616V160.28C69.5708 159.72 69.6988 159.288 69.9548 158.984C70.2268 158.664 70.6428 158.504 71.2028 158.504H73.1228V160.616H70.5788V161.12C71.1388 161.488 71.5708 161.968 71.8748 162.56C72.1788 163.136 72.3308 163.784 72.3308 164.504C72.3308 165.768 71.8988 166.792 71.0348 167.576C70.1708 168.344 68.9388 168.728 67.3388 168.728C66.7308 168.728 66.1868 168.664 65.7068 168.536C65.3868 168.648 65.1068 168.808 64.8668 169.016C64.6268 169.208 64.5068 169.464 64.5068 169.784C64.5068 170.12 64.6588 170.36 64.9628 170.504C65.2668 170.648 65.6988 170.72 66.2588 170.72H69.3308C70.8668 170.72 71.9788 171.032 72.6668 171.656C73.3548 172.264 73.6988 173.104 73.6988 174.176ZM71.2508 174.464C71.2508 174.032 71.0828 173.688 70.7468 173.432C70.4268 173.176 69.8348 173.048 68.9708 173.048H64.7468C64.1708 173.384 63.8828 173.864 63.8828 174.488C63.8828 175 64.0828 175.408 64.4828 175.712C64.8988 176.032 65.5948 176.192 66.5708 176.192H68.2028C70.2348 176.192 71.2508 175.616 71.2508 174.464ZM67.3388 166.832C68.1068 166.832 68.6988 166.664 69.1148 166.328C69.5468 165.976 69.7628 165.44 69.7628 164.72V164.24C69.7628 163.52 69.5468 162.992 69.1148 162.656C68.6988 162.304 68.1068 162.128 67.3388 162.128C66.5708 162.128 65.9708 162.304 65.5388 162.656C65.1228 162.992 64.9148 163.52 64.9148 164.24V164.72C64.9148 165.44 65.1228 165.976 65.5388 166.328C65.9708 166.664 66.5708 166.832 67.3388 166.832ZM75.6454 155.24H78.2614V162.584H78.3814C78.6534 161.912 79.0614 161.352 79.6054 160.904C80.1654 160.456 80.9254 160.232 81.8854 160.232C83.1654 160.232 84.1574 160.656 84.8614 161.504C85.5814 162.336 85.9414 163.528 85.9414 165.08V173H83.3254V165.392C83.3254 163.456 82.5414 162.488 80.9734 162.488C80.6374 162.488 80.3014 162.536 79.9654 162.632C79.6454 162.712 79.3574 162.84 79.1014 163.016C78.8454 163.192 78.6374 163.416 78.4774 163.688C78.3334 163.96 78.2614 164.272 78.2614 164.624V173H75.6454V155.24ZM93.0233 173C92.1113 173 91.4233 172.768 90.9593 172.304C90.4953 171.824 90.2633 171.152 90.2633 170.288V162.656H88.3193V160.52H89.3753C89.8073 160.52 90.1033 160.424 90.2633 160.232C90.4393 160.04 90.5273 159.728 90.5273 159.296V157.112H92.8793V160.52H95.4953V162.656H92.8793V170.864H95.3033V173H93.0233ZM102.293 173.288C101.109 173.288 100.117 173.08 99.3169 172.664C98.5169 172.248 97.8209 171.672 97.2289 170.936L98.9089 169.4C99.3729 169.96 99.8849 170.4 100.445 170.72C101.021 171.024 101.685 171.176 102.437 171.176C103.205 171.176 103.773 171.032 104.141 170.744C104.525 170.44 104.717 170.024 104.717 169.496C104.717 169.096 104.581 168.76 104.309 168.488C104.053 168.2 103.597 168.016 102.941 167.936L101.789 167.792C100.509 167.632 99.5009 167.264 98.7649 166.688C98.0449 166.096 97.6849 165.224 97.6849 164.072C97.6849 163.464 97.7969 162.928 98.0209 162.464C98.2449 161.984 98.5569 161.584 98.9569 161.264C99.3729 160.928 99.8609 160.672 100.421 160.496C100.997 160.32 101.629 160.232 102.317 160.232C103.437 160.232 104.349 160.408 105.053 160.76C105.773 161.112 106.413 161.6 106.973 162.224L105.365 163.76C105.045 163.376 104.621 163.048 104.093 162.776C103.581 162.488 102.989 162.344 102.317 162.344C101.597 162.344 101.061 162.488 100.709 162.776C100.373 163.064 100.205 163.44 100.205 163.904C100.205 164.384 100.357 164.744 100.661 164.984C100.965 165.224 101.453 165.4 102.125 165.512L103.277 165.656C104.653 165.864 105.653 166.272 106.277 166.88C106.917 167.472 107.237 168.272 107.237 169.28C107.237 169.888 107.117 170.44 106.877 170.936C106.653 171.416 106.325 171.832 105.893 172.184C105.461 172.536 104.941 172.808 104.333 173C103.725 173.192 103.045 173.288 102.293 173.288Z" fill="white"/>
<g filter="url(#filter0_d_1345_12519)">
<circle cx="70" cy="68" r="64" transform="rotate(-90 70 68)" fill="white"/>
<circle cx="70" cy="68" r="63.5" transform="rotate(-90 70 68)" stroke="url(#paint0_linear_1345_12519)"/>
</g>
<g clip-path="url(#clip0_1345_12519)">
<path opacity="0.17" d="M111.194 55.5951L102.21 52.1964C100.99 51.7343 99.6554 51.7231 98.4283 52.1647L71.2879 61.782L78.4062 59.0927L59.0115 50.7529C58.7044 50.6216 58.3804 50.5383 58.05 50.5059C58.05 50.5059 53.9646 50.8588 53.7352 51.3035C53.6295 51.508 53.591 51.7432 53.6258 51.9728C53.6605 52.2024 53.7666 52.4138 53.9275 52.5741L65.2695 63.9137L43.2603 71.7135L29.8503 64.5631C29.6413 64.4699 29.4164 64.4219 29.1891 64.4219C28.9619 64.4219 28.737 64.4699 28.5279 64.5631L26.2035 65.6219C26.0452 65.6896 25.9058 65.7981 25.7984 65.9374C25.6911 66.0767 25.6192 66.2422 25.5895 66.4185C25.5599 66.5947 25.5734 66.776 25.6289 66.9452C25.6843 67.1145 25.7799 67.2664 25.9066 67.3865L34.263 74.9216L32.8292 75.4298L31.6012 75.8886C29.847 76.5521 29.1048 78.8991 30.1135 80.6073C30.5959 81.4261 31.4629 82.3719 32.3333 82.2025L38.9117 80.2226C39.0601 80.1979 39.2106 80.1908 39.3604 80.2014L57.7228 82.1919C58.6036 82.2566 59.4879 82.1366 60.3238 81.839L68.525 78.9591L54.447 94.6221C54.3827 94.8708 54.3731 95.1315 54.4189 95.3846C54.4646 95.6377 54.5647 95.8767 54.7114 96.0835C54.8582 96.2904 55.0479 96.4598 55.2662 96.5789C55.4845 96.6981 55.7258 96.7639 55.9719 96.7715L60.9311 96.1397C61.1767 96.1468 61.4207 96.0959 61.645 95.9908C61.8692 95.8858 62.068 95.7292 62.2265 95.5327L87.0189 72.4581L112.945 63.3561C113.328 63.2116 113.665 62.9584 113.918 62.6249C114.171 62.2915 114.331 61.8908 114.379 61.4679C114.713 58.8809 113.38 56.4245 111.194 55.5951Z" fill="white"/>
<path d="M65.1645 64.6808L53.357 52.8576C53.0656 52.5617 52.8749 52.1742 52.814 51.7542C52.7531 51.3342 52.8253 50.9049 53.0196 50.5318C53.2187 50.1471 53.4649 49.6707 58.0058 49.2754H58.08H58.1576C58.5704 49.316 58.9752 49.4207 59.3586 49.586L80.774 58.7974L65.1645 64.6808ZM54.4804 51.5483C54.4863 51.5623 54.4956 51.5745 54.5074 51.5836L65.5727 62.6479L76.0578 58.688L58.6872 51.22C58.4792 51.1289 58.2601 51.0683 58.0361 51.04C56.842 51.133 55.6546 51.3028 54.4804 51.5483Z" fill="#00388C"/>
<path d="M32.1302 83.0824C30.7099 83.0824 29.6911 81.5507 29.3942 81.053C29.0862 80.5233 28.896 79.9279 28.8376 79.3109C28.7792 78.6939 28.8541 78.0711 29.0569 77.4884C29.2366 76.9282 29.5342 76.4173 29.9277 75.9934C30.3212 75.5695 30.8006 75.2434 31.3307 75.0391L32.5587 74.5768L33.7057 74.1709L34.2454 75.8438L33.1119 76.2426L31.9008 76.7014C31.6074 76.817 31.3426 77 31.126 77.237C30.9094 77.474 30.7464 77.759 30.6492 78.0708C30.532 78.4063 30.4884 78.7651 30.5217 79.1207C30.555 79.4763 30.6643 79.8194 30.8415 80.1248C31.2565 80.8307 31.8333 81.3318 32.1909 81.3177L38.8031 79.3343C39.0158 79.2956 39.2323 79.2849 39.4475 79.3025L57.8369 81.293C58.5976 81.3492 59.3615 81.2459 60.0836 80.9895L68.1364 78.166L68.6728 79.839L60.6201 82.6624C59.6776 82.9961 58.6806 83.1281 57.6884 83.0506L39.2991 81.0601C39.2384 81.0553 39.1775 81.0553 39.1169 81.0601L32.4979 83.0471C32.3767 83.0709 32.2536 83.0827 32.1302 83.0824Z" fill="#00388C"/>
<path d="M87.4016 73.2005L86.8686 71.5276L112.676 62.535C112.911 62.4429 113.116 62.2846 113.269 62.0777C113.422 61.8708 113.517 61.6234 113.543 61.3632C113.823 59.1963 112.714 57.1281 110.909 56.4222L101.925 53.0235C100.886 52.6278 99.7483 52.6179 98.7031 52.9953L43.8791 72.4064L43.3359 70.7371L98.1599 51.3259C99.5697 50.825 101.1 50.8387 102.502 51.3647L111.482 54.7635C114.029 55.727 115.601 58.5963 115.213 61.5821C115.144 62.1688 114.92 62.7238 114.566 63.1846C114.212 63.6454 113.742 63.9936 113.209 64.1902L87.4016 73.2005Z" fill="#00388C"/>
<path d="M105.436 52.8015L99.7886 54.6261C99.7886 54.6261 97.6868 55.7555 99.1139 58.0495C99.1139 58.0495 100.126 59.5072 101.674 59.0166L111.873 55.8402C111.956 55.814 112.03 55.7635 112.086 55.6948C112.142 55.6262 112.179 55.5421 112.191 55.4525C112.204 55.3628 112.191 55.2713 112.156 55.1887C112.12 55.1062 112.063 55.0359 111.991 54.9861C110.07 53.6906 107.862 52.9346 105.581 52.7909C105.532 52.7865 105.483 52.79 105.436 52.8015Z" fill="#00388C"/>
<path d="M55.9752 97.6556H55.9348C55.5614 97.6442 55.1953 97.5444 54.8641 97.3636C54.5329 97.1827 54.2453 96.9257 54.0228 96.6117C53.8003 96.2978 53.6488 95.9351 53.5797 95.5511C53.5106 95.167 53.5257 94.7716 53.6239 94.3945C53.6588 94.2541 53.7273 94.1254 53.8229 94.0204L71.7028 74.108C71.8026 73.9967 71.9281 73.914 72.0672 73.8681L90.9592 67.6883C91.1431 67.6284 91.341 67.6362 91.52 67.7103C91.699 67.7844 91.8485 67.9203 91.9434 68.0955C92.0384 68.2708 92.0732 68.4747 92.0421 68.6735C92.0109 68.8723 91.9157 69.0539 91.7722 69.1882L62.8337 96.1415C62.6021 96.4151 62.3174 96.6341 61.9987 96.7838C61.6799 96.9334 61.3344 97.0104 60.985 97.0097L56.0832 97.6379L55.9752 97.6556ZM55.2364 95.0368C55.2294 95.2471 55.299 95.4523 55.4312 95.6108C55.5633 95.7694 55.7482 95.8696 55.9482 95.8909L60.8298 95.2627C60.8736 95.2592 60.9176 95.2592 60.9614 95.2627C61.0799 95.2667 61.1977 95.2425 61.3058 95.1917C61.414 95.1409 61.5096 95.065 61.5855 94.9698C61.6119 94.9375 61.64 94.9068 61.6698 94.878L87.7543 70.5964L72.8026 75.4845L55.2364 95.0368Z" fill="#00388C"/>
<path d="M89.5565 62.574C90.4862 62.574 91.2399 61.7855 91.2399 60.8129C91.2399 59.8402 90.4862 59.0518 89.5565 59.0518C88.6267 59.0518 87.873 59.8402 87.873 60.8129C87.873 61.7855 88.6267 62.574 89.5565 62.574Z" fill="#32996A"/>
<path d="M80.9891 65.7576C81.9188 65.7576 82.6725 64.9691 82.6725 63.9965C82.6725 63.0238 81.9188 62.2354 80.9891 62.2354C80.0593 62.2354 79.3057 63.0238 79.3057 63.9965C79.3057 64.9691 80.0593 65.7576 80.9891 65.7576Z" fill="#32996A"/>
<path d="M72.4217 69.3181C73.3514 69.3181 74.1051 68.5297 74.1051 67.557C74.1051 66.5844 73.3514 65.7959 72.4217 65.7959C71.492 65.7959 70.7383 66.5844 70.7383 67.557C70.7383 68.5297 71.492 69.3181 72.4217 69.3181Z" fill="#32996A"/>
<path d="M63.8612 72.3504C64.7909 72.3504 65.5446 71.5619 65.5446 70.5892C65.5446 69.6166 64.7909 68.8281 63.8612 68.8281C62.9314 68.8281 62.1777 69.6166 62.1777 70.5892C62.1777 71.5619 62.9314 72.3504 63.8612 72.3504Z" fill="#32996A"/>
<path d="M55.3006 75.0115C56.2303 75.0115 56.984 74.223 56.984 73.2504C56.984 72.2777 56.2303 71.4893 55.3006 71.4893C54.3709 71.4893 53.6172 72.2777 53.6172 73.2504C53.6172 74.223 54.3709 75.0115 55.3006 75.0115Z" fill="#32996A"/>
<path d="M36.6445 77.8239C36.4322 77.8225 36.2231 77.7688 36.0344 77.667C35.8456 77.5652 35.6825 77.4182 35.5582 77.238L25.3532 68.0407C25.1186 67.8215 24.941 67.5436 24.837 67.2331C24.733 66.9225 24.706 66.5894 24.7586 66.265C24.8112 65.9406 24.9416 65.6354 25.1376 65.3781C25.3337 65.1208 25.5889 64.9197 25.8795 64.7937L28.187 63.7349C28.5031 63.5935 28.8434 63.5205 29.1873 63.5205C29.5311 63.5205 29.8714 63.5935 30.1875 63.7349L30.2314 63.7561L45.2775 71.7817L45.372 71.877C45.5319 72.0413 45.6494 72.2454 45.7132 72.4702C45.7771 72.6949 45.7853 72.933 45.7371 73.162C45.6888 73.391 45.5858 73.6035 45.4375 73.7793C45.2893 73.9552 45.1007 74.0888 44.8896 74.1675L37.0359 77.7604C36.9093 77.8024 36.7773 77.8239 36.6445 77.8239ZM29.1687 65.2949C29.0588 65.2957 28.95 65.3184 28.8482 65.3619L26.5373 66.4207C26.5073 66.431 26.4805 66.4495 26.4597 66.4743C26.439 66.4992 26.425 66.5294 26.4192 66.5619C26.4136 66.5915 26.4156 66.6222 26.4251 66.6507C26.4346 66.6793 26.4512 66.7047 26.4732 66.7242L36.7424 75.978L43.5637 72.8722L29.4892 65.3655C29.3875 65.3211 29.2788 65.2971 29.1687 65.2949Z" fill="#00388C"/>
<path d="M88.2922 76.4617C88.3677 77.0227 88.3937 77.5898 88.3698 78.1557C88.3584 78.5022 88.2256 78.8321 87.9967 79.0827C87.7677 79.3333 87.4586 79.487 87.1283 79.5145C85.9274 79.6098 83.9842 79.751 82.2805 79.7933C82.0154 79.7978 81.755 79.7205 81.5316 79.571L79.666 78.3287L81.6902 76.4334L86.6561 75.2864C86.8379 75.243 87.0263 75.2394 87.2095 75.276C87.3927 75.3126 87.5666 75.3884 87.7204 75.4989C87.8741 75.6093 88.0043 75.7519 88.1027 75.9176C88.2011 76.0833 88.2657 76.2686 88.2922 76.4617Z" fill="#00388C"/>
<path d="M78.3626 85.0068C78.4015 85.3853 78.4162 85.7662 78.4064 86.1468C78.3941 86.4932 78.2605 86.8227 78.0309 87.0726C77.8014 87.3226 77.4919 87.4754 77.1616 87.502C76.109 87.5867 74.5099 87.6962 73.0897 87.7314C72.8249 87.737 72.5644 87.6609 72.3407 87.5126L70.7383 86.4538L72.5297 84.7845L76.7297 83.8174C76.9123 83.7746 77.1014 83.7719 77.285 83.8096C77.4686 83.8473 77.6427 83.9245 77.7962 84.0364C77.9498 84.1482 78.0794 84.2922 78.1769 84.4593C78.2744 84.6264 78.3376 84.8128 78.3626 85.0068Z" fill="#00388C"/>
</g>
<defs>
<filter id="filter0_d_1345_12519" x="0" y="0" width="148" height="148" filterUnits="userSpaceOnUse" color-interpolation-filters="sRGB">
<feFlood flood-opacity="0" result="BackgroundImageFix"/>
<feColorMatrix in="SourceAlpha" type="matrix" values="0 0 0 0 0 0 0 0 0 0 0 0 0 0 0 0 0 0 127 0" result="hardAlpha"/>
<feOffset dx="4" dy="6"/>
<feGaussianBlur stdDeviation="5"/>
<feComposite in2="hardAlpha" operator="out"/>
<feColorMatrix type="matrix" values="0 0 0 0 0.313872 0 0 0 0 0.420833 0 0 0 0 0.372026 0 0 0 0.33 0"/>
<feBlend mode="normal" in2="BackgroundImageFix" result="effect1_dropShadow_1345_12519"/>
<feBlend mode="normal" in="SourceGraphic" in2="effect1_dropShadow_1345_12519" result="shape"/>
</filter>
<linearGradient id="paint0_linear_1345_12519" x1="70" y1="4" x2="70" y2="132" gradientUnits="userSpaceOnUse">
<stop stop-color="#BDEBE0"/>
<stop offset="0.994792" stop-color="#BFE8FB"/>
</linearGradient>
<clipPath id="clip0_1345_12519">
<rect width="90.5366" height="48.3902" fill="white" transform="translate(24.7324 49.2686)"/>
</clipPath>
</defs>
</svg>
