<svg width="50" height="50" viewBox="0 0 50 50" fill="none" xmlns="http://www.w3.org/2000/svg">
<circle cx="25" cy="25" r="25" fill="#00388C" fill-opacity="0.1"/>
<g clip-path="url(#clip0_1345_11792)">
<path d="M25.335 24.5837C26.8721 24.5837 28.1181 23.3112 28.1181 21.7416C28.1181 20.1719 26.8721 18.8994 25.335 18.8994C23.7978 18.8994 22.5518 20.1719 22.5518 21.7416C22.5518 23.3112 23.7978 24.5837 25.335 24.5837Z" fill="#1E54B0"/>
<path d="M25.3352 10.75C19.7688 10.75 15.25 15.1153 15.25 20.4698C15.25 23.1707 16.7667 26.9236 19.7531 31.6186C21.9109 35.0103 24.0218 37.6483 24.1156 37.7583L25.3352 39.2657L26.5548 37.7583C26.6486 37.6483 28.7594 35.0103 30.9172 31.6186C33.9037 26.9079 35.4203 23.155 35.4203 20.4698C35.4047 15.1153 30.8859 10.75 25.3352 10.75ZM25.3352 36.769C25.3352 36.769 16.8136 26.2326 16.8136 20.4698C16.8136 15.9632 20.6288 12.3202 25.3352 12.3202C30.0416 12.3202 33.8567 15.9632 33.8567 20.4698C33.8411 26.2326 25.3352 36.769 25.3352 36.769Z" fill="#1E54B0"/>
</g>
<defs>
<clipPath id="clip0_1345_11792">
<rect width="20.1547" height="28.5" fill="white" transform="translate(15.25 10.75)"/>
</clipPath>
</defs>
</svg>
