<svg width="163" height="206" viewBox="0 0 163 206" fill="none" xmlns="http://www.w3.org/2000/svg">
<path d="M38.3894 185.648V200H35.6774V185.648H30.6854V183.248H43.3814V185.648H38.3894ZM53.2894 200C52.6014 200 52.0734 199.808 51.7054 199.424C51.3374 199.024 51.1134 198.52 51.0334 197.912H50.9134C50.6734 198.696 50.2334 199.288 49.5934 199.688C48.9534 200.088 48.1774 200.288 47.2654 200.288C45.9694 200.288 44.9694 199.952 44.2654 199.28C43.5774 198.608 43.2334 197.704 43.2334 196.568C43.2334 195.32 43.6814 194.384 44.5774 193.76C45.4894 193.136 46.8174 192.824 48.5614 192.824H50.8174V191.768C50.8174 191 50.6094 190.408 50.1934 189.992C49.7774 189.576 49.1294 189.368 48.2494 189.368C47.5134 189.368 46.9134 189.528 46.4494 189.848C45.9854 190.168 45.5934 190.576 45.2734 191.072L43.7134 189.656C44.1294 188.952 44.7134 188.376 45.4654 187.928C46.2174 187.464 47.2014 187.232 48.4174 187.232C50.0334 187.232 51.2734 187.608 52.1374 188.36C53.0014 189.112 53.4334 190.192 53.4334 191.6V197.864H54.7534V200H53.2894ZM48.0094 198.296C48.8254 198.296 49.4974 198.12 50.0254 197.768C50.5534 197.4 50.8174 196.912 50.8174 196.304V194.504H48.6094C46.8014 194.504 45.8974 195.064 45.8974 196.184V196.616C45.8974 197.176 46.0814 197.6 46.4494 197.888C46.8334 198.16 47.3534 198.296 48.0094 198.296ZM55.9253 200L60.3173 193.688L56.0453 187.52H59.0693L61.8773 191.864H61.9493L64.8293 187.52H67.6133L63.3413 193.664L67.6853 200H64.6613L61.7813 195.464H61.7093L58.7093 200H55.9253ZM75.9078 200V183.248H86.3718V185.648H78.6198V190.304H85.5078V192.704H78.6198V200H75.9078ZM90.7233 185.288C90.1793 185.288 89.7793 185.16 89.5233 184.904C89.2833 184.648 89.1633 184.32 89.1633 183.92V183.512C89.1633 183.112 89.2833 182.784 89.5233 182.528C89.7793 182.272 90.1793 182.144 90.7233 182.144C91.2673 182.144 91.6593 182.272 91.8993 182.528C92.1393 182.784 92.2593 183.112 92.2593 183.512V183.92C92.2593 184.32 92.1393 184.648 91.8993 184.904C91.6593 185.16 91.2673 185.288 90.7233 185.288ZM89.4033 187.52H92.0193V200H89.4033V187.52ZM98.4188 200C97.5228 200 96.8508 199.776 96.4028 199.328C95.9708 198.864 95.7548 198.224 95.7548 197.408V182.24H98.3708V197.864H100.099V200H98.4188ZM103.919 185.288C103.375 185.288 102.975 185.16 102.719 184.904C102.479 184.648 102.359 184.32 102.359 183.92V183.512C102.359 183.112 102.479 182.784 102.719 182.528C102.975 182.272 103.375 182.144 103.919 182.144C104.463 182.144 104.855 182.272 105.095 182.528C105.335 182.784 105.455 183.112 105.455 183.512V183.92C105.455 184.32 105.335 184.648 105.095 184.904C104.855 185.16 104.463 185.288 103.919 185.288ZM102.599 187.52H105.215V200H102.599V187.52ZM108.95 200V187.52H111.566V189.584H111.686C111.958 188.912 112.366 188.352 112.91 187.904C113.47 187.456 114.23 187.232 115.19 187.232C116.47 187.232 117.462 187.656 118.166 188.504C118.886 189.336 119.246 190.528 119.246 192.08V200H116.63V192.416C116.63 190.464 115.846 189.488 114.278 189.488C113.942 189.488 113.606 189.536 113.27 189.632C112.95 189.712 112.662 189.84 112.406 190.016C112.15 190.192 111.942 190.416 111.782 190.688C111.638 190.96 111.566 191.28 111.566 191.648V200H108.95ZM133.816 201.176C133.816 202.472 133.32 203.448 132.328 204.104C131.336 204.76 129.72 205.088 127.48 205.088C126.456 205.088 125.584 205.016 124.864 204.872C124.16 204.744 123.576 204.552 123.112 204.296C122.664 204.04 122.336 203.728 122.128 203.36C121.92 202.992 121.816 202.568 121.816 202.088C121.816 201.4 122 200.864 122.368 200.48C122.752 200.096 123.28 199.832 123.952 199.688V199.424C123.008 199.12 122.536 198.48 122.536 197.504C122.536 196.864 122.752 196.376 123.184 196.04C123.616 195.688 124.136 195.44 124.744 195.296V195.2C124.008 194.848 123.44 194.36 123.04 193.736C122.656 193.096 122.464 192.352 122.464 191.504C122.464 190.224 122.888 189.192 123.736 188.408C124.6 187.624 125.832 187.232 127.432 187.232C128.312 187.232 129.064 187.36 129.688 187.616V187.28C129.688 186.72 129.816 186.288 130.072 185.984C130.344 185.664 130.76 185.504 131.32 185.504H133.24V187.616H130.696V188.12C131.256 188.488 131.688 188.968 131.992 189.56C132.296 190.136 132.448 190.784 132.448 191.504C132.448 192.768 132.016 193.792 131.152 194.576C130.288 195.344 129.056 195.728 127.456 195.728C126.848 195.728 126.304 195.664 125.824 195.536C125.504 195.648 125.224 195.808 124.984 196.016C124.744 196.208 124.624 196.464 124.624 196.784C124.624 197.12 124.776 197.36 125.08 197.504C125.384 197.648 125.816 197.72 126.376 197.72H129.448C130.984 197.72 132.096 198.032 132.784 198.656C133.472 199.264 133.816 200.104 133.816 201.176ZM131.368 201.464C131.368 201.032 131.2 200.688 130.864 200.432C130.544 200.176 129.952 200.048 129.088 200.048H124.864C124.288 200.384 124 200.864 124 201.488C124 202 124.2 202.408 124.6 202.712C125.016 203.032 125.712 203.192 126.688 203.192H128.32C130.352 203.192 131.368 202.616 131.368 201.464ZM127.456 193.832C128.224 193.832 128.816 193.664 129.232 193.328C129.664 192.976 129.88 192.44 129.88 191.72V191.24C129.88 190.52 129.664 189.992 129.232 189.656C128.816 189.304 128.224 189.128 127.456 189.128C126.688 189.128 126.088 189.304 125.656 189.656C125.24 189.992 125.032 190.52 125.032 191.24V191.72C125.032 192.44 125.24 192.976 125.656 193.328C126.088 193.664 126.688 193.832 127.456 193.832Z" fill="white"/>
<g filter="url(#filter0_d_199_2052)">
<circle cx="81.5" cy="76.5" r="68.5" fill="#F1F2F4"/>
</g>
<path d="M91.1057 46.5996H57.5606C56.2453 46.6007 54.9842 47.1236 54.0542 48.0537C53.1241 48.9837 52.6011 50.2448 52.6001 51.5601V100.439C52.6022 101.754 53.1255 103.015 54.0554 103.944C54.9852 104.874 56.2457 105.398 57.5606 105.4H91.1057C92.4206 105.398 93.6811 104.874 94.611 103.944C95.5408 103.015 96.0641 101.754 96.0662 100.439V89.7682C95.7884 89.7682 95.5106 89.792 95.2288 89.792C94.832 89.792 94.459 89.7919 94.082 89.7443V100.439C94.0799 101.228 93.7656 101.984 93.2079 102.542C92.6502 103.099 91.8944 103.413 91.1057 103.415H57.5606C56.7716 103.414 56.0152 103.101 55.4572 102.543C54.8993 101.985 54.5854 101.228 54.5843 100.439V51.5601C54.5843 50.7708 54.8979 50.0138 55.4561 49.4556C56.0142 48.8974 56.7713 48.5838 57.5606 48.5838H91.1057C91.8947 48.5849 92.6511 48.8988 93.2091 49.4568C93.767 50.0147 94.0809 50.7711 94.082 51.5601V62.4615C94.4788 62.4297 94.8439 62.4138 95.2288 62.4138C95.5106 62.4138 95.7884 62.4138 96.0662 62.4376V51.5601C96.0651 50.2448 95.5422 48.9837 94.6121 48.0537C93.6821 47.1236 92.4209 46.6007 91.1057 46.5996V46.5996Z" fill="#00388C"/>
<path d="M96.0662 60.4535C95.7884 60.4535 95.5106 60.4297 95.2289 60.4297C94.832 60.4297 94.459 60.4296 94.082 60.4733C90.1339 60.7618 86.4413 62.5337 83.7461 65.433C81.0508 68.3324 79.5527 72.1444 79.5527 76.103C79.5527 80.0616 81.0508 83.8734 83.7461 86.7728C86.4413 89.6721 90.1339 91.444 94.082 91.7325C94.4788 91.7603 94.8439 91.7763 95.2289 91.7763C95.5106 91.7763 95.7884 91.7763 96.0662 91.7525C100.074 91.5407 103.847 89.7995 106.609 86.8879C109.371 83.9762 110.911 80.1161 110.911 76.103C110.911 72.0899 109.371 68.2296 106.609 65.3179C103.847 62.4063 100.074 60.6653 96.0662 60.4535V60.4535ZM96.0662 89.7683C95.7884 89.7683 95.5106 89.7921 95.2289 89.7921C94.832 89.7921 94.459 89.7921 94.082 89.7444C90.6649 89.4528 87.4817 87.8891 85.1621 85.3631C82.8425 82.837 81.5554 79.5325 81.5554 76.103C81.5554 72.6735 82.8425 69.3688 85.1621 66.8427C87.4817 64.3167 90.6649 62.7532 94.082 62.4616C94.4788 62.4298 94.8439 62.4139 95.2289 62.4139C95.5106 62.4139 95.7884 62.4139 96.0662 62.4377C99.5453 62.6516 102.812 64.1843 105.2 66.7235C107.588 69.2628 108.917 72.6173 108.917 76.103C108.917 79.5887 107.588 82.943 105.2 85.4823C102.812 88.0215 99.5453 89.5544 96.0662 89.7683V89.7683Z" fill="#00388C"/>
<path d="M97.9988 86.4666C97.8606 86.4665 97.7238 86.4376 97.5974 86.3815C97.471 86.3255 97.3576 86.2437 97.2647 86.1412L90.0739 78.2282C89.8971 78.033 89.8051 77.7755 89.8181 77.5125C89.8311 77.2494 89.9482 77.0022 90.1434 76.8254C90.3386 76.6485 90.5961 76.5566 90.8592 76.5696C91.1223 76.5826 91.3694 76.6997 91.5462 76.8949L98.733 84.8079C98.8621 84.9502 98.9471 85.1267 98.9777 85.3164C99.0084 85.506 98.9833 85.7005 98.9055 85.8762C98.8278 86.0518 98.7008 86.2011 98.5398 86.3059C98.3789 86.4108 98.1909 86.4665 97.9988 86.4666V86.4666Z" fill="#00A450"/>
<path d="M92.9232 78.272C91.9513 78.2634 90.9814 78.1798 90.0223 78.022C89.8924 78.0033 89.7674 77.9591 89.6547 77.8918C89.542 77.8245 89.4438 77.7354 89.3657 77.6298C89.2877 77.5243 89.2314 77.4042 89.2001 77.2768C89.1687 77.1493 89.163 77.0168 89.1832 76.8871C89.2034 76.7574 89.2492 76.6331 89.3178 76.5213C89.3865 76.4094 89.4766 76.312 89.5831 76.2352C89.6896 76.1585 89.8103 76.1037 89.9381 76.0738C90.0659 76.044 90.1984 76.0399 90.3279 76.0616C93.1335 76.5021 95.1376 76.2918 96.1178 75.4505C96.9115 74.7679 97.0107 73.6885 97.0067 72.621C97.0067 71.4702 96.6535 70.6368 95.9472 70.0416C94.3995 68.7598 91.3874 68.978 90.3556 69.1684C90.1024 69.2048 89.845 69.142 89.637 68.9931C89.4291 68.8441 89.2867 68.6206 89.2396 68.3691C89.1924 68.1177 89.2443 67.8578 89.3842 67.6437C89.5241 67.4295 89.7414 67.2777 89.9906 67.2199C90.1771 67.1842 94.6217 66.3746 97.2051 68.5096C98.3956 69.4779 98.983 70.8591 98.9909 72.6131C98.9909 73.502 98.9909 75.5815 97.4035 76.9545C96.3757 77.8355 94.9035 78.272 92.9232 78.272Z" fill="#00A450"/>
<path d="M100.916 69.1873H89.5461C89.2829 69.1873 89.0306 69.0829 88.8445 68.8969C88.6585 68.7108 88.554 68.4584 88.554 68.1952C88.554 67.9321 88.6585 67.6798 88.8445 67.4938C89.0306 67.3077 89.2829 67.2031 89.5461 67.2031H100.916C101.179 67.2031 101.431 67.3077 101.617 67.4938C101.803 67.6798 101.908 67.9321 101.908 68.1952C101.908 68.4584 101.803 68.7108 101.617 68.8969C101.431 69.0829 101.179 69.1873 100.916 69.1873V69.1873Z" fill="#00A450"/>
<path d="M100.916 74.0096H89.5461C89.2829 74.0096 89.0306 73.905 88.8445 73.7189C88.6585 73.5329 88.554 73.2806 88.554 73.0175C88.554 72.7544 88.6585 72.5019 88.8445 72.3159C89.0306 72.1298 89.2829 72.0254 89.5461 72.0254H100.916C101.179 72.0254 101.431 72.1298 101.617 72.3159C101.803 72.5019 101.908 72.7544 101.908 73.0175C101.908 73.2806 101.803 73.5329 101.617 73.7189C101.431 73.905 101.179 74.0096 100.916 74.0096Z" fill="#00A450"/>
<path d="M62.0608 66.8303C61.8651 66.8299 61.6739 66.7717 61.5113 66.6629C61.3486 66.5541 61.2218 66.3997 61.1467 66.219C61.0717 66.0383 61.0517 65.8394 61.0893 65.6474C61.127 65.4554 61.2206 65.2788 61.3583 65.1399L71.9064 54.5879C72.0927 54.4016 72.3453 54.2969 72.6088 54.2969C72.8722 54.2969 73.1249 54.4016 73.3112 54.5879C73.4975 54.7742 73.6022 55.0267 73.6022 55.2901C73.6022 55.5536 73.4975 55.8063 73.3112 55.9926L62.7592 66.5406C62.668 66.6331 62.5592 66.7066 62.4393 66.7563C62.3193 66.8061 62.1906 66.8311 62.0608 66.8303V66.8303Z" fill="#00388C"/>
<path d="M63.2276 59.3775C64.8385 59.3775 66.1443 58.0716 66.1443 56.4607C66.1443 54.8498 64.8385 53.5439 63.2276 53.5439C61.6167 53.5439 60.3108 54.8498 60.3108 56.4607C60.3108 58.0716 61.6167 59.3775 63.2276 59.3775Z" fill="#00388C"/>
<path d="M71.8866 68.0367C73.4974 68.0367 74.8033 66.7308 74.8033 65.1199C74.8033 63.509 73.4974 62.2031 71.8866 62.2031C70.2757 62.2031 68.9697 63.509 68.9697 65.1199C68.9697 66.7308 70.2757 68.0367 71.8866 68.0367Z" fill="#00388C"/>
<path d="M73.3946 77.0965H59.3861C59.123 77.0965 58.8707 76.9919 58.6846 76.8059C58.4985 76.6198 58.394 76.3675 58.394 76.1044C58.394 75.8413 58.4985 75.589 58.6846 75.403C58.8707 75.2169 59.123 75.1123 59.3861 75.1123H73.3946C73.6578 75.1123 73.9101 75.2169 74.0962 75.403C74.2822 75.589 74.3867 75.8413 74.3867 76.1044C74.3867 76.3675 74.2822 76.6198 74.0962 76.8059C73.9101 76.9919 73.6578 77.0965 73.3946 77.0965Z" fill="#00388C"/>
<path d="M73.3946 86.4666H59.3861C59.123 86.4666 58.8707 86.3622 58.6846 86.1762C58.4985 85.9901 58.394 85.7377 58.394 85.4745C58.394 85.2114 58.4985 84.9591 58.6846 84.7731C58.8707 84.587 59.123 84.4824 59.3861 84.4824H73.3946C73.6578 84.4824 73.9101 84.587 74.0962 84.7731C74.2822 84.9591 74.3867 85.2114 74.3867 85.4745C74.3867 85.7377 74.2822 85.9901 74.0962 86.1762C73.9101 86.3622 73.6578 86.4666 73.3946 86.4666Z" fill="#00388C"/>
<path d="M87.7365 96.4315H59.3861C59.123 96.4315 58.8707 96.3269 58.6846 96.1408C58.4985 95.9548 58.394 95.7025 58.394 95.4394C58.394 95.1762 58.4985 94.9238 58.6846 94.7377C58.8707 94.5517 59.123 94.4473 59.3861 94.4473H87.7365C87.9996 94.4473 88.252 94.5517 88.438 94.7377C88.6241 94.9238 88.7286 95.1762 88.7286 95.4394C88.7286 95.7025 88.6241 95.9548 88.438 96.1408C88.252 96.3269 87.9996 96.4315 87.7365 96.4315Z" fill="#00388C"/>
<defs>
<filter id="filter0_d_199_2052" x="0" y="0" width="163" height="163" filterUnits="userSpaceOnUse" color-interpolation-filters="sRGB">
<feFlood flood-opacity="0" result="BackgroundImageFix"/>
<feColorMatrix in="SourceAlpha" type="matrix" values="0 0 0 0 0 0 0 0 0 0 0 0 0 0 0 0 0 0 127 0" result="hardAlpha"/>
<feOffset dy="5"/>
<feGaussianBlur stdDeviation="6.5"/>
<feComposite in2="hardAlpha" operator="out"/>
<feColorMatrix type="matrix" values="0 0 0 0 0 0 0 0 0 0 0 0 0 0 0 0 0 0 0.1 0"/>
<feBlend mode="normal" in2="BackgroundImageFix" result="effect1_dropShadow_199_2052"/>
<feBlend mode="normal" in="SourceGraphic" in2="effect1_dropShadow_199_2052" result="shape"/>
</filter>
</defs>
</svg>
